# Blender 3.3.0
# www.blender.org
mtllib dining_room_model.mtl
o dining_room
v 0.006422 0.009597 0.122077
v 0.006422 0.009597 0.078363
v -0.044262 0.009597 0.078363
v -0.044262 0.009597 0.092174
v -0.044262 0.009597 0.121824
v -0.044262 0.009597 0.135762
v -0.041981 0.009597 0.135762
v -0.034378 0.009597 0.135762
v 0.006422 0.009597 0.135762
v 0.006422 0.009597 0.131581
v 0.006422 0.042541 0.135762
v -0.034378 0.042541 0.135762
v -0.041981 0.042541 0.135762
v -0.044262 0.042541 0.135762
v -0.044262 0.042541 0.078363
v 0.006422 0.042541 0.078363
v 0.007689 0.035066 0.131581
v 0.007689 0.009597 0.131581
v 0.006422 0.035066 0.131581
v 0.007689 0.009597 0.122077
v 0.007689 0.035066 0.122077
v 0.006422 0.035066 0.122077
v -0.041981 0.037346 0.135762
v -0.041981 0.019861 0.135762
v -0.034378 0.019861 0.135762
v -0.034378 0.037346 0.135762
v -0.044262 0.019861 0.092174
v -0.044262 0.019861 0.121824
v -0.044262 0.037346 0.092174
v -0.044262 0.037346 0.121824
v -0.046542 0.037346 0.121824
v -0.046542 0.037346 0.092174
v -0.046542 0.019861 0.092174
v -0.046542 0.019861 0.121824
v -0.034378 0.037346 0.138043
v -0.041981 0.037346 0.138043
v -0.041981 0.019861 0.138043
v -0.034378 0.019861 0.138043
v -0.029437 0.009597 0.078363
v -0.028803 0.021254 0.078363
v -0.029437 0.021254 0.078363
v -0.028803 0.021254 0.080137
v -0.021137 0.022522 0.078363
v -0.021137 0.021254 0.080137
v -0.029437 0.021254 0.080390
v -0.027536 0.021254 0.080390
v -0.027536 0.019354 0.080137
v -0.029451 0.009597 0.078363
v -0.028803 0.022522 0.080137
v -0.028803 0.022522 0.078363
v -0.027536 0.021254 0.080137
v -0.029437 0.009597 0.080390
v -0.028803 0.009597 0.080390
v -0.028803 0.010484 0.080390
v -0.026269 0.010231 0.079503
v -0.028803 0.009597 0.083305
v -0.026759 0.009597 0.084930
v -0.026759 0.010484 0.084930
v -0.028803 0.010484 0.083305
v -0.027536 0.010231 0.080137
v -0.028019 0.010231 0.082922
v -0.028043 0.010484 0.080390
v -0.028019 0.010484 0.082922
v -0.026511 0.010484 0.084150
v -0.021137 0.010484 0.084150
v -0.021137 0.010484 0.084930
v -0.021137 0.009597 0.084930
v -0.028043 0.010231 0.080390
v -0.028043 0.010231 0.082922
v -0.027536 0.010231 0.080390
v -0.026511 0.010231 0.084150
v -0.021137 0.010231 0.079503
v -0.021137 0.010231 0.084150
v -0.021137 0.022522 0.080137
v -0.021137 0.017655 0.079503
v -0.026269 0.010231 0.080137
v -0.021137 0.019354 0.080137
v -0.026269 0.016946 0.079503
v -0.021137 0.017655 0.080137
v -0.026269 0.016946 0.080137
v -0.012838 0.009597 0.078363
v -0.013471 0.021254 0.078363
v -0.012838 0.021254 0.078363
v -0.013471 0.021254 0.080137
v -0.012838 0.021254 0.080390
v -0.014739 0.021254 0.080390
v -0.014739 0.019354 0.080137
v -0.012823 0.009597 0.078363
v -0.013471 0.022522 0.080137
v -0.013471 0.022522 0.078363
v -0.014739 0.021254 0.080137
v -0.012838 0.009597 0.080390
v -0.013471 0.009597 0.080390
v -0.013471 0.010484 0.080390
v -0.016006 0.010231 0.079503
v -0.013471 0.009597 0.083305
v -0.015516 0.009597 0.084930
v -0.015516 0.010484 0.084930
v -0.013471 0.010484 0.083305
v -0.014739 0.010231 0.080137
v -0.014256 0.010231 0.082922
v -0.014232 0.010484 0.080390
v -0.014256 0.010484 0.082922
v -0.015764 0.010484 0.084150
v -0.014232 0.010231 0.080390
v -0.014232 0.010231 0.082922
v -0.014739 0.010231 0.080390
v -0.015764 0.010231 0.084150
v -0.016006 0.010231 0.080137
v -0.016006 0.016946 0.079503
v -0.016006 0.016946 0.080137
vn -0.0000 1.0000 -0.0000
vn -0.0000 -0.0000 -1.0000
vn -0.0000 -0.0000 1.0000
vn -0.0000 -1.0000 -0.0000
vn 1.0000 -0.0000 -0.0000
vn -1.0000 -0.0000 -0.0000
vn -1.0000 0.0006 0.0036
vn -0.6223 -0.0000 0.7828
vn 1.0000 -0.0000 -0.0094
vn 0.6314 -0.0000 -0.7754
vn 0.1369 -0.9906 -0.0000
vn 1.0000 0.0006 0.0036
vn 0.6223 -0.0000 0.7828
vn -1.0000 -0.0000 -0.0094
vn -0.6314 -0.0000 -0.7754
vn -0.1369 -0.9906 -0.0000
vt 0.000000 0.000000
vt 0.000000 0.000000
vt 0.000000 0.000000
vt 0.000000 0.000000
vt 0.000000 0.000000
vt 0.000000 0.000000
vt 0.000000 0.000000
vt 0.000000 0.000000
vt 0.000000 0.000000
vt 0.000000 0.000000
vt 0.000000 0.000000
vt 0.000000 0.000000
vt 0.000000 0.000000
vt 0.000000 0.000000
vt 0.000000 0.000000
vt 0.000000 0.000000
vt 0.000000 0.000000
vt 0.000000 0.000000
vt 0.000000 0.000000
vt 0.000000 0.000000
vt 0.000000 0.000000
vt 0.000000 0.000000
vt 0.000000 0.000000
vt 0.000000 0.000000
vt 0.000000 0.000000
vt 0.000000 0.000000
vt 0.000000 0.000000
vt 0.000000 0.000000
vt 0.000000 0.000000
vt 0.000000 0.000000
vt 0.000000 0.000000
vt 0.000000 0.000000
vt 0.000000 0.000000
vt 0.000000 0.000000
vt 0.000000 0.000000
vt 0.000000 0.000000
vt 0.000000 0.000000
vt 0.000000 0.000000
vt 0.000000 0.000000
vt 0.000000 0.000000
vt 0.000000 0.000000
vt 0.000000 0.000000
vt 0.000000 0.000000
vt 0.000000 0.000000
vt 0.000000 0.000000
vt 0.000000 0.000000
vt 0.000000 0.000000
vt 0.000000 0.000000
vt 0.000000 0.000000
vt 0.000000 0.000000
vt 0.000000 0.000000
vt 0.000000 0.000000
vt 0.000000 0.000000
vt 0.000000 0.000000
vt 0.000000 0.000000
vt 0.000000 0.000000
vt 0.000000 0.000000
vt 0.000000 0.000000
vt 0.000000 0.000000
vt 0.000000 0.000000
vt 0.000000 0.000000
vt 0.000000 0.000000
vt 0.000000 0.000000
vt 0.000000 0.000000
vt 0.000000 0.000000
vt 0.000000 0.000000
vt 0.000000 0.000000
vt 0.000000 0.000000
vt 0.000000 0.000000
vt 0.000000 0.000000
vt 0.000000 0.000000
vt 0.000000 0.000000
vt 0.000000 0.000000
vt 0.000000 0.000000
vt 0.000000 0.000000
vt 0.000000 0.000000
vt 0.000000 0.000000
vt 0.000000 0.000000
vt 0.000000 0.000000
vt 0.000000 0.000000
vt 0.000000 0.000000
vt 0.000000 0.000000
vt 0.000000 0.000000
vt 0.000000 0.000000
vt 0.000000 0.000000
vt 0.000000 0.000000
vt 0.000000 0.000000
vt 0.000000 0.000000
vt 0.000000 0.000000
vt 0.000000 0.000000
vt 0.000000 0.000000
vt 0.000000 0.000000
vt 0.000000 0.000000
vt 0.000000 0.000000
vt 0.000000 0.000000
vt 0.000000 0.000000
vt 0.000000 0.000000
vt 0.000000 0.000000
vt 0.000000 0.000000
vt 0.000000 0.000000
vt 0.000000 0.000000
vt 0.000000 0.000000
vt 0.000000 0.000000
vt 0.000000 0.000000
vt 0.000000 0.000000
vt 0.000000 0.000000
vt 0.000000 0.000000
s 1
usemtl Material.010
f 1/1/1 2/2/1 3/3/1 4/4/1 5/5/1 6/6/1 7/7/1 8/8/1 9/9/1 10/10/1
usemtl Material.011
f 17/17/2 18/18/2 10/10/2 19/19/2
f 20/20/3 21/21/3 22/22/3 1/1/3
f 18/18/1 20/20/1 1/1/1 10/10/1
f 21/21/4 17/17/4 19/19/4 22/22/4
f 14/14/2 13/13/2 23/23/2 24/24/2 7/7/2 6/6/2
f 7/7/2 24/24/2 25/25/2 8/8/2
f 8/8/2 25/25/2 26/26/2 12/12/2 11/11/2 9/9/2
f 23/23/2 13/13/2 12/12/2 26/26/2
f 4/4/5 27/27/5 28/28/5 5/5/5
f 29/29/5 27/27/5 4/4/5 3/3/5 15/15/5 14/14/5 6/6/5 5/5/5 28/28/5 30/30/5
f 3/3/3 2/2/3 16/16/3 15/15/3
f 22/22/6 19/19/6 10/10/6 9/9/6 11/11/6 16/16/6 2/2/6 1/1/6
f 29/29/4 30/30/4 31/31/4 32/32/4
f 28/28/1 27/27/1 33/33/1 34/34/1
f 30/30/2 28/28/2 34/34/2 31/31/2
f 27/27/3 29/29/3 32/32/3 33/33/3
f 23/23/4 26/26/4 35/35/4 36/36/4
f 25/25/1 24/24/1 37/37/1 38/38/1
f 24/24/5 23/23/5 36/36/5 37/37/5
f 26/26/6 25/25/6 38/38/6 35/35/6
s 0
usemtl strut.001
f 53/52/6 56/55/6 59/58/6 54/53/6
f 58/57/8 59/58/8 56/55/8 57/56/8
f 66/65/3 58/57/3 57/56/3 67/66/3
f 68/67/9 62/61/9 63/62/9 61/60/9
f 59/58/1 63/62/1 62/61/1 54/53/1
f 58/57/1 64/63/1 63/62/1 59/58/1
f 66/65/1 65/64/1 64/63/1 58/57/1
f 61/60/10 63/62/10 64/63/10 71/69/10
f 71/69/2 64/63/2 65/64/2 73/71/2
f 93/90/5 94/91/5 99/96/5 96/93/5
f 98/95/13 97/94/13 96/93/13 99/96/13
f 66/65/3 67/66/3 97/94/3 98/95/3
f 105/102/14 101/98/14 103/100/14 102/99/14
f 99/96/1 94/91/1 102/99/1 103/100/1
f 98/95/1 99/96/1 103/100/1 104/101/1
f 66/65/1 98/95/1 104/101/1 65/64/1
f 101/98/15 108/104/15 104/101/15 103/100/15
f 108/104/2 73/71/2 65/64/2 104/101/2
usemtl silver
f 48/47/7 52/51/7 45/44/7 41/40/7
f 42/41/1 40/39/1 41/40/1 45/44/1 46/45/1 51/50/1
f 49/48/6 50/49/6 40/39/6 42/41/6
f 74/72/1 43/42/1 50/49/1 49/48/1
f 45/44/3 52/51/3 53/52/3 54/53/3 62/61/3 68/67/3 70/68/3 46/45/3
f 73/71/1 72/70/1 55/54/1 76/74/1 60/59/1 70/68/1 68/67/1 61/60/1 71/69/1
f 44/43/3 74/72/3 49/48/3 42/41/3 51/50/3
f 46/45/5 70/68/5 60/59/5 47/46/5 51/50/5
f 77/75/3 44/43/3 51/50/3 47/46/3
f 79/77/3 77/75/3 47/46/3 60/59/3 76/74/3 80/78/3
f 79/77/11 80/78/11 78/76/11 75/73/11
f 88/85/12 83/80/12 85/82/12 92/89/12
f 84/81/1 91/88/1 86/83/1 85/82/1 83/80/1 82/79/1
f 89/86/5 84/81/5 82/79/5 90/87/5
f 74/72/1 89/86/1 90/87/1 43/42/1
f 85/82/3 86/83/3 107/103/3 105/102/3 102/99/3 94/91/3 93/90/3 92/89/3
f 73/71/1 108/104/1 101/98/1 105/102/1 107/103/1 100/97/1 109/105/1 95/92/1 72/70/1
f 44/43/3 91/88/3 84/81/3 89/86/3 74/72/3
f 86/83/6 91/88/6 87/84/6 100/97/6 107/103/6
f 77/75/3 87/84/3 91/88/3 44/43/3
f 79/77/3 111/107/3 109/105/3 100/97/3 87/84/3 77/75/3
f 79/77/16 75/73/16 110/106/16 111/107/16
usemtl floor
f 75/73/3 78/76/3 55/54/3 72/70/3
f 78/76/5 80/78/5 76/74/5 55/54/5
f 75/73/3 72/70/3 95/92/3 110/106/3
f 110/106/6 95/92/6 109/105/6 111/107/6
l 39 41
l 81 83
l 106 108
l 105 106
l 68 69
l 69 71
