# Blender 3.3.0
# www.blender.org
mtllib top.mtl
o disconnect_button
v 0.000000 0.000830 -0.008232
v -0.001606 0.000830 -0.008074
v -0.003150 0.000830 -0.007605
v -0.004573 0.000830 -0.006845
v -0.005821 0.000830 -0.005821
v -0.006845 0.000830 -0.004573
v -0.007605 0.000830 -0.003150
v -0.008074 0.000830 -0.001606
v -0.008232 0.000830 0.000000
v -0.008074 0.000830 0.001606
v -0.007605 0.000830 0.003150
v -0.006845 0.000830 0.004573
v -0.005821 0.000830 0.005821
v -0.004573 0.000830 0.006845
v -0.003150 0.000830 0.007605
v -0.001606 0.000830 0.008074
v 0.000000 0.000830 0.008232
v 0.001606 0.000830 0.008074
v 0.003150 0.000830 0.007605
v 0.004573 0.000830 0.006845
v 0.005821 0.000830 0.005821
v 0.006845 0.000830 0.004573
v 0.007605 0.000830 0.003150
v 0.008074 0.000830 0.001606
v 0.008232 0.000830 0.000000
v 0.008074 0.000830 -0.001606
v 0.007605 0.000830 -0.003150
v 0.006845 0.000830 -0.004573
v 0.005821 0.000830 -0.005821
v 0.004573 0.000830 -0.006845
v 0.003150 0.000830 -0.007605
v 0.001606 0.000830 -0.008074
vn -0.0000 1.0000 -0.0000
vt 0.393594 1.309327
vt 0.323388 1.296090
vt 0.255997 1.258702
vt 0.193997 1.198754
vt 0.139740 1.118377
vt 0.095357 1.020711
vt 0.062581 0.909590
vt 0.042577 0.789230
vt 0.036198 0.664232
vt 0.043644 0.539421
vt 0.064674 0.419616
vt 0.098395 0.309393
vt 0.143607 0.212937
vt 0.198545 0.134033
vt 0.261050 0.075766
vt 0.328752 0.040202
vt 0.399064 0.028862
vt 0.469270 0.042099
vt 0.536660 0.079487
vt 0.598661 0.139435
vt 0.652918 0.219812
vt 0.697301 0.317478
vt 0.730076 0.428599
vt 0.750081 0.548959
vt 0.756460 0.673957
vt 0.749014 0.798768
vt 0.727983 0.918573
vt 0.694262 1.028796
vt 0.649050 1.125252
vt 0.594113 1.204155
vt 0.531607 1.262423
vt 0.463905 1.297987
s 0
usemtl inner
f 2/2/1 3/3/1 4/4/1 5/5/1 6/6/1 7/7/1 8/8/1 9/9/1 10/10/1 11/11/1 12/12/1 13/13/1 14/14/1 15/15/1 16/16/1 17/17/1 18/18/1 19/19/1 20/20/1 21/21/1 22/22/1 23/23/1 24/24/1 25/25/1 26/26/1 27/27/1 28/28/1 29/29/1 30/30/1 31/31/1 32/32/1 1/1/1
