# Blender 3.6.0
# www.blender.org
mtllib clip_haus_none.mtl
o clipboard_none
v 0.107556 -0.000611 0.256248
v 0.107856 -0.000611 0.255948
v -0.105101 0.004609 -0.049060
v -0.106230 0.004309 -0.050489
v 0.107856 -0.000611 -0.050189
v 0.107556 -0.000611 -0.050489
v -0.106230 -0.000611 -0.050489
v -0.106530 -0.000611 -0.050189
v -0.106230 -0.000611 0.256248
v -0.106530 -0.000611 0.255948
v 0.106427 0.004609 0.254819
v 0.107556 0.004309 0.256248
v 0.106427 0.004609 -0.049060
v 0.107856 0.004309 -0.050189
v -0.105101 0.004609 0.254819
v -0.106530 0.004309 0.255948
v -0.106530 0.004309 -0.050189
v -0.106230 0.004309 0.256248
v 0.107856 0.004309 0.255948
v 0.107556 0.004309 -0.050489
v 0.007439 0.004405 -0.054656
v -0.018309 0.004405 -0.054656
v -0.028499 -0.005936 -0.071519
v -0.028025 0.008845 -0.071578
v 0.007439 -0.007032 -0.024039
v 0.007439 0.009826 -0.024039
v 0.007439 -0.007032 -0.072614
v 0.007439 0.009826 -0.072614
v -0.018309 -0.007032 -0.072614
v -0.019345 0.008845 -0.071578
v -0.018309 -0.007032 -0.024039
v -0.018309 0.009826 -0.024039
v -0.028499 -0.005936 -0.057225
v -0.028025 0.008845 -0.057165
v 0.007439 -0.007032 -0.056129
v 0.007439 0.009826 -0.056129
v -0.019345 0.008845 -0.057165
v -0.019313 -0.006028 -0.056756
v 0.007439 -0.000220 -0.054656
v -0.018309 -0.000220 -0.054656
v -0.028499 0.008730 -0.057225
v -0.028499 0.008730 -0.071519
v -0.018309 0.009826 -0.072614
v -0.019313 0.008822 -0.056756
v -0.028056 0.008822 -0.056756
v -0.029061 0.009826 -0.072614
v -0.029061 -0.007032 -0.072614
v -0.028056 -0.006028 -0.056756
v -0.018309 0.009826 -0.056129
v -0.018309 -0.007032 -0.056129
v -0.029061 -0.007032 -0.056129
v -0.029061 0.009826 -0.056129
v -0.007439 0.004405 -0.054656
v 0.018309 0.004405 -0.054656
v 0.028499 -0.005936 -0.071519
v 0.028025 0.008845 -0.071578
v -0.007439 -0.007032 -0.024039
v -0.007439 0.009826 -0.024039
v -0.007439 -0.007032 -0.072614
v -0.007439 0.009826 -0.072614
v 0.018309 -0.007032 -0.072614
v 0.019345 0.008845 -0.071578
v 0.018309 -0.007032 -0.024039
v 0.018309 0.009826 -0.024039
v 0.028499 -0.005936 -0.057225
v 0.028025 0.008845 -0.057165
v -0.007439 -0.007032 -0.056129
v -0.007439 0.009826 -0.056129
v 0.019345 0.008845 -0.057165
v 0.019313 -0.006028 -0.056756
v -0.007439 -0.000220 -0.054656
v 0.018309 -0.000220 -0.054656
v 0.028499 0.008730 -0.057225
v 0.028499 0.008730 -0.071519
v 0.018309 0.009826 -0.072614
v 0.019313 0.008822 -0.056756
v 0.028056 0.008822 -0.056756
v 0.029061 0.009826 -0.072614
v 0.029061 -0.007032 -0.072614
v 0.028056 -0.006028 -0.056756
v 0.018309 0.009826 -0.056129
v 0.018309 -0.007032 -0.056129
v 0.029061 -0.007032 -0.056129
v 0.029061 0.009826 -0.056129
v -0.105806 0.004609 -0.050489
v -0.106530 0.004609 -0.049765
v 0.107132 0.004609 -0.050489
v 0.107132 0.004609 0.256248
v -0.105806 0.004609 0.256248
v 0.107856 0.004609 0.255523
v 0.107856 0.004609 -0.049765
v -0.106530 0.004609 0.255523
vn 0.5002 0.7069 -0.5002
vn -0.0000 -1.0000 -0.0000
vn 1.0000 -0.0000 -0.0000
vn -0.0000 -0.0000 1.0000
vn -0.0000 1.0000 -0.0000
vn -0.0000 -0.9847 0.1743
vn -1.0000 -0.0000 -0.0000
vn -0.0000 0.9761 0.2172
vn 0.5001 0.7073 0.4996
vn -0.5002 0.7069 -0.5002
vn -0.5001 0.7073 0.4996
vn -0.7071 -0.0000 -0.7071
vn -0.0000 -0.0000 -1.0000
vn -0.7071 -0.0000 0.7071
vn 0.7071 -0.0000 0.7071
vn 0.7071 -0.0000 -0.7071
vn 0.6871 0.7266 -0.0000
vn -0.0000 0.7265 0.6872
vn -0.6876 0.7261 -0.0000
vn -0.0000 0.7264 -0.6872
vn -0.8898 -0.4563 -0.0000
vn -0.8897 -0.0000 0.4566
vn -0.8898 0.4563 -0.0000
vn -0.8898 -0.0000 -0.4563
vn -0.5297 -0.0000 0.8482
vn -0.0000 0.5297 0.8482
vn -0.0000 -0.5297 0.8482
vn 0.5293 -0.0000 0.8484
vn -0.6871 0.7266 -0.0000
vn -0.0000 0.7269 0.6867
vn 0.6876 0.7261 -0.0000
vn 0.8898 -0.4563 -0.0000
vn 0.8897 -0.0000 0.4566
vn 0.8901 0.4559 -0.0000
vn 0.8898 -0.0000 -0.4563
vn 0.5297 -0.0000 0.8482
vn -0.5293 -0.0000 0.8484
vt 0.625845 0.500000
vt 0.625000 0.500590
vt 0.610633 0.500244
vt 0.610633 0.499650
vt 1.107067 -0.806578
vt 1.107440 -0.801625
vt 1.107440 1.760636
vt 1.107067 1.765589
vt -0.104320 1.765589
vt -0.104693 1.760636
vt -0.104693 -0.801625
vt -0.104320 -0.806578
vt 0.375000 0.625000
vt 0.625000 0.625000
vt 0.625000 0.750000
vt 0.500000 0.750000
vt 0.437500 0.750000
vt 0.375000 0.750000
vt 0.000000 0.000000
vt 0.500000 0.875000
vt 0.437500 0.875000
vt 0.625000 0.875000
vt 0.375000 0.875000
vt 0.250000 0.625000
vt 0.250000 0.750000
vt 0.750000 0.750000
vt 0.750000 0.625000
vt 0.625000 0.749410
vt 0.625845 0.750000
vt 0.610633 0.750350
vt 0.610633 0.749756
vt 0.375000 0.500244
vt 0.375000 0.749756
vt 0.375000 0.750350
vt 0.625000 0.750845
vt 0.625000 0.999155
vt 0.610633 0.999650
vt 0.375000 0.999650
vt 0.375000 0.000245
vt 0.610633 0.000245
vt 0.625000 0.000590
vt 0.625000 0.249410
vt 0.610633 0.249755
vt 0.375000 0.249755
vt 0.625000 0.249755
vt 0.625000 0.250350
vt 0.610633 0.250350
vt 0.625000 0.000000
vt 0.625000 0.000245
vt 0.610633 0.000000
vt 0.375000 0.250350
vt 0.625000 0.250845
vt 0.625000 0.499155
vt 0.375000 0.499650
vt 0.375000 0.000000
vt 0.873427 0.501230
vt 0.874155 0.500000
vt 0.875000 0.500590
vt 0.626573 0.501230
vt 0.626574 0.748771
vt 0.873426 0.748771
vt 0.874155 0.750000
vt 0.626760 0.501099
vt 0.626760 0.748901
vt 0.873240 0.748901
vt 0.873240 0.501099
vt 0.875000 0.749410
vt 0.391246 0.133307
vt 0.608754 0.133307
vt 0.608754 0.241693
vt 0.391246 0.241693
vt 0.375000 0.250000
vt 0.625000 0.250000
vt 0.625000 0.375000
vt 0.375000 0.375000
vt 0.125000 0.500000
vt 0.250000 0.500000
vt 0.125000 0.625000
vt 0.625000 0.500000
vt 0.750000 0.500000
vt 0.762044 0.507855
vt 0.862956 0.507855
vt 0.862956 0.617145
vt 0.762044 0.617145
vt 0.375000 0.500000
vt 0.875000 0.500000
vt 0.875000 0.625000
vt 0.625000 0.125000
vt 0.375000 0.125000
vt 0.995838 1.000308
vt 0.003595 1.000308
vt 0.003597 0.000308
vt 0.995836 0.000308
s 0
usemtl myBase.003
f 87/1/1 91/2/1 14/3/1 20/4/1
f 8/5/2 7/6/2 6/7/2 5/8/2 2/9/2 1/10/2 9/11/2 10/12/2
usemtl myMetal.003
f 35/13/3 36/14/3 26/15/3 21/16/3 39/17/3 25/18/3
f 31/19/2 50/19/2 67/13/2 57/18/2
f 39/17/4 21/16/4 22/20/4 40/21/4
f 49/19/5 32/19/5 58/15/5 68/14/5
f 49/19/4 50/19/4 35/19/4 36/19/4
f 21/16/6 26/15/6 32/22/6 22/20/6
f 49/19/7 50/19/7 31/19/7 40/19/7 22/19/7 32/19/7
f 25/18/8 39/17/8 40/21/8 31/23/8
f 67/13/7 57/18/7 71/17/7 53/16/7 58/15/7 68/14/7
f 82/24/2 63/25/2 57/18/2 67/13/2
f 71/17/4 72/21/4 54/20/4 53/16/4
f 68/14/5 58/15/5 64/26/5 81/27/5
f 81/19/4 68/19/4 67/19/4 82/19/4
f 26/15/6 21/16/6 54/19/6 64/19/6
f 81/19/3 64/19/3 54/19/3 72/19/3 63/19/3 82/19/3
f 39/17/8 25/18/8 63/19/8 72/19/8
usemtl myHook.003
f 90/28/9 88/29/9 12/30/9 19/31/9
f 5/32/3 14/3/3 91/2/3 90/28/3 19/31/3 2/33/3
f 1/34/4 12/30/4 88/35/4 89/36/4 18/37/4 9/38/4
f 10/39/7 16/40/7 92/41/7 86/42/7 17/43/7 8/44/7
f 86/45/10 85/46/10 4/47/10 17/43/10
f 89/48/11 92/49/11 16/40/11 18/50/11
f 4/47/12 7/51/12 8/44/12 17/43/12
f 7/51/13 4/47/13 85/52/13 87/53/13 20/4/13 6/54/13
f 9/55/14 18/50/14 16/40/14 10/39/14
f 12/30/15 1/34/15 2/33/15 19/31/15
f 14/3/16 5/32/16 6/54/16 20/4/16
f 3/56/5 85/57/5 86/58/5
f 3/56/5 13/59/5 87/1/5 85/57/5
f 11/60/5 15/61/5 89/62/5 88/29/5
f 11/60/5 88/29/5 90/28/5
f 13/63/5 11/64/5 90/28/5 91/2/5
f 13/63/5 91/2/5 87/1/5
f 15/65/5 3/66/5 86/58/5 92/67/5
f 15/65/5 92/67/5 89/62/5
f 33/68/7 41/69/7 42/70/7 23/71/7
f 43/19/13 60/19/13 59/19/13 29/19/13
f 38/19/4 44/19/4 45/19/4 48/19/4
f 47/72/13 46/73/13 43/74/13 29/75/13
f 47/76/2 29/77/2 50/24/2 51/78/2
f 28/79/5 43/80/5 49/27/5 36/14/5
f 30/81/5 24/82/5 34/83/5 37/84/5
f 29/19/2 59/19/2 67/19/2 50/19/2
f 27/85/3 28/79/3 36/14/3 35/13/3
f 34/83/17 24/82/17 46/86/17 52/87/17
f 24/82/18 30/81/18 43/80/18 46/86/18
f 30/81/19 37/84/19 49/27/19 43/80/19
f 37/84/20 34/83/20 52/87/20 49/27/20
f 42/70/21 41/69/21 52/88/21 46/73/21
f 23/71/22 42/70/22 46/73/22 47/72/22
f 33/68/23 23/71/23 47/72/23 51/89/23
f 41/69/24 33/68/24 51/89/24 52/88/24
f 44/19/25 38/19/25 50/19/25 49/19/25
f 38/19/26 48/19/26 51/19/26 50/19/26
f 45/19/27 44/19/27 49/19/27 52/19/27
f 48/19/28 45/19/28 52/19/28 51/19/28
f 65/68/3 55/71/3 74/70/3 73/69/3
f 61/75/13 59/85/13 60/79/13 75/74/13
f 70/19/4 80/19/4 77/19/4 76/19/4
f 79/72/13 61/75/13 75/74/13 78/73/13
f 79/76/2 83/78/2 82/24/2 61/77/2
f 75/80/5 28/79/5 36/14/5 81/27/5
f 62/81/5 69/84/5 66/83/5 56/82/5
f 61/77/2 82/24/2 67/13/2 59/85/2
f 59/85/7 67/13/7 68/14/7 60/79/7
f 66/83/29 84/87/29 78/86/29 56/82/29
f 56/82/30 78/86/30 75/80/30 62/81/30
f 62/81/31 75/80/31 81/27/31 69/84/31
f 69/84/20 81/27/20 84/87/20 66/83/20
f 74/70/32 78/73/32 84/88/32 73/69/32
f 55/71/33 79/72/33 78/73/33 74/70/33
f 65/68/34 83/89/34 79/72/34 55/71/34
f 73/69/35 84/88/35 83/89/35 65/68/35
f 76/19/36 81/19/36 82/19/36 70/19/36
f 70/19/26 82/19/26 83/19/26 80/19/26
f 77/19/27 84/19/27 81/19/27 76/19/27
f 80/19/37 83/19/37 84/19/37 77/19/37
usemtl myPic.003
f 13/90/5 3/91/5 15/92/5 11/93/5
