# Blender 3.3.0
# www.blender.org
mtllib clip_house_hateful_eight.mtl
o clipboard_house
v 0.107556 -0.000611 0.256248
v 0.107856 -0.000611 0.255948
v -0.105101 0.004609 -0.049060
v -0.106230 0.004309 -0.050489
v 0.107856 -0.000611 -0.050189
v 0.107556 -0.000611 -0.050489
v -0.106230 -0.000611 -0.050489
v -0.106530 -0.000611 -0.050189
v -0.106230 -0.000611 0.256248
v -0.106530 -0.000611 0.255948
v 0.106427 0.004609 0.254819
v 0.107556 0.004309 0.256248
v 0.106427 0.004609 -0.049060
v 0.107856 0.004309 -0.050189
v -0.105101 0.004609 0.254819
v -0.106530 0.004309 0.255948
v -0.106530 0.004309 -0.050189
v -0.106230 0.004309 0.256248
v 0.107856 0.004309 0.255948
v 0.107556 0.004309 -0.050489
v 0.007439 0.004405 -0.054656
v -0.018309 0.004405 -0.054656
v -0.028499 -0.005936 -0.071519
v -0.028025 0.008845 -0.071578
v 0.007439 -0.007032 -0.024039
v 0.007439 0.009826 -0.024039
v 0.007439 -0.007032 -0.072614
v 0.007439 0.009826 -0.072614
v -0.018309 -0.007032 -0.072614
v -0.019345 0.008845 -0.071578
v -0.018309 -0.007032 -0.024039
v -0.018309 0.009826 -0.024039
v -0.028499 -0.005936 -0.057225
v -0.028025 0.008845 -0.057165
v 0.007439 -0.007032 -0.056129
v 0.007439 0.009826 -0.056129
v -0.019345 0.008845 -0.057165
v -0.019313 -0.006028 -0.056756
v 0.007439 -0.000220 -0.054656
v -0.018309 -0.000220 -0.054656
v -0.028499 0.008730 -0.057225
v -0.028499 0.008730 -0.071519
v -0.018309 0.009826 -0.072614
v -0.019313 0.008822 -0.056756
v -0.028056 0.008822 -0.056756
v -0.029061 0.009826 -0.072614
v -0.029061 -0.007032 -0.072614
v -0.028056 -0.006028 -0.056756
v -0.018309 0.009826 -0.056129
v -0.018309 -0.007032 -0.056129
v -0.029061 -0.007032 -0.056129
v -0.029061 0.009826 -0.056129
v -0.007439 0.004405 -0.054656
v 0.018309 0.004405 -0.054656
v 0.028499 -0.005936 -0.071519
v 0.028025 0.008845 -0.071578
v -0.007439 -0.007032 -0.024039
v -0.007439 0.009826 -0.024039
v -0.007439 -0.007032 -0.072614
v -0.007439 0.009826 -0.072614
v 0.018309 -0.007032 -0.072614
v 0.019345 0.008845 -0.071578
v 0.018309 -0.007032 -0.024039
v 0.018309 0.009826 -0.024039
v 0.028499 -0.005936 -0.057225
v 0.028025 0.008845 -0.057165
v -0.007439 -0.007032 -0.056129
v -0.007439 0.009826 -0.056129
v 0.019345 0.008845 -0.057165
v 0.019313 -0.006028 -0.056756
v -0.007439 -0.000220 -0.054656
v 0.018309 -0.000220 -0.054656
v 0.028499 0.008730 -0.057225
v 0.028499 0.008730 -0.071519
v 0.018309 0.009826 -0.072614
v 0.019313 0.008822 -0.056756
v 0.028056 0.008822 -0.056756
v 0.029061 0.009826 -0.072614
v 0.029061 -0.007032 -0.072614
v 0.028056 -0.006028 -0.056756
v 0.018309 0.009826 -0.056129
v 0.018309 -0.007032 -0.056129
v 0.029061 -0.007032 -0.056129
v 0.029061 0.009826 -0.056129
v -0.105806 0.004609 -0.050489
v -0.106530 0.004609 -0.049765
v 0.107132 0.004609 -0.050489
v 0.107132 0.004609 0.256248
v -0.105806 0.004609 0.256248
v 0.107856 0.004609 0.255523
v 0.107856 0.004609 -0.049765
v -0.106530 0.004609 0.255523
v 0.042933 0.006167 0.047394
v 0.042980 0.006304 0.018148
v 0.041286 0.004520 0.048311
v 0.041335 0.004668 0.017210
v 0.094928 0.006202 0.047478
v 0.094975 0.006340 0.018232
v 0.096575 0.004557 0.048400
v 0.096625 0.004705 0.017299
v 0.041284 0.005528 0.048315
v 0.041334 0.005676 0.017215
v 0.096624 0.005713 0.017304
v 0.096575 0.005566 0.048404
v 0.042671 0.006167 0.012557
v 0.042718 0.006304 -0.016689
v 0.041024 0.004520 0.013474
v 0.041073 0.004668 -0.017627
v 0.094666 0.006202 0.012641
v 0.094713 0.006340 -0.016605
v 0.096313 0.004557 0.013563
v 0.096363 0.004705 -0.017537
v 0.041022 0.005528 0.013479
v 0.041072 0.005676 -0.017622
v 0.096362 0.005713 -0.017533
v 0.096313 0.005566 0.013567
v 0.043452 0.006167 0.116278
v 0.043499 0.006304 0.087032
v 0.041804 0.004520 0.117194
v 0.041854 0.004668 0.086094
v 0.095447 0.006202 0.116361
v 0.095494 0.006340 0.087115
v 0.097094 0.004557 0.117284
v 0.097144 0.004705 0.086183
v 0.041803 0.005528 0.117199
v 0.041853 0.005676 0.086099
v 0.097143 0.005713 0.086188
v 0.097094 0.005566 0.117288
v 0.043762 0.006167 0.157432
v 0.043809 0.006304 0.128186
v 0.042114 0.004520 0.158349
v 0.042163 0.004668 0.127248
v 0.095757 0.006202 0.157516
v 0.095804 0.006340 0.128270
v 0.097404 0.004557 0.158438
v 0.097454 0.004705 0.127337
v 0.042113 0.005528 0.158354
v 0.042163 0.005676 0.127253
v 0.097453 0.005713 0.127342
v 0.097403 0.005566 0.158442
v 0.044024 0.006167 0.192269
v 0.044071 0.006304 0.163023
v 0.042377 0.004520 0.193185
v 0.042426 0.004668 0.162085
v 0.096019 0.006202 0.192353
v 0.096066 0.006340 0.163106
v 0.097666 0.004557 0.193275
v 0.097716 0.004705 0.162174
v 0.042375 0.005528 0.193190
v 0.042425 0.005676 0.162090
v 0.097715 0.005713 0.162179
v 0.097666 0.005566 0.193279
v -0.024031 0.006167 0.173557
v -0.023983 0.006304 0.144311
v -0.025678 0.004520 0.174474
v -0.025629 0.004668 0.143373
v 0.027964 0.006202 0.173641
v 0.028012 0.006340 0.144395
v 0.029612 0.004557 0.174563
v 0.029662 0.004705 0.143462
v -0.025679 0.005528 0.174478
v -0.025629 0.005676 0.143378
v 0.029661 0.005713 0.143467
v 0.029611 0.005566 0.174567
v -0.023547 0.006167 0.237786
v -0.023500 0.006304 0.208540
v -0.025194 0.004520 0.238703
v -0.025145 0.004668 0.207602
v 0.028448 0.006202 0.237870
v 0.028495 0.006340 0.208624
v 0.030096 0.004557 0.238792
v 0.030146 0.004705 0.207692
v -0.025196 0.005528 0.238708
v -0.025146 0.005676 0.207607
v 0.030144 0.005713 0.207696
v 0.030095 0.005566 0.238796
v 0.043190 0.006167 0.081507
v 0.043237 0.006304 0.052260
v 0.041543 0.004520 0.082423
v 0.041592 0.004668 0.051323
v 0.095185 0.006202 0.081590
v 0.095232 0.006340 0.052344
v 0.096832 0.004557 0.082512
v 0.096882 0.004705 0.051412
v 0.041541 0.005528 0.082428
v 0.041591 0.005676 0.051327
v 0.096881 0.005713 0.051417
v 0.096832 0.005566 0.082516
v -0.024851 0.006167 0.081393
v -0.024803 0.006304 0.052147
v -0.026498 0.004520 0.082310
v -0.026449 0.004668 0.051209
v 0.027145 0.006202 0.081477
v 0.027192 0.006340 0.052231
v 0.028792 0.004557 0.082399
v 0.028842 0.004705 0.051299
v -0.026499 0.005528 0.082315
v -0.026449 0.005676 0.051214
v 0.028841 0.005713 0.051303
v 0.028791 0.005566 0.082403
v -0.024851 0.006167 0.047379
v -0.024803 0.006304 0.018133
v -0.026498 0.004520 0.048296
v -0.026449 0.004668 0.017195
v 0.027145 0.006202 0.047463
v 0.027192 0.006340 0.018217
v 0.028792 0.004557 0.048385
v 0.028842 0.004705 0.017285
v -0.026499 0.005528 0.048301
v -0.026449 0.005676 0.017200
v 0.028841 0.005713 0.017289
v 0.028791 0.005566 0.048389
vn 0.0007 -1.0000 -0.0048
vn -0.0007 1.0000 0.0047
vn -0.3595 0.9331 0.0038
vn 0.3578 0.9338 0.0050
vn -0.0015 0.8231 0.5679
vn 0.0004 0.8289 -0.5594
vn -0.3589 0.9334 0.0038
vn -0.0015 0.8233 0.5676
vn 0.0004 0.8286 -0.5598
vn 0.0004 0.8287 -0.5597
vn -0.3595 0.9331 0.0037
vn 0.0003 0.8290 -0.5593
vn -0.3590 0.9333 0.0038
vn -0.0015 0.8230 0.5681
vn 0.3579 0.9337 0.0050
vn -0.0015 0.8232 0.5678
vn -0.3592 0.9332 0.0038
vn -1.0000 -0.0015 -0.0016
vn 1.0000 0.0008 0.0016
vn -0.0016 -0.0047 1.0000
vn 0.0016 0.0050 -1.0000
vn -1.0000 -0.0008 -0.0016
vn 1.0000 0.0005 0.0016
vn -0.0016 -0.0049 1.0000
vn 0.0016 0.0048 -1.0000
vn -1.0000 -0.0010 -0.0016
vn -0.0016 -0.0045 1.0000
vn -1.0000 -0.0005 -0.0016
vn 1.0000 0.0010 0.0016
vn -0.0016 -0.0040 1.0000
vn 1.0000 0.0015 0.0016
vn -1.0000 -0.0009 -0.0016
vn 0.5002 0.7069 -0.5002
vn -0.0000 -1.0000 -0.0000
vn 1.0000 -0.0000 -0.0000
vn -0.0000 -0.0000 1.0000
vn -0.0000 1.0000 -0.0000
vn -0.0000 -0.9847 0.1743
vn -1.0000 -0.0000 -0.0000
vn -0.0000 0.9761 0.2172
vn 0.5001 0.7073 0.4996
vn -0.5002 0.7069 -0.5002
vn -0.5001 0.7073 0.4996
vn -0.7071 -0.0000 -0.7071
vn -0.0000 -0.0000 -1.0000
vn -0.7071 -0.0000 0.7071
vn 0.7071 -0.0000 0.7071
vn 0.7071 -0.0000 -0.7071
vn 0.6872 0.7264 -0.0000
vn -0.0000 0.7264 0.6872
vn -0.6876 0.7261 -0.0000
vn -0.0000 0.7264 -0.6872
vn -0.8898 -0.4563 -0.0000
vn -0.8897 -0.0000 0.4566
vn -0.8898 0.4563 -0.0000
vn -0.8898 -0.0000 -0.4563
vn -0.5297 -0.0000 0.8482
vn -0.0000 0.5297 0.8482
vn -0.0000 -0.5297 0.8482
vn 0.5293 -0.0000 0.8484
vn -0.6872 0.7264 -0.0000
vn -0.0000 0.7269 0.6868
vn 0.6876 0.7261 -0.0000
vn 0.8898 -0.4563 -0.0000
vn 0.8897 -0.0000 0.4566
vn 0.8901 0.4559 -0.0000
vn 0.8898 -0.0000 -0.4563
vn 0.5297 -0.0000 0.8482
vn -0.5293 -0.0000 0.8484
vn 0.0016 0.0045 -1.0000
vt -0.104693 1.760636
vt 0.375000 0.750350
vt -0.104320 1.765589
vt 0.375000 0.749756
vt 0.873427 0.501230
vt 0.873240 0.501099
vt 0.003595 1.000308
vt 0.610633 0.250350
vt 1.107067 1.765589
vt 0.375000 0.500244
vt 1.107440 1.760636
vt 0.375000 0.499650
vt 1.107440 -0.801625
vt 0.375000 0.250350
vt 1.107067 -0.806578
vt 0.375000 0.249755
vt -0.104693 -0.801625
vt 0.375000 0.999650
vt 0.375000 0.000000
vt -0.104320 -0.806578
vt 0.375000 0.000245
vt 0.626574 0.748771
vt 0.626760 0.748901
vt 0.995836 0.000308
vt 0.610633 0.750350
vt 0.626573 0.501230
vt 0.626760 0.501099
vt 0.995838 1.000308
vt 0.610633 0.500244
vt 0.873426 0.748771
vt 0.873240 0.748901
vt 0.003597 0.000308
vt 0.610633 0.000245
vt 0.610633 0.249755
vt 0.610633 0.999650
vt 0.610633 0.000000
vt 0.610633 0.749756
vt 0.610633 0.499650
vt 0.500000 0.750000
vt 0.500000 0.875000
vt 0.000000 0.000000
vt 0.391246 0.241693
vt 0.862956 0.507855
vt 0.375000 0.750000
vt 0.625000 0.750000
vt 0.375000 0.500000
vt 0.625000 0.500000
vt 0.375000 0.375000
vt 0.250000 0.500000
vt 0.000000 0.000000
vt 0.762044 0.507855
vt 0.000000 0.000000
vt 0.375000 0.875000
vt 0.625000 0.875000
vt 0.000000 0.000000
vt 0.391246 0.133307
vt 0.862956 0.617145
vt 0.000000 0.000000
vt 0.375000 0.625000
vt 0.000000 0.000000
vt 0.625000 0.625000
vt 0.762044 0.617145
vt 0.000000 0.000000
vt 0.437500 0.750000
vt 0.000000 0.000000
vt 0.437500 0.875000
vt 0.608754 0.133307
vt 0.608754 0.241693
vt 0.000000 0.000000
vt 0.625000 0.375000
vt 0.750000 0.500000
vt 0.000000 0.000000
vt 0.000000 0.000000
vt 0.875000 0.500000
vt 0.625000 0.250000
vt 0.125000 0.500000
vt 0.375000 0.250000
vt 0.000000 0.000000
vt 0.750000 0.625000
vt 0.000000 0.000000
vt 0.250000 0.625000
vt 0.000000 0.000000
vt 0.125000 0.625000
vt 0.375000 0.125000
vt 0.000000 0.000000
vt 0.875000 0.625000
vt 0.625000 0.125000
vt 0.000000 0.000000
vt 0.500000 0.750000
vt 0.500000 0.875000
vt 0.000000 0.000000
vt 0.391246 0.241693
vt 0.862956 0.507855
vt 0.375000 0.750000
vt 0.625000 0.750000
vt 0.000000 0.000000
vt 0.375000 0.500000
vt 0.000000 0.000000
vt 0.625000 0.500000
vt 0.375000 0.375000
vt 0.250000 0.500000
vt 0.762044 0.507855
vt 0.250000 0.750000
vt 0.000000 0.000000
vt 0.750000 0.750000
vt 0.000000 0.000000
vt 0.391246 0.133307
vt 0.862956 0.617145
vt 0.000000 0.000000
vt 0.375000 0.625000
vt 0.000000 0.000000
vt 0.625000 0.625000
vt 0.762044 0.617145
vt 0.000000 0.000000
vt 0.437500 0.750000
vt 0.437500 0.875000
vt 0.000000 0.000000
vt 0.608754 0.133307
vt 0.608754 0.241693
vt 0.625000 0.375000
vt 0.750000 0.500000
vt 0.000000 0.000000
vt 0.000000 0.000000
vt 0.875000 0.500000
vt 0.625000 0.250000
vt 0.125000 0.500000
vt 0.375000 0.250000
vt 0.000000 0.000000
vt 0.750000 0.625000
vt 0.000000 0.000000
vt 0.250000 0.625000
vt 0.000000 0.000000
vt 0.125000 0.625000
vt 0.375000 0.125000
vt 0.000000 0.000000
vt 0.875000 0.625000
vt 0.625000 0.125000
vt 0.000000 0.000000
vt 0.625000 0.250350
vt 0.625000 0.250845
vt 0.874155 0.500000
vt 0.625000 0.249410
vt 0.625000 0.249755
vt 0.875000 0.500590
vt 0.625000 0.499155
vt 0.625845 0.500000
vt 0.625000 0.750845
vt 0.625845 0.750000
vt 0.625000 0.999155
vt 0.625000 0.000000
vt 0.874155 0.750000
vt 0.625000 0.749410
vt 0.625000 0.500590
vt 0.625000 0.000590
vt 0.625000 0.000245
vt 0.875000 0.749410
vt 0.003898 0.003699
vt 0.017126 0.030155
vt 0.003898 0.996301
vt 0.017126 0.969845
vt 0.375000 0.250000
vt 0.125000 0.500000
vt 0.625000 0.250000
vt 0.875000 0.500000
vt 0.997119 0.003699
vt 0.545702 0.030155
vt 0.997119 0.996301
vt 0.545702 0.969845
vt 0.375000 0.500000
vt 0.625000 0.500000
vt 0.000375 0.000375
vt 0.375000 0.000000
vt 0.125000 0.750000
vt 0.000375 0.999625
vt 0.625000 0.000000
vt 0.875000 0.750000
vt 0.562453 0.999625
vt 0.625000 0.750000
vt 0.562453 0.000375
vt 0.375000 0.750000
vt 0.003898 0.003699
vt 0.017126 0.030155
vt 0.003898 0.996301
vt 0.017126 0.969845
vt 0.375000 0.250000
vt 0.125000 0.500000
vt 0.625000 0.250000
vt 0.875000 0.500000
vt 0.997119 0.003699
vt 0.545702 0.030155
vt 0.997119 0.996301
vt 0.545702 0.969845
vt 0.375000 0.500000
vt 0.625000 0.500000
vt 0.000375 0.000375
vt 0.375000 0.000000
vt 0.125000 0.750000
vt 0.000375 0.999625
vt 0.625000 0.000000
vt 0.875000 0.750000
vt 0.562453 0.999625
vt 0.625000 0.750000
vt 0.562453 0.000375
vt 0.375000 0.750000
vt 0.003898 0.003699
vt 0.017126 0.030155
vt 0.003898 0.996301
vt 0.017126 0.969845
vt 0.375000 0.250000
vt 0.125000 0.500000
vt 0.625000 0.250000
vt 0.875000 0.500000
vt 0.997119 0.003699
vt 0.545702 0.030155
vt 0.997119 0.996301
vt 0.545702 0.969845
vt 0.375000 0.500000
vt 0.625000 0.500000
vt 0.000375 0.000375
vt 0.375000 0.000000
vt 0.125000 0.750000
vt 0.000375 0.999625
vt 0.625000 0.000000
vt 0.875000 0.750000
vt 0.562453 0.999625
vt 0.625000 0.750000
vt 0.562453 0.000375
vt 0.375000 0.750000
vt 0.003898 0.003699
vt 0.017126 0.030155
vt 0.003898 0.996301
vt 0.017126 0.969845
vt 0.375000 0.250000
vt 0.125000 0.500000
vt 0.625000 0.250000
vt 0.875000 0.500000
vt 0.997119 0.003699
vt 0.545702 0.030155
vt 0.997119 0.996301
vt 0.545702 0.969845
vt 0.375000 0.500000
vt 0.625000 0.500000
vt 0.000375 0.000375
vt 0.375000 0.000000
vt 0.125000 0.750000
vt 0.000375 0.999625
vt 0.625000 0.000000
vt 0.875000 0.750000
vt 0.562453 0.999625
vt 0.625000 0.750000
vt 0.562453 0.000375
vt 0.375000 0.750000
vt 0.003898 0.003699
vt 0.017126 0.030155
vt 0.003898 0.996301
vt 0.017126 0.969845
vt 0.375000 0.250000
vt 0.125000 0.500000
vt 0.625000 0.250000
vt 0.875000 0.500000
vt 0.997119 0.003699
vt 0.545702 0.030155
vt 0.997119 0.996301
vt 0.545702 0.969845
vt 0.375000 0.500000
vt 0.625000 0.500000
vt 0.000375 0.000375
vt 0.375000 0.000000
vt 0.125000 0.750000
vt 0.000375 0.999625
vt 0.625000 0.000000
vt 0.875000 0.750000
vt 0.562453 0.999625
vt 0.625000 0.750000
vt 0.562453 0.000375
vt 0.375000 0.750000
vt 0.003898 0.003699
vt 0.017126 0.030155
vt 0.003898 0.996301
vt 0.017126 0.969845
vt 0.375000 0.250000
vt 0.125000 0.500000
vt 0.625000 0.250000
vt 0.875000 0.500000
vt 0.997119 0.003699
vt 0.545702 0.030155
vt 0.997119 0.996301
vt 0.545702 0.969845
vt 0.375000 0.500000
vt 0.625000 0.500000
vt 0.000375 0.000375
vt 0.375000 0.000000
vt 0.125000 0.750000
vt 0.000375 0.999625
vt 0.625000 0.000000
vt 0.875000 0.750000
vt 0.562453 0.999625
vt 0.625000 0.750000
vt 0.562453 0.000375
vt 0.375000 0.750000
vt 0.003898 0.003699
vt 0.017126 0.030155
vt 0.003898 0.996301
vt 0.017126 0.969845
vt 0.375000 0.250000
vt 0.125000 0.500000
vt 0.625000 0.250000
vt 0.875000 0.500000
vt 0.997119 0.003699
vt 0.545702 0.030155
vt 0.997119 0.996301
vt 0.545702 0.969845
vt 0.375000 0.500000
vt 0.625000 0.500000
vt 0.000375 0.000375
vt 0.375000 0.000000
vt 0.125000 0.750000
vt 0.000375 0.999625
vt 0.625000 0.000000
vt 0.875000 0.750000
vt 0.562453 0.999625
vt 0.625000 0.750000
vt 0.562453 0.000375
vt 0.375000 0.750000
vt 0.003898 0.003699
vt 0.017126 0.030155
vt 0.003898 0.996301
vt 0.017126 0.969845
vt 0.375000 0.250000
vt 0.125000 0.500000
vt 0.625000 0.250000
vt 0.875000 0.500000
vt 0.997119 0.003699
vt 0.545702 0.030155
vt 0.997119 0.996301
vt 0.545702 0.969845
vt 0.375000 0.500000
vt 0.625000 0.500000
vt 0.000375 0.000375
vt 0.375000 0.000000
vt 0.125000 0.750000
vt 0.000375 0.999625
vt 0.625000 0.000000
vt 0.875000 0.750000
vt 0.562453 0.999625
vt 0.625000 0.750000
vt 0.562453 0.000375
vt 0.375000 0.750000
vt 0.003898 0.003699
vt 0.017126 0.030155
vt 0.003898 0.996301
vt 0.017126 0.969845
vt 0.125000 0.500000
vt 0.375000 0.250000
vt 0.875000 0.500000
vt 0.625000 0.250000
vt 0.997119 0.003699
vt 0.545702 0.030155
vt 0.997119 0.996301
vt 0.545702 0.969845
vt 0.375000 0.500000
vt 0.625000 0.500000
vt 0.375000 0.000000
vt 0.125000 0.750000
vt 0.000375 0.000375
vt 0.625000 0.000000
vt 0.875000 0.750000
vt 0.000375 0.999625
vt 0.625000 0.750000
vt 0.562453 0.999625
vt 0.375000 0.750000
vt 0.562453 0.000375
vt 0.003898 0.003699
vt 0.017126 0.030155
vt 0.003898 0.996301
vt 0.017126 0.969845
vt 0.125000 0.500000
vt 0.375000 0.250000
vt 0.875000 0.500000
vt 0.625000 0.250000
vt 0.997119 0.003699
vt 0.545702 0.030155
vt 0.997119 0.996301
vt 0.545702 0.969845
vt 0.375000 0.500000
vt 0.625000 0.500000
vt 0.375000 0.000000
vt 0.125000 0.750000
vt 0.000375 0.000375
vt 0.625000 0.000000
vt 0.875000 0.750000
vt 0.000375 0.999625
vt 0.625000 0.750000
vt 0.562453 0.999625
vt 0.375000 0.750000
vt 0.562453 0.000375
s 0
usemtl pic_first
f 191/354/1 192/356/1 196/362/1 195/361/1
f 193/357/2 194/359/2 190/351/2 189/349/2
usemtl pic_ground
f 203/378/1 204/380/1 208/386/1 207/385/1
f 205/381/2 206/383/2 202/375/2 201/373/2
usemtl pic_landing
f 95/161/1 96/163/1 100/170/1 99/169/1
f 109/189/2 110/191/2 106/183/2 105/181/2
usemtl pic_bedroom
f 97/165/2 98/167/2 94/159/2 93/157/2
f 107/185/1 108/187/1 112/194/1 111/193/1
usemtl pic_ext
f 179/329/1 180/331/1 184/338/1 183/337/1
f 181/333/2 182/335/2 178/327/2 177/325/2
usemtl pic_contents
f 119/209/1 120/211/1 124/218/1 123/217/1
f 121/213/2 122/215/2 118/207/2 117/205/2
usemtl pic_conference
f 155/281/1 156/283/1 160/290/1 159/289/1
f 157/285/2 158/287/2 154/279/2 153/277/2
usemtl pic_ex1
f 131/233/1 132/235/1 136/242/1 135/241/1
f 133/237/2 134/239/2 130/231/2 129/229/2
usemtl pic_ex2
f 143/257/1 144/259/1 148/266/1 147/265/1
f 145/261/2 146/263/2 142/255/2 141/253/2
usemtl pic_hillfort
f 167/305/1 168/307/1 172/314/1 171/313/1
f 169/309/2 170/311/2 166/303/2 165/301/2
usemtl fringe_first
f 189/350/13 190/352/13 198/368/13 197/365/13
f 194/360/15 193/358/15 200/372/15 199/370/15
f 193/358/5 189/350/5 197/365/5 200/372/5
f 190/352/10 194/360/10 199/370/10 198/368/10
usemtl fringe_ground
f 201/374/13 202/376/13 210/392/13 209/389/13
f 206/384/15 205/382/15 212/396/15 211/394/15
f 205/382/5 201/374/5 209/389/5 212/396/5
f 202/376/10 206/384/10 211/394/10 210/392/10
usemtl fringe_landing
f 105/182/3 106/184/3 114/198/3 113/195/3
f 110/192/4 109/190/4 116/203/4 115/201/4
f 109/190/5 105/182/5 113/195/5 116/203/5
f 106/184/6 110/192/6 115/201/6 114/198/6
usemtl fringe_bedroom
f 93/158/7 94/160/7 102/174/7 101/171/7
f 98/168/4 97/166/4 104/179/4 103/177/4
f 97/166/8 93/158/8 101/171/8 104/179/8
f 94/160/9 98/168/9 103/177/9 102/174/9
usemtl fringe_ext
f 177/326/7 178/328/7 186/342/7 185/339/7
f 182/336/4 181/334/4 188/347/4 187/345/4
f 181/334/8 177/326/8 185/339/8 188/347/8
f 178/328/10 182/336/10 187/345/10 186/342/10
usemtl fringe_contents
f 117/206/11 118/208/11 126/222/11 125/219/11
f 122/216/4 121/214/4 128/227/4 127/225/4
f 121/214/5 117/206/5 125/219/5 128/227/5
f 118/208/12 122/216/12 127/225/12 126/222/12
usemtl fringe_conference
f 153/278/13 154/280/13 162/294/13 161/291/13
f 158/288/4 157/286/4 164/299/4 163/297/4
f 157/286/14 153/278/14 161/291/14 164/299/14
f 154/280/9 158/288/9 163/297/9 162/294/9
usemtl fringe_ex1
f 129/230/3 130/232/3 138/246/3 137/243/3
f 134/240/15 133/238/15 140/251/15 139/249/15
f 133/238/5 129/230/5 137/243/5 140/251/5
f 130/232/10 134/240/10 139/249/10 138/246/10
usemtl fringe_ex2
f 141/254/3 142/256/3 150/270/3 149/267/3
f 146/264/4 145/262/4 152/275/4 151/273/4
f 145/262/16 141/254/16 149/267/16 152/275/16
f 142/256/10 146/264/10 151/273/10 150/270/10
usemtl fringe_hillfort
f 165/302/17 166/304/17 174/318/17 173/315/17
f 170/312/4 169/310/4 176/323/4 175/321/4
f 169/310/5 165/302/5 173/315/5 176/323/5
f 166/304/9 170/312/9 175/321/9 174/318/9
usemtl base_first
f 197/363/28 198/366/28 192/356/28 191/354/28
f 195/361/29 196/362/29 199/369/29 200/371/29
f 191/353/24 195/361/24 200/371/24 197/364/24
f 196/362/70 192/355/70 198/367/70 199/369/70
usemtl base_ground
f 209/387/28 210/390/28 204/380/28 203/378/28
f 207/385/29 208/386/29 211/393/29 212/395/29
f 203/377/24 207/385/24 212/395/24 209/388/24
f 208/386/70 204/379/70 210/391/70 211/393/70
usemtl base.001
f 101/172/18 102/175/18 96/163/18 95/161/18
f 99/169/19 100/170/19 103/178/19 104/180/19
f 95/162/20 99/169/20 104/180/20 101/173/20
f 100/170/21 96/164/21 102/176/21 103/178/21
usemtl base.002
f 113/196/22 114/199/22 108/187/22 107/185/22
f 111/193/23 112/194/23 115/202/23 116/204/23
f 107/186/24 111/193/24 116/204/24 113/197/24
f 112/194/25 108/188/25 114/200/25 115/202/25
usemtl base.003
f 125/220/26 126/223/26 120/211/26 119/209/26
f 123/217/23 124/218/23 127/226/23 128/228/23
f 119/210/27 123/217/27 128/228/27 125/221/27
f 124/218/21 120/212/21 126/224/21 127/226/21
usemtl base.006
f 137/244/28 138/247/28 132/235/28 131/233/28
f 135/241/29 136/242/29 139/250/29 140/252/29
f 131/234/24 135/241/24 140/252/24 137/245/24
f 136/242/21 132/236/21 138/248/21 139/250/21
usemtl base.007
f 149/268/18 150/271/18 144/259/18 143/257/18
f 147/265/23 148/266/23 151/274/23 152/276/23
f 143/258/27 147/265/27 152/276/27 149/269/27
f 148/266/21 144/260/21 150/272/21 151/274/21
usemtl base.008
f 161/292/28 162/295/28 156/283/28 155/281/28
f 159/289/29 160/290/29 163/298/29 164/300/29
f 155/282/30 159/289/30 164/300/30 161/293/30
f 160/290/21 156/284/21 162/296/21 163/298/21
usemtl base.009
f 173/316/22 174/319/22 168/307/22 167/305/22
f 171/313/31 172/314/31 175/322/31 176/324/31
f 167/306/27 171/313/27 176/324/27 173/317/27
f 172/314/25 168/308/25 174/320/25 175/322/25
usemtl base.010
f 185/340/32 186/343/32 180/331/32 179/329/32
f 183/337/23 184/338/23 187/346/23 188/348/23
f 179/330/24 183/337/24 188/348/24 185/341/24
f 184/338/25 180/332/25 186/344/25 187/346/25
usemtl myBase.001
f 87/146/33 91/153/33 14/29/33 20/38/33
f 8/15/34 7/13/34 6/11/34 5/9/34 2/3/34 1/1/34 9/17/34 10/20/34
usemtl myMetal.001
f 35/59/35 36/61/35 26/45/35 21/39/35 39/64/35 25/44/35
f 31/52/34 50/82/34 67/110/34 57/94/34
f 39/64/36 21/39/36 22/40/36 40/66/36
f 49/80/37 32/55/37 58/95/37 68/112/37
f 49/80/36 50/82/36 35/58/36 36/60/36
f 21/39/38 26/45/38 32/54/38 22/40/38
f 49/80/39 50/82/39 31/52/39 40/65/39 22/41/39 32/55/39
f 25/44/40 39/64/40 40/66/40 31/53/40
f 67/110/39 57/94/39 71/115/39 53/89/39 58/95/39 68/112/39
f 82/131/34 63/103/34 57/94/34 67/110/34
f 71/115/36 72/116/36 54/90/36 53/89/36
f 68/112/37 58/95/37 64/105/37 81/129/37
f 81/130/36 68/111/36 67/109/36 82/132/36
f 26/45/38 21/39/38 54/91/38 64/106/38
f 81/130/35 64/106/35 54/91/35 72/117/35 63/104/35 82/132/35
f 39/64/40 25/44/40 63/104/40 72/117/40
usemtl myHook.001
f 90/152/41 88/148/41 12/25/41 19/37/41
f 5/10/35 14/29/35 91/153/35 90/152/35 19/37/35 2/4/35
f 1/2/36 12/25/36 88/147/36 89/149/36 18/35/36 9/18/36
f 10/21/39 16/33/39 92/154/39 86/142/39 17/34/39 8/16/39
f 86/143/42 85/139/42 4/8/42 17/34/42
f 89/150/43 92/155/43 16/33/43 18/36/43
f 4/8/44 7/14/44 8/16/44 17/34/44
f 7/14/45 4/8/45 85/140/45 87/145/45 20/38/45 6/12/45
f 9/19/46 18/36/46 16/33/46 10/21/46
f 12/25/47 1/2/47 2/4/47 19/37/47
f 14/29/48 5/10/48 6/12/48 20/38/48
f 3/5/37 85/141/37 86/144/37
f 3/5/37 13/26/37 87/146/37 85/141/37
f 11/22/37 15/30/37 89/151/37 88/148/37
f 11/22/37 88/148/37 90/152/37
f 13/27/37 11/23/37 90/152/37 91/153/37
f 13/27/37 91/153/37 87/146/37
f 15/31/37 3/6/37 86/144/37 92/156/37
f 15/31/37 92/156/37 89/151/37
f 33/56/39 41/67/39 42/68/39 23/42/39
f 43/69/45 60/98/45 59/96/45 29/50/45
f 38/63/36 44/72/36 45/73/36 48/78/36
f 47/77/45 46/75/45 43/70/45 29/48/45
f 47/76/34 29/49/34 50/81/34 51/83/34
f 28/47/37 43/71/37 49/79/37 36/61/37
f 30/51/37 24/43/37 34/57/37 37/62/37
f 29/50/34 59/96/34 67/109/34 50/82/34
f 27/46/35 28/47/35 36/61/35 35/59/35
f 34/57/49 24/43/49 46/74/49 52/86/49
f 24/43/50 30/51/50 43/71/50 46/74/50
f 30/51/51 37/62/51 49/79/51 43/71/51
f 37/62/52 34/57/52 52/86/52 49/79/52
f 42/68/53 41/67/53 52/87/53 46/75/53
f 23/42/54 42/68/54 46/75/54 47/77/54
f 33/56/55 23/42/55 47/77/55 51/84/55
f 41/67/56 33/56/56 51/84/56 52/87/56
f 44/72/57 38/63/57 50/82/57 49/80/57
f 38/63/58 48/78/58 51/85/58 50/82/58
f 45/73/59 44/72/59 49/80/59 52/88/59
f 48/78/60 45/73/60 52/88/60 51/85/60
f 65/107/35 55/92/35 74/119/35 73/118/35
f 61/100/45 59/97/45 60/99/45 75/120/45
f 70/114/36 80/128/36 77/123/36 76/122/36
f 79/127/45 61/100/45 75/120/45 78/125/45
f 79/126/34 83/133/34 82/131/34 61/101/34
f 75/121/37 28/47/37 36/61/37 81/129/37
f 62/102/37 69/113/37 66/108/37 56/93/37
f 61/101/34 82/131/34 67/110/34 59/97/34
f 59/97/39 67/110/39 68/112/39 60/99/39
f 66/108/61 84/136/61 78/124/61 56/93/61
f 56/93/62 78/124/62 75/121/62 62/102/62
f 62/102/63 75/121/63 81/129/63 69/113/63
f 69/113/52 81/129/52 84/136/52 66/108/52
f 74/119/64 78/125/64 84/137/64 73/118/64
f 55/92/65 79/127/65 78/125/65 74/119/65
f 65/107/66 83/134/66 79/127/66 55/92/66
f 73/118/67 84/137/67 83/134/67 65/107/67
f 76/122/68 81/130/68 82/132/68 70/114/68
f 70/114/58 82/132/58 83/135/58 80/128/58
f 77/123/59 84/138/59 81/130/59 76/122/59
f 80/128/69 83/135/69 84/138/69 77/123/69
usemtl myPic.001
f 13/28/37 3/7/37 15/32/37 11/24/37
