# Blender 3.3.0
# www.blender.org
mtllib conservatory_model.mtl
o conservatory
v -0.012711 0.007823 0.047573
v 0.001227 0.007823 0.047573
v 0.023908 0.033292 0.036676
v 0.023021 0.007823 0.021091
v -0.025306 0.007823 0.021091
v 0.023908 0.042541 0.046686
v -0.012711 0.007823 0.063665
v -0.012711 0.009597 0.063665
v -0.012711 0.009597 0.062905
v -0.012711 0.009597 0.051881
v -0.012711 0.009597 0.047573
v 0.001227 0.007823 0.063665
v 0.001227 0.009597 0.062778
v 0.001227 0.009597 0.057050
v 0.001227 0.009597 0.051754
v 0.001227 0.009597 0.047573
v 0.001227 0.034686 0.062778
v 0.002494 0.034686 0.062778
v 0.002494 0.009597 0.062778
v 0.001227 0.034686 0.051754
v 0.002494 0.009597 0.051754
v 0.002494 0.034686 0.051754
v -0.012711 0.042541 0.063665
v -0.012711 0.035066 0.062905
v -0.012711 0.035066 0.051881
v -0.012711 0.030251 0.047573
v 0.023908 0.042541 0.047573
v -0.012711 0.036713 0.047573
v -0.012711 0.036713 0.050994
v -0.012711 0.042541 0.047573
v 0.001227 0.036713 0.047573
v 0.001227 0.036713 0.050994
v 0.001227 0.042541 0.050994
v -0.012711 0.042541 0.050994
v 0.001227 0.042541 0.047573
v 0.023021 0.007823 0.047573
v -0.025306 0.024929 0.047573
v 0.023021 0.042541 0.047573
v -0.024495 0.009597 0.051247
v -0.013978 0.009597 0.051247
v -0.013978 0.042541 0.051247
v -0.024495 0.042541 0.051247
v -0.013978 0.035066 0.051881
v -0.013978 0.035066 0.062905
v -0.013978 0.009597 0.051881
v -0.013978 0.009597 0.062905
v -0.024495 0.009597 0.071521
v -0.013978 0.009597 0.071521
v -0.024495 0.042541 0.071521
v 0.001227 0.009597 0.063665
v 0.001227 0.042541 0.063665
v -0.025306 0.007823 0.047573
v -0.013978 0.042541 0.071521
v 0.023908 0.007823 0.047573
v 0.023908 0.007823 0.046686
v 0.023021 0.007823 0.046686
v 0.023021 0.034179 0.046686
v 0.023908 0.034179 0.046686
v 0.023908 0.033292 0.046686
v 0.023021 0.033292 0.046686
v 0.023908 0.007823 0.036676
v 0.023908 0.007823 0.035789
v 0.023021 0.007823 0.036676
v 0.023908 0.033292 0.035789
v 0.023021 0.033292 0.035789
v 0.023021 0.033292 0.036676
v 0.023021 0.024929 0.035789
v 0.023021 0.007823 0.035789
v 0.023908 0.007823 0.023372
v 0.023908 0.024929 0.035789
v 0.023908 0.024929 0.021091
v 0.023908 0.024929 0.020585
v 0.023021 0.025436 0.035789
v 0.023908 0.025436 0.035789
v 0.023527 0.024929 0.035789
v 0.024414 0.024929 0.035789
v 0.024414 0.024929 0.020585
v 0.023527 0.024929 0.020585
v 0.023908 0.024929 0.036042
v 0.024414 0.024929 0.036042
v 0.024414 0.025436 0.036042
v 0.023908 0.025436 0.036042
v 0.023908 0.007823 0.021091
v 0.023021 0.024929 0.020585
v 0.023021 0.024929 0.021091
v -0.025306 0.024929 0.020585
v -0.025306 0.024929 0.021091
v 0.023908 0.033292 0.021092
v 0.023908 0.041654 0.046686
v 0.023908 0.025436 0.020585
v 0.023021 0.033292 0.021598
v 0.023021 0.025436 0.021598
v 0.023021 0.025436 0.020585
v 0.023021 0.025436 0.021092
v 0.023908 0.025436 0.021092
v 0.023908 0.034179 0.023192
v 0.023021 0.033292 0.021092
v 0.023021 0.034179 0.021092
v 0.023908 0.034179 0.021092
v 0.023908 0.025436 0.021598
v 0.023908 0.033292 0.021598
v 0.023021 0.042541 0.046686
v 0.023021 0.041654 0.046686
v 0.023021 0.034179 0.023192
v -0.025306 0.042541 0.047573
v -0.025939 0.024929 0.020585
v -0.025939 0.025436 0.020585
v -0.025939 0.024929 0.021091
v -0.025306 0.025436 0.049247
v -0.025306 0.024929 0.049247
v -0.025939 0.033292 0.021092
v -0.025939 0.024929 0.049247
v -0.025306 0.025436 0.047573
v 0.023908 0.024676 0.021091
v 0.023908 0.024929 0.020785
v 0.023908 0.024676 0.020785
v -0.025516 0.024929 0.020585
v -0.025650 0.024929 0.020585
v -0.025306 0.024929 0.020785
v 0.023021 0.024929 0.020785
v 0.023327 0.024929 0.020785
v 0.023527 0.024929 0.020785
v 0.023678 0.024929 0.020785
v -0.025650 0.024929 0.049247
v -0.025650 0.024676 0.049247
v -0.025650 0.024676 0.020787
v -0.025650 0.024929 0.020787
v -0.025650 0.024929 0.021091
v 0.023021 0.034179 0.021598
v 0.024414 0.025436 0.020585
v -0.025306 0.034179 0.046686
v -0.025939 0.034179 0.046686
v -0.025234 0.034179 0.021092
v -0.025306 0.025436 0.046686
v -0.025939 0.042541 0.047573
v -0.025939 0.025436 0.047573
v -0.025939 0.025436 0.046686
v -0.025939 0.042541 0.046686
v -0.025306 0.042541 0.046686
v -0.025939 0.042541 0.049247
v -0.025939 0.025436 0.049247
v -0.025939 0.034179 0.021092
v -0.025939 0.033292 0.046686
v -0.025306 0.033292 0.046686
v -0.025306 0.034179 0.021598
v -0.025939 0.034179 0.021598
v -0.025939 0.033292 0.021598
v -0.025306 0.033292 0.021598
v -0.025306 0.033292 0.021092
v -0.025939 0.034179 0.023182
v -0.025306 0.034179 0.023182
v -0.025939 0.041908 0.046686
v -0.025306 0.041908 0.046686
v -0.025939 0.025436 0.021598
v -0.025306 0.025436 0.021598
v -0.025306 0.025436 0.021092
v -0.025939 0.025436 0.021092
vn -0.5000 0.7071 0.5000
vn -1.0000 -0.0000 -0.0000
vn -0.0000 -0.0000 1.0000
vn -0.0000 1.0000 -0.0000
vn -0.7182 0.6123 0.3305
vn -0.9633 0.2683 -0.0000
vn -0.0000 -0.0000 -1.0000
vn -0.0000 0.7071 -0.7071
vn -0.0000 -1.0000 -0.0000
vn 1.0000 -0.0000 -0.0000
vn 0.4472 -0.0000 -0.8944
vn 0.7071 -0.0000 -0.7071
vn 0.5774 0.5774 -0.5774
vn 0.7071 0.7071 -0.0000
vn -0.5980 -0.6934 -0.4020
vn -0.0000 -0.0016 1.0000
vn -0.0000 0.9505 -0.3106
vn -0.0000 -0.9529 0.3032
vn -0.0000 -0.0071 -1.0000
vn 0.1660 -0.9861 -0.0000
vn -0.4492 -0.8935 -0.0000
vn 0.9938 -0.0000 0.1109
vn 0.5930 -0.8052 -0.0000
vn 0.7879 0.5885 -0.1813
vn -0.0000 -0.9500 0.3124
vn -0.1661 0.9861 -0.0000
vn -0.1752 0.9845 -0.0000
vn -0.1577 0.9875 -0.0000
vn -0.1660 0.9861 -0.0000
vn -0.0000 0.5930 -0.8052
vn -0.1109 0.9938 -0.0000
vt 0.000000 0.000000
vt 0.000000 0.000000
vt 0.000000 0.000000
vt 0.000000 0.000000
vt 0.000000 0.000000
vt 0.000000 0.000000
vt 0.000000 0.000000
vt 0.000000 0.000000
vt 0.000000 0.000000
vt 0.000000 0.000000
vt 0.000000 0.000000
vt 0.000000 0.000000
vt 0.000000 0.000000
vt 0.000000 0.000000
vt 0.000000 0.000000
vt 0.000000 0.000000
vt 0.000000 0.000000
vt 0.000000 0.000000
vt 0.000000 0.000000
vt 0.000000 0.000000
vt 0.000000 0.000000
vt 0.000000 0.000000
vt 0.000000 0.000000
vt 0.000000 0.000000
vt 0.000000 0.000000
vt 0.000000 0.000000
vt 0.000000 0.000000
vt 0.000000 0.000000
vt 0.000000 0.000000
vt 0.000000 0.000000
vt 0.000000 0.000000
vt 0.000000 0.000000
vt 0.000000 0.000000
vt 0.000000 0.000000
vt 0.000000 0.000000
vt 0.000000 0.000000
vt 0.000000 0.000000
vt 0.000000 0.000000
vt 0.000000 0.000000
vt 0.000000 0.000000
vt 0.000000 0.000000
vt 0.000000 0.000000
vt 0.000000 0.000000
vt 0.000000 0.000000
vt 0.000000 0.000000
vt 0.000000 0.000000
vt 0.000000 0.000000
vt 0.000000 0.000000
vt 0.000000 0.000000
vt 0.000000 0.000000
vt 0.000000 0.000000
vt 0.000000 0.000000
vt 0.000000 0.000000
vt 0.000000 0.000000
vt 0.000000 0.000000
vt 0.000000 0.000000
vt 0.000000 0.000000
vt 0.000000 0.000000
vt 0.000000 0.000000
vt 0.000000 0.000000
vt 0.000000 0.000000
vt 0.000000 0.000000
vt 0.000000 0.000000
vt 0.000000 0.000000
vt 0.000000 0.000000
vt 0.000000 0.000000
vt 0.000000 0.000000
vt 0.000000 0.000000
vt 0.000000 0.000000
vt 0.000000 0.000000
vt 0.000000 0.000000
vt 0.000000 0.000000
vt 0.000000 0.000000
vt 0.000000 0.000000
vt 0.000000 0.000000
vt 0.000000 0.000000
vt 0.000000 0.000000
vt 0.000000 0.000000
vt 0.000000 0.000000
vt 0.000000 0.000000
vt 0.000000 0.000000
vt 0.000000 0.000000
vt 0.000000 0.000000
vt 0.000000 0.000000
vt 0.000000 0.000000
vt 0.000000 0.000000
vt 0.000000 0.000000
vt 0.000000 0.000000
vt 0.000000 0.000000
vt 0.000000 0.000000
vt 0.000000 0.000000
vt 0.000000 0.000000
vt 0.000000 0.000000
vt 0.000000 0.000000
vt 0.000000 0.000000
vt 0.000000 0.000000
vt 0.000000 0.000000
vt 0.000000 0.000000
vt 0.000000 0.000000
vt 0.000000 0.000000
vt 0.000000 0.000000
vt 0.000000 0.000000
vt 0.000000 0.000000
vt 0.000000 0.000000
vt 0.000000 0.000000
vt 0.000000 0.000000
vt 0.000000 0.000000
vt 0.000000 0.000000
vt 0.000000 0.000000
vt 0.000000 0.000000
vt 0.000000 0.000000
vt 0.000000 0.000000
vt 0.000000 0.000000
vt 0.000000 0.000000
vt 0.000000 0.000000
vt 0.000000 0.000000
vt 0.000000 0.000000
vt 0.000000 0.000000
vt 0.000000 0.000000
vt 0.000000 0.000000
vt 0.000000 0.000000
vt 0.000000 0.000000
vt 0.000000 0.000000
vt 0.000000 0.000000
vt 0.000000 0.000000
vt 0.000000 0.000000
vt 0.000000 0.000000
vt 0.000000 0.000000
vt 0.000000 0.000000
vt 0.000000 0.000000
vt 0.000000 0.000000
vt 0.000000 0.000000
vt 0.000000 0.000000
vt 0.000000 0.000000
vt 0.000000 0.000000
vt 0.000000 0.000000
vt 0.000000 0.000000
vt 0.000000 0.000000
vt 0.000000 0.000000
vt 0.000000 0.000000
vt 0.000000 0.000000
vt 0.000000 0.000000
vt 0.000000 0.000000
vt 0.000000 0.000000
vt 0.000000 0.000000
vt 0.000000 0.000000
vt 0.000000 0.000000
vt 0.000000 0.000000
vt 0.000000 0.000000
vt 0.000000 0.000000
vt 0.000000 0.000000
vt 0.000000 0.000000
vt 0.000000 0.000000
vt 0.000000 0.000000
vt 0.000000 0.000000
vt 0.000000 0.000000
s 1
usemtl strut.006
f 7/7/1 8/8/1 9/9/2 10/10/2 11/11/2 1/1/2
f 7/7/1 12/12/3 50/50/3 8/8/1
f 8/8/4 50/50/5 13/13/6 14/14/4 15/15/4 16/16/4 11/11/4 10/10/4 9/9/4
f 16/16/7 2/2/8 1/1/8 11/11/7
f 17/17/7 18/18/7 19/19/7 13/13/7
f 20/20/3 15/15/3 21/21/3 22/22/3
f 22/22/9 18/18/9 17/17/9 20/20/9
f 15/15/4 14/14/4 13/13/4 19/19/4 21/21/4
f 23/23/10 8/8/10 9/9/10 24/24/10 25/25/10 10/10/10 11/11/11 26/26/12 28/28/11 29/29/10 34/34/10
f 34/34/2 30/30/2 28/28/2 29/29/2
f 29/29/9 28/28/9 31/31/9 32/32/9
f 29/29/3 32/32/3 33/33/3 34/34/3
f 32/32/10 31/31/10 35/35/10 33/33/10
f 38/38/7 36/36/8 2/2/8 16/16/7 31/31/7 35/35/7
f 52/52/13 37/37/7 113/112/7 105/104/7 30/30/7 28/28/11 26/26/12 11/11/11 1/1/8
f 87/86/10 37/37/10 52/52/13 5/5/14
f 4/4/3 85/84/3 87/86/3 5/5/3
f 39/39/3 40/40/3 41/41/3 42/42/3
f 43/43/9 25/25/9 24/24/9 44/44/9
f 45/45/3 10/10/3 25/25/3 43/43/3
f 9/9/7 46/46/7 44/44/7 24/24/7
f 40/40/4 39/39/4 47/47/4 48/48/4 46/46/4 45/45/4
f 45/45/2 43/43/2 44/44/2 46/46/2 48/48/2 53/53/2 41/41/2 40/40/2
f 53/53/7 48/48/7 47/47/7 49/49/7
f 47/47/10 39/39/10 42/42/10 49/49/10
f 45/45/4 46/46/4 9/9/4 10/10/4
f 33/33/2 32/32/2 31/31/2 16/16/2 15/15/2 20/20/2 17/17/2 13/13/6 50/50/5 51/51/15
s 0
f 67/67/2 85/84/2 4/4/2 68/68/2
f 85/84/4 67/67/4 75/74/4 122/121/4 78/77/4 121/120/4
f 77/76/4 72/71/4 115/114/4 71/70/4
s 1
f 5/5/14 52/52/13 1/1/8 2/2/8 36/36/8 4/4/4
s 0
f 131/130/4 151/150/4 150/149/4 132/131/4
f 143/142/9 147/146/9 148/147/9 144/143/9
f 151/150/9 150/149/9 146/145/9 145/144/9
f 148/147/3 147/146/3 154/153/3 155/154/3
f 152/151/7 153/152/7 131/130/7 132/131/7
s 1
usemtl Material.009
f 30/30/7 35/35/7 31/31/7 28/28/7
f 8/8/7 23/23/7 51/51/15 50/50/5
s 0
usemtl green
f 36/36/9 56/56/9 55/55/9 54/54/9
f 38/38/4 27/27/4 6/6/4 102/101/4
f 55/55/7 56/56/7 60/60/7 59/59/7
f 36/36/3 54/54/3 27/27/3 38/38/3
f 56/56/2 36/36/2 38/38/2 102/101/2 103/102/2 57/57/2 60/60/2
f 54/54/10 55/55/10 59/59/10 58/58/10 89/88/10 6/6/10 27/27/10
f 58/58/7 57/57/7 103/102/7 89/88/7
f 61/61/4 62/62/4 68/68/4 63/63/4
f 3/3/4 64/64/4 65/65/4 66/66/4
f 63/63/2 66/66/2 65/65/2 73/72/2 67/67/2 68/68/2
f 61/61/3 3/3/3 66/66/3 63/63/3
f 68/68/3 62/62/3 70/69/3 75/74/3 67/67/3
f 67/67/3 75/74/3 70/69/3 74/73/3 73/72/3
f 67/67/2 73/72/2 92/91/2 94/93/2 93/92/2 84/83/2 120/119/2 85/84/2
f 70/69/4 76/75/9 77/76/9 71/70/9
f 73/72/7 65/65/7 64/64/7 74/73/7
f 78/77/4 123/122/4 115/114/4 72/71/4
f 71/70/4 123/122/4 78/77/4 122/121/4 75/74/4 70/69/4
f 79/78/9 70/69/9 76/75/9 80/79/9
f 79/78/3 80/79/3 81/80/3 82/81/3
f 70/69/10 74/73/10 82/81/10 79/78/10
f 84/83/10 93/92/10 94/93/10 85/84/10 120/119/10
f 85/84/16 94/93/16 156/155/16 87/86/16
f 108/107/2 112/111/2 141/140/2 136/135/2 137/136/2 154/153/2 157/156/2 107/106/2 106/105/2
f 84/83/9 120/119/9 119/118/9 86/85/9
f 100/99/3 101/100/3 91/90/3 92/91/3
f 59/59/9 60/60/9 66/66/9 3/3/9
f 101/100/9 91/90/9 97/96/9 88/87/9
f 58/58/4 96/95/4 104/103/4 57/57/4
f 64/64/9 65/65/9 91/90/9 101/100/9
f 95/94/3 88/87/3 97/96/3 94/93/3
f 94/93/9 95/94/9 100/99/9 92/91/9
f 88/87/7 97/96/7 98/97/7 99/98/7
f 97/96/2 94/93/2 92/91/2 91/90/2
f 57/57/2 104/103/2 129/128/2 91/90/2 60/60/2
f 58/58/10 59/59/10 3/3/10 64/64/10 101/100/10 88/87/10 99/98/10 96/95/10
f 95/94/10 88/87/10 101/100/10 100/99/10
f 99/98/10 6/6/10 89/88/10 96/95/10
f 6/6/17 99/98/17 98/97/17 102/101/17
f 104/103/4 96/95/4 99/98/4 98/97/4 129/128/4
f 104/103/2 103/102/2 102/101/2 98/97/2 129/128/2
f 89/88/7 103/102/7 102/101/7 6/6/7
f 103/102/18 104/103/18 96/95/18 89/88/18
f 86/85/9 119/118/9 117/116/9
f 108/107/9 128/127/9 124/123/9 112/111/9
f 110/109/3 109/108/3 141/140/3 112/111/3 124/123/3
f 87/86/10 156/155/10 155/154/10 134/133/10 113/112/10 37/37/10
f 37/37/10 113/112/10 109/108/10 110/109/10
f 84/83/3 78/77/3 72/71/3 77/76/3 130/129/3 90/89/3 93/92/3
f 76/75/20 77/76/21 130/129/22 81/80/23 80/79/21
f 115/114/4 123/122/4 71/70/4
f 119/118/9 120/119/9 85/84/9 87/86/9
f 118/117/9 127/126/9 128/127/9 108/107/9 106/105/9
f 124/123/9 128/127/9 87/86/9 37/37/9 110/109/9
f 117/116/9 119/118/9 87/86/9 128/127/9 127/126/9 118/117/9
f 67/67/4 76/75/4 72/71/4 84/83/4
f 86/85/7 117/116/7 118/117/7 106/105/7 107/106/7 93/92/7 84/83/7
f 97/96/7 149/148/7 111/110/7 142/141/7 133/132/7 98/97/7
f 129/128/4 98/97/4 133/132/4 142/141/4 146/145/4 145/144/4
f 129/128/3 145/144/3 148/147/3 91/90/3
f 148/147/3 145/144/3 146/145/3 147/146/3
f 113/112/10 134/133/10 144/143/10 131/130/10 153/152/10 139/138/10 105/104/10
f 105/104/3 135/134/3 136/135/3 113/112/3
f 135/134/2 138/137/2 152/151/2 132/131/2 143/142/2 137/136/2 136/135/2
f 134/133/7 137/136/7 143/142/7 144/143/7
f 140/139/2 135/134/2 136/135/2 141/140/2
f 142/141/2 111/110/2 147/146/2 146/145/2
f 144/143/10 148/147/10 145/144/10 151/150/10 131/130/10
f 132/131/2 150/149/2 146/145/2 147/146/2 143/142/2
f 133/132/17 142/141/17 138/137/17 139/138/17
f 91/90/9 148/147/9 149/148/9 97/96/9
f 138/137/2 142/141/2 146/145/2 150/149/2 152/151/2
f 135/134/24 153/152/24 151/150/24 145/144/24
f 150/149/25 151/150/25 153/152/25 152/151/25
f 156/155/9 155/154/9 154/153/9 157/156/9
f 147/146/2 111/110/2 157/156/2 154/153/2
f 149/148/10 148/147/10 155/154/10 156/155/10
f 111/110/7 149/148/7 156/155/7 157/156/7
f 155/154/4 154/153/4 137/136/4 136/135/4 141/140/4 109/108/4 113/112/4 134/133/4
f 93/92/26 107/106/4 157/156/4 156/155/27 94/93/28 92/91/26 73/72/27 74/73/29 82/81/27 81/80/30 130/129/31 90/89/26
usemtl brick
f 71/70/10 114/113/10 116/115/10 115/114/10
f 83/82/10 114/113/10 71/70/10 70/69/10 62/62/10
f 115/114/19 116/115/19 126/125/19 127/126/19 117/116/19 119/118/19 120/119/19 121/120/19 122/121/19 123/122/19
f 127/126/2 126/125/2 125/124/2 124/123/2 128/127/2
l 137 105
l 2 12
l 62 69
