# Blender 3.3.0
# www.blender.org
mtllib clip_settings.mtl
o clip_main
v 0.107556 -0.000611 0.256248
v 0.107856 -0.000611 0.255948
v -0.105101 0.004609 -0.049060
v -0.106230 0.004309 -0.050489
v 0.107856 -0.000611 -0.050189
v 0.107556 -0.000611 -0.050489
v -0.106230 -0.000611 -0.050489
v -0.106530 -0.000611 -0.050189
v -0.106230 -0.000611 0.256248
v -0.106530 -0.000611 0.255948
v 0.106427 0.004609 0.254819
v 0.107556 0.004309 0.256248
v 0.106427 0.004609 -0.049060
v 0.107856 0.004309 -0.050189
v -0.105101 0.004609 0.254819
v -0.106530 0.004309 0.255948
v -0.106530 0.004309 -0.050189
v -0.106230 0.004309 0.256248
v 0.107856 0.004309 0.255948
v 0.107556 0.004309 -0.050489
v 0.007439 0.004405 -0.054656
v -0.018309 0.004405 -0.054656
v -0.028499 -0.005936 -0.071519
v -0.028025 0.008845 -0.071578
v 0.007439 -0.007032 -0.024039
v 0.007439 0.009826 -0.024039
v 0.007439 -0.007032 -0.072614
v 0.007439 0.009826 -0.072614
v -0.018309 -0.007032 -0.072614
v -0.019345 0.008845 -0.071578
v -0.018309 -0.007032 -0.024039
v -0.018309 0.009826 -0.024039
v -0.028499 -0.005936 -0.057225
v -0.028025 0.008845 -0.057165
v 0.007439 -0.007032 -0.056129
v 0.007439 0.009826 -0.056129
v -0.019345 0.008845 -0.057165
v -0.019313 -0.006028 -0.056756
v 0.007439 -0.000220 -0.054656
v -0.018309 -0.000220 -0.054656
v -0.028499 0.008730 -0.057225
v -0.028499 0.008730 -0.071519
v -0.018309 0.009826 -0.072614
v -0.019313 0.008822 -0.056756
v -0.028056 0.008822 -0.056756
v -0.029061 0.009826 -0.072614
v -0.029061 -0.007032 -0.072614
v -0.028056 -0.006028 -0.056756
v -0.018309 0.009826 -0.056129
v -0.018309 -0.007032 -0.056129
v -0.029061 -0.007032 -0.056129
v -0.029061 0.009826 -0.056129
v -0.007439 0.004405 -0.054656
v 0.018309 0.004405 -0.054656
v 0.028499 -0.005936 -0.071519
v 0.028025 0.008845 -0.071578
v -0.007439 -0.007032 -0.024039
v -0.007439 0.009826 -0.024039
v -0.007439 -0.007032 -0.072614
v -0.007439 0.009826 -0.072614
v 0.018309 -0.007032 -0.072614
v 0.019345 0.008845 -0.071578
v 0.018309 -0.007032 -0.024039
v 0.018309 0.009826 -0.024039
v 0.028499 -0.005936 -0.057225
v 0.028025 0.008845 -0.057165
v -0.007439 -0.007032 -0.056129
v -0.007439 0.009826 -0.056129
v 0.019345 0.008845 -0.057165
v 0.019313 -0.006028 -0.056756
v -0.007439 -0.000220 -0.054656
v 0.018309 -0.000220 -0.054656
v 0.028499 0.008730 -0.057225
v 0.028499 0.008730 -0.071519
v 0.018309 0.009826 -0.072614
v 0.019313 0.008822 -0.056756
v 0.028056 0.008822 -0.056756
v 0.029061 0.009826 -0.072614
v 0.029061 -0.007032 -0.072614
v 0.028056 -0.006028 -0.056756
v 0.018309 0.009826 -0.056129
v 0.018309 -0.007032 -0.056129
v 0.029061 -0.007032 -0.056129
v 0.029061 0.009826 -0.056129
v -0.105806 0.004609 -0.050489
v -0.106530 0.004609 -0.049765
v 0.107132 0.004609 -0.050489
v 0.107132 0.004609 0.256248
v -0.105806 0.004609 0.256248
v 0.107856 0.004609 0.255523
v 0.107856 0.004609 -0.049765
v -0.106530 0.004609 0.255523
vn 0.5002 0.7069 -0.5002
vn 0.5001 0.7073 0.4996
vn 1.0000 -0.0000 -0.0000
vn -0.0000 -1.0000 -0.0000
vn -0.0000 -0.0000 1.0000
vn -1.0000 -0.0000 -0.0000
vn -0.5002 0.7069 -0.5002
vn -0.5001 0.7073 0.4996
vn -0.7071 -0.0000 -0.7071
vn -0.0000 -0.0000 -1.0000
vn -0.7071 -0.0000 0.7071
vn 0.7071 -0.0000 0.7071
vn 0.7071 -0.0000 -0.7071
vn -0.0000 1.0000 -0.0000
vn -0.0000 -0.9847 0.1743
vn -0.0000 0.9761 0.2172
vn 0.6872 0.7265 -0.0000
vn -0.0000 0.7265 0.6872
vn -0.6876 0.7261 -0.0000
vn -0.0000 0.7264 -0.6872
vn -0.8898 -0.4563 -0.0000
vn -0.8897 -0.0000 0.4566
vn -0.8898 0.4563 -0.0000
vn -0.8898 -0.0000 -0.4563
vn -0.5297 -0.0000 0.8482
vn -0.0000 0.5297 0.8482
vn -0.0000 -0.5297 0.8482
vn 0.5293 -0.0000 0.8484
vn -0.6872 0.7265 -0.0000
vn -0.0000 0.7266 0.6870
vn 0.6876 0.7261 -0.0000
vn -0.0000 0.7265 -0.6872
vn 0.8898 -0.4563 -0.0000
vn 0.8897 -0.0000 0.4566
vn 0.8901 0.4559 -0.0000
vn 0.8898 -0.0000 -0.4563
vn 0.5297 -0.0000 0.8482
vn -0.5293 -0.0000 0.8484
vt 0.374650 0.750000
vt 0.375000 0.750350
vt 0.375000 0.749756
vt 0.873427 0.501230
vt 0.873240 0.501099
vt 0.003595 1.000308
vt 0.610633 0.250350
vt 0.375000 0.500244
vt 0.374650 0.500000
vt 0.375000 0.499650
vt 0.125350 0.500000
vt 0.375000 0.250350
vt 0.125000 0.500244
vt 0.375000 0.249755
vt 0.125350 0.750000
vt 0.375000 0.999650
vt 0.375000 0.000000
vt 0.125000 0.749756
vt 0.375000 0.000245
vt 0.626574 0.748771
vt 0.626760 0.748901
vt 0.995836 0.000308
vt 0.610633 0.750350
vt 0.626573 0.501230
vt 0.626760 0.501099
vt 0.995838 1.000308
vt 0.610633 0.500244
vt 0.873426 0.748771
vt 0.873240 0.748901
vt 0.003597 0.000308
vt 0.610633 0.000245
vt 0.610633 0.249755
vt 0.610633 0.999650
vt 0.610633 0.000000
vt 0.610633 0.749756
vt 0.610633 0.499650
vt 0.500000 0.750000
vt 0.500000 0.875000
vt 0.000000 0.000000
vt 0.391246 0.241693
vt 0.862956 0.507855
vt 0.375000 0.750000
vt 0.625000 0.750000
vt 0.375000 0.500000
vt 0.625000 0.500000
vt 0.375000 0.375000
vt 0.250000 0.500000
vt 0.762044 0.507855
vt 0.250000 0.750000
vt 0.000000 0.000000
vt 0.375000 0.875000
vt 0.750000 0.750000
vt 0.625000 0.875000
vt 0.000000 0.000000
vt 0.391246 0.133307
vt 0.862956 0.617145
vt 0.000000 0.000000
vt 0.375000 0.625000
vt 0.000000 0.000000
vt 0.625000 0.625000
vt 0.762044 0.617145
vt 0.000000 0.000000
vt 0.437500 0.750000
vt 0.000000 0.000000
vt 0.437500 0.875000
vt 0.608754 0.133307
vt 0.608754 0.241693
vt 0.625000 0.375000
vt 0.750000 0.500000
vt 0.000000 0.000000
vt 0.000000 0.000000
vt 0.875000 0.500000
vt 0.625000 0.250000
vt 0.125000 0.500000
vt 0.375000 0.250000
vt 0.000000 0.000000
vt 0.750000 0.625000
vt 0.000000 0.000000
vt 0.250000 0.625000
vt 0.000000 0.000000
vt 0.125000 0.625000
vt 0.375000 0.125000
vt 0.000000 0.000000
vt 0.875000 0.625000
vt 0.625000 0.125000
vt 0.000000 0.000000
vt 0.500000 0.750000
vt 0.500000 0.875000
vt 0.000000 0.000000
vt 0.391246 0.241693
vt 0.862956 0.507855
vt 0.375000 0.750000
vt 0.625000 0.750000
vt 0.375000 0.500000
vt 0.625000 0.500000
vt 0.375000 0.375000
vt 0.250000 0.500000
vt 0.762044 0.507855
vt 0.250000 0.750000
vt 0.000000 0.000000
vt 0.375000 0.875000
vt 0.750000 0.750000
vt 0.625000 0.875000
vt 0.000000 0.000000
vt 0.391246 0.133307
vt 0.862956 0.617145
vt 0.000000 0.000000
vt 0.375000 0.625000
vt 0.000000 0.000000
vt 0.625000 0.625000
vt 0.762044 0.617145
vt 0.000000 0.000000
vt 0.437500 0.750000
vt 0.000000 0.000000
vt 0.437500 0.875000
vt 0.608754 0.133307
vt 0.608754 0.241693
vt 0.625000 0.375000
vt 0.750000 0.500000
vt 0.000000 0.000000
vt 0.000000 0.000000
vt 0.875000 0.500000
vt 0.625000 0.250000
vt 0.125000 0.500000
vt 0.375000 0.250000
vt 0.000000 0.000000
vt 0.750000 0.625000
vt 0.000000 0.000000
vt 0.250000 0.625000
vt 0.000000 0.000000
vt 0.125000 0.625000
vt 0.375000 0.125000
vt 0.000000 0.000000
vt 0.875000 0.625000
vt 0.625000 0.125000
vt 0.000000 0.000000
vt 0.625000 0.250350
vt 0.625000 0.250845
vt 0.874155 0.500000
vt 0.625000 0.249410
vt 0.625000 0.249755
vt 0.875000 0.500590
vt 0.625000 0.499155
vt 0.625845 0.500000
vt 0.625000 0.750845
vt 0.625845 0.750000
vt 0.625000 0.999155
vt 0.625000 0.000000
vt 0.874155 0.750000
vt 0.625000 0.749410
vt 0.625000 0.500590
vt 0.625000 0.000590
vt 0.625000 0.000245
vt 0.875000 0.749410
s 0
usemtl myBase
f 87/144/1 91/151/1 14/27/1 20/36/1
f 90/150/2 88/146/2 12/23/2 19/35/2
f 5/8/3 14/27/3 91/151/3 90/150/3 19/35/3 2/3/3
f 8/13/4 7/11/4 6/9/4 5/8/4 2/3/4 1/1/4 9/15/4 10/18/4
f 1/2/5 12/23/5 88/145/5 89/147/5 18/33/5 9/16/5
f 10/19/6 16/31/6 92/152/6 86/140/6 17/32/6 8/14/6
f 86/141/7 85/137/7 4/7/7 17/32/7
f 89/148/8 92/153/8 16/31/8 18/34/8
f 4/7/9 7/12/9 8/14/9 17/32/9
f 7/12/10 4/7/10 85/138/10 87/143/10 20/36/10 6/10/10
f 9/17/11 18/34/11 16/31/11 10/19/11
f 12/23/12 1/2/12 2/3/12 19/35/12
f 14/27/13 5/8/13 6/10/13 20/36/13
f 3/4/14 85/139/14 86/142/14
f 3/4/14 13/24/14 87/144/14 85/139/14
f 11/20/14 15/28/14 89/149/14 88/146/14
f 11/20/14 88/146/14 90/150/14
f 13/25/14 11/21/14 90/150/14 91/151/14
f 13/25/14 91/151/14 87/144/14
f 15/29/14 3/5/14 86/142/14 92/154/14
f 15/29/14 92/154/14 89/149/14
usemtl myMetal
f 35/58/3 36/60/3 26/43/3 21/37/3 39/63/3 25/42/3
f 50/79/4 35/58/4 25/42/4 31/49/4
f 39/63/5 21/37/5 22/38/5 40/65/5
f 36/60/14 49/77/14 32/52/14 26/43/14
f 49/78/5 50/80/5 35/57/5 36/59/5
f 21/37/15 26/43/15 32/53/15 22/38/15
f 49/78/6 50/80/6 31/50/6 40/64/6 22/39/6 32/54/6
f 25/42/16 39/63/16 40/65/16 31/51/16
f 67/108/6 57/92/6 71/113/6 53/87/6 58/93/6 68/110/6
f 82/129/4 63/99/4 57/92/4 67/108/4
f 71/113/5 72/115/5 54/88/5 53/87/5
f 68/110/14 58/93/14 64/102/14 81/127/14
f 81/128/5 68/109/5 67/107/5 82/130/5
f 53/87/15 54/88/15 64/103/15 58/93/15
f 81/128/3 64/104/3 54/89/3 72/114/3 63/100/3 82/130/3
f 57/92/16 63/101/16 72/115/16 71/113/16
usemtl myHook
f 33/55/6 41/66/6 42/67/6 23/40/6
f 29/46/10 43/68/10 28/45/10 27/44/10
f 38/62/5 44/70/5 45/71/5 48/76/5
f 47/75/10 46/73/10 43/68/10 29/46/10
f 47/74/4 29/47/4 50/79/4 51/81/4
f 28/45/14 43/69/14 49/77/14 36/60/14
f 30/48/14 24/41/14 34/56/14 37/61/14
f 29/47/4 27/44/4 35/58/4 50/79/4
f 27/44/3 28/45/3 36/60/3 35/58/3
f 34/56/17 24/41/17 46/72/17 52/84/17
f 24/41/18 30/48/18 43/69/18 46/72/18
f 30/48/19 37/61/19 49/77/19 43/69/19
f 37/61/20 34/56/20 52/84/20 49/77/20
f 42/67/21 41/66/21 52/85/21 46/73/21
f 23/40/22 42/67/22 46/73/22 47/75/22
f 33/55/23 23/40/23 47/75/23 51/82/23
f 41/66/24 33/55/24 51/82/24 52/85/24
f 44/70/25 38/62/25 50/80/25 49/78/25
f 38/62/26 48/76/26 51/83/26 50/80/26
f 45/71/27 44/70/27 49/78/27 52/86/27
f 48/76/28 45/71/28 52/86/28 51/83/28
f 65/105/3 55/90/3 74/117/3 73/116/3
f 61/96/10 59/94/10 60/95/10 75/118/10
f 70/112/5 80/126/5 77/121/5 76/120/5
f 79/125/10 61/96/10 75/118/10 78/123/10
f 79/124/4 83/131/4 82/129/4 61/97/4
f 60/95/14 68/110/14 81/127/14 75/119/14
f 62/98/14 69/111/14 66/106/14 56/91/14
f 61/97/4 82/129/4 67/108/4 59/94/4
f 59/94/6 67/108/6 68/110/6 60/95/6
f 66/106/29 84/134/29 78/122/29 56/91/29
f 56/91/30 78/122/30 75/119/30 62/98/30
f 62/98/31 75/119/31 81/127/31 69/111/31
f 69/111/32 81/127/32 84/134/32 66/106/32
f 74/117/33 78/123/33 84/135/33 73/116/33
f 55/90/34 79/125/34 78/123/34 74/117/34
f 65/105/35 83/132/35 79/125/35 55/90/35
f 73/116/36 84/135/36 83/132/36 65/105/36
f 76/120/37 81/128/37 82/130/37 70/112/37
f 70/112/26 82/130/26 83/133/26 80/126/26
f 77/121/27 84/136/27 81/128/27 76/120/27
f 80/126/38 83/133/38 84/136/38 77/121/38
usemtl myPic
f 13/26/14 3/6/14 15/30/14 11/22/14
