# Blender 3.3.0
# www.blender.org
mtllib desk1.mtl
o desk1
v -0.687854 -0.527103 0.502086
v -0.687854 0.202897 0.502086
v -0.788310 0.202898 -0.321812
v -0.788310 -0.527102 -0.321813
v -0.361472 0.202898 -0.373856
v -0.361472 -0.527102 -0.373856
v -0.261015 0.202897 0.450042
v -0.261015 -0.527103 0.450042
v 0.344501 -0.527103 0.376213
v 0.344501 0.202897 0.376213
v 0.244044 0.202898 -0.447686
v 0.244044 -0.527102 -0.447686
v 0.670883 0.202898 -0.499729
v 0.670883 -0.527102 -0.499729
v 0.771340 0.202897 0.324169
v 0.771340 -0.527103 0.324169
v -0.716291 0.202799 0.525360
v -0.716291 0.222798 0.525360
v -0.821589 0.222799 -0.338244
v -0.821589 0.202799 -0.338244
v 0.736869 0.222799 -0.528264
v 0.736869 0.202799 -0.528264
v 0.842167 0.222799 0.335340
v 0.842167 0.202799 0.335340
v 0.689085 0.222811 -0.491742
v -0.760282 0.222811 -0.315024
v -0.662355 0.222810 0.488128
v 0.787011 0.222810 0.311410
vn -0.9926 -0.0000 0.1210
vn -0.1210 -0.0000 -0.9926
vn 0.9926 -0.0000 -0.1210
vn -0.0000 -1.0000 -0.0000
vn -0.0000 1.0000 -0.0000
vn -0.0000 1.0000 0.0002
vn -0.0001 1.0000 -0.0002
vn -0.0002 1.0000 -0.0001
vn -0.0001 1.0000 0.0001
vn 0.0001 1.0000 -0.0002
vn 0.0001 1.0000 -0.0001
vn 0.0001 1.0000 0.0002
vn 0.0002 1.0000 0.0001
vn 0.1210 -0.0000 0.9926
vt 0.375000 0.000000
vt 0.125000 0.750000
vt -0.014802 0.013494
vt 0.625000 0.000000
vt 0.875000 0.750000
vt 0.038909 1.006442
vt 0.625000 0.250000
vt 0.875000 0.500000
vt 0.375000 0.250000
vt 0.125000 0.500000
vt 0.625000 0.500000
vt 0.375000 0.500000
vt 0.625000 0.750000
vt 1.015190 0.987948
vt 0.375000 0.750000
vt 0.972866 0.000643
vt 0.430286 0.942063
vt 0.125000 0.750000
vt 0.016375 0.014209
vt 0.433625 0.213007
vt 0.875000 0.750000
vt 0.007534 0.989851
vt 0.753646 0.210473
vt 0.625000 0.250000
vt 0.875000 0.500000
vt 0.756686 0.946117
vt 0.375000 0.250000
vt 0.125000 0.500000
vt 0.011033 -0.009689
vt 0.625000 0.500000
vt 0.013197 0.971660
vt 0.375000 0.500000
vt 0.848792 -0.008708
vt 0.625000 0.750000
vt 0.970480 0.971651
vt 0.888522 0.963007
vt 0.375000 0.750000
vt 0.986786 -0.002419
vt 0.125000 0.750000
vt 0.375000 0.000000
vt 0.375000 1.000000
vt 0.875000 0.750000
vt 0.625000 0.000000
vt 0.625000 1.000000
vt 0.875000 0.500000
vt 0.625000 0.250000
vt 0.125000 0.500000
vt 0.375000 0.250000
vt 0.625000 0.500000
vt 0.375000 0.500000
vt 0.625000 0.750000
vt 0.375000 0.750000
vt 0.633750 0.508750
vt 0.866250 0.508750
vt 0.866250 0.741250
vt 0.633750 0.741250
s 1
usemtl Desk_wood
f 1/1/1 2/4/1 3/7/1 4/9/1
f 4/9/2 3/7/2 5/11/2 6/12/2
f 6/12/3 5/11/3 7/13/3 8/15/3
f 4/10/4 6/12/4 8/15/4 1/2/4
f 5/11/5 3/8/5 2/5/5 7/13/5
f 9/17/1 10/20/1 11/23/1 12/26/1
f 12/27/2 11/24/2 13/30/2 14/32/2
f 14/31/3 13/29/3 15/33/3 16/36/3
f 12/28/4 14/32/4 16/37/4 9/18/4
f 13/30/5 11/25/5 10/21/5 15/34/5
f 20/47/4 22/50/4 24/52/4 17/39/4
f 27/55/6 26/54/7 19/45/8 18/42/9
f 26/54/7 25/53/10 21/49/11 19/45/8
f 25/53/10 28/56/12 23/51/13 21/49/11
f 28/56/12 27/55/6 18/42/9 23/51/13
usemtl Desk_drawers
f 8/16/14 7/14/14 2/6/14 1/3/14
f 16/38/14 15/35/14 10/22/14 9/19/14
usemtl Desk_leather
f 17/40/1 18/43/1 19/46/1 20/48/1
f 20/48/2 19/46/2 21/49/2 22/50/2
f 22/50/3 21/49/3 23/51/3 24/52/3
f 24/52/14 23/51/14 18/44/14 17/41/14
f 25/53/10 26/54/7 27/55/6 28/56/12
