# Blender 3.3.0
# www.blender.org
mtllib base.mtl
o disconnect_button
v 0.000000 -0.000712 -0.010418
v -0.002032 -0.000712 -0.010218
v -0.003987 -0.000712 -0.009625
v -0.005788 -0.000712 -0.008662
v -0.007367 -0.000712 -0.007367
v -0.008662 -0.000712 -0.005788
v -0.009625 -0.000712 -0.003987
v -0.010218 -0.000712 -0.002032
v -0.010418 -0.000712 -0.000000
v -0.010218 -0.000712 0.002032
v -0.009625 -0.000712 0.003987
v -0.008662 -0.000712 0.005788
v -0.007367 -0.000712 0.007367
v -0.005788 -0.000712 0.008662
v -0.003987 -0.000712 0.009625
v -0.002032 -0.000712 0.010218
v 0.000000 -0.000712 0.010418
v 0.002032 -0.000712 0.010218
v 0.003987 -0.000712 0.009625
v 0.005788 -0.000712 0.008662
v 0.007367 -0.000712 0.007367
v 0.008662 -0.000712 0.005788
v 0.009625 -0.000712 0.003987
v 0.010218 -0.000712 0.002032
v 0.010418 -0.000712 -0.000000
v 0.010218 -0.000712 -0.002032
v 0.009625 -0.000712 -0.003987
v 0.008662 -0.000712 -0.005788
v 0.007367 -0.000712 -0.007367
v 0.005788 -0.000712 -0.008662
v 0.003987 -0.000712 -0.009625
v 0.002032 -0.000712 -0.010218
v 0.000000 0.000830 -0.008232
v -0.001606 0.000830 -0.008074
v -0.003150 0.000830 -0.007605
v -0.004573 0.000830 -0.006845
v -0.005821 0.000830 -0.005821
v -0.006845 0.000830 -0.004573
v -0.007605 0.000830 -0.003150
v -0.008074 0.000830 -0.001606
v -0.008232 0.000830 0.000000
v -0.008074 0.000830 0.001606
v -0.007605 0.000830 0.003150
v -0.006845 0.000830 0.004573
v -0.005821 0.000830 0.005821
v -0.004573 0.000830 0.006845
v -0.003150 0.000830 0.007605
v -0.001606 0.000830 0.008074
v 0.000000 0.000830 0.008232
v 0.001606 0.000830 0.008074
v 0.003150 0.000830 0.007605
v 0.004573 0.000830 0.006845
v 0.005821 0.000830 0.005821
v 0.006845 0.000830 0.004573
v 0.007605 0.000830 0.003150
v 0.008074 0.000830 0.001606
v 0.008232 0.000830 0.000000
v 0.008074 0.000830 -0.001606
v 0.007605 0.000830 -0.003150
v 0.006845 0.000830 -0.004573
v 0.005821 0.000830 -0.005821
v 0.004573 0.000830 -0.006845
v 0.003150 0.000830 -0.007605
v 0.001606 0.000830 -0.008074
v -0.002032 -0.000043 -0.010218
v 0.000000 -0.000043 -0.010418
v -0.003987 -0.000043 -0.009625
v -0.005788 -0.000043 -0.008662
v -0.007367 -0.000043 -0.007367
v -0.008662 -0.000043 -0.005788
v -0.009625 -0.000043 -0.003987
v -0.010218 -0.000043 -0.002032
v -0.010418 -0.000043 -0.000000
v -0.010218 -0.000043 0.002032
v -0.009625 -0.000043 0.003987
v -0.008662 -0.000043 0.005788
v -0.007367 -0.000043 0.007367
v -0.005788 -0.000043 0.008662
v -0.003987 -0.000043 0.009625
v -0.002032 -0.000043 0.010218
v 0.000000 -0.000043 0.010418
v 0.002032 -0.000043 0.010218
v 0.003987 -0.000043 0.009625
v 0.005788 -0.000043 0.008662
v 0.007367 -0.000043 0.007367
v 0.008662 -0.000043 0.005788
v 0.009625 -0.000043 0.003987
v 0.010218 -0.000043 0.002032
v 0.010418 -0.000043 -0.000000
v 0.010218 -0.000043 -0.002032
v 0.009625 -0.000043 -0.003987
v 0.008662 -0.000043 -0.005788
v 0.007367 -0.000043 -0.007367
v 0.005788 -0.000043 -0.008662
v 0.003987 -0.000043 -0.009625
v 0.002032 -0.000043 -0.010218
vn -0.4715 -0.0000 0.8819
vn -0.0980 -0.0000 -0.9952
vn 0.7732 -0.0000 -0.6341
vn -0.2903 -0.0000 0.9569
vn -0.2903 -0.0000 -0.9569
vn 0.6341 -0.0000 -0.7732
vn -0.0980 -0.0000 0.9952
vn -0.4715 -0.0000 -0.8819
vn 0.0980 -0.0000 0.9952
vn -0.6341 -0.0000 -0.7732
vn 0.2903 -0.0000 0.9569
vn -0.7732 -0.0000 -0.6341
vn 0.4715 -0.0000 0.8819
vn -0.8819 -0.0000 -0.4715
vn 0.6341 -0.0000 0.7732
vn -0.9569 -0.0000 -0.2903
vn 0.7732 -0.0000 0.6341
vn -0.9952 -0.0000 -0.0980
vn 0.8819 -0.0000 0.4715
vn -0.9952 -0.0000 0.0980
vn 0.9569 -0.0000 0.2903
vn -0.9569 -0.0000 0.2903
vn 0.9952 -0.0000 0.0980
vn -0.8819 -0.0000 0.4715
vn 0.9952 -0.0000 -0.0980
vn -0.7732 -0.0000 0.6341
vn 0.9569 -0.0000 -0.2903
vn -0.6341 -0.0000 0.7732
vn 0.8819 -0.0000 -0.4715
vn -0.0366 0.9282 -0.3702
vn -0.0366 0.9283 -0.3701
vn -0.1082 0.9281 -0.3563
vn -0.1755 0.9281 -0.3284
vn -0.2362 0.9281 -0.2879
vn -0.2879 0.9281 -0.2362
vn -0.3284 0.9281 -0.1755
vn -0.3563 0.9281 -0.1082
vn -0.3706 0.9281 -0.0365
vn -0.3706 0.9281 0.0365
vn -0.3563 0.9281 0.1082
vn -0.3284 0.9281 0.1755
vn -0.2879 0.9281 0.2362
vn -0.2362 0.9281 0.2879
vn -0.1755 0.9281 0.3284
vn -0.1082 0.9281 0.3563
vn -0.0366 0.9282 0.3702
vn -0.0366 0.9283 0.3701
vn 0.0366 0.9282 0.3702
vn 0.0366 0.9283 0.3701
vn 0.1082 0.9281 0.3563
vn 0.1755 0.9281 0.3284
vn 0.2362 0.9281 0.2879
vn 0.2879 0.9281 0.2362
vn 0.3284 0.9281 0.1755
vn 0.3563 0.9281 0.1082
vn 0.3706 0.9281 0.0365
vn 0.3706 0.9281 -0.0365
vn 0.3563 0.9281 -0.1082
vn 0.3284 0.9281 -0.1755
vn 0.2879 0.9281 -0.2362
vn 0.2362 0.9281 -0.2879
vn 0.4715 -0.0000 -0.8819
vn 0.2903 -0.0000 -0.9569
vn 0.0980 -0.0000 -0.9952
vn 0.1755 0.9281 -0.3284
vn 0.1082 0.9281 -0.3563
vn 0.0366 0.9282 -0.3702
vn 0.0366 0.9283 -0.3701
vn -0.0000 -1.0000 -0.0000
vt 0.000000 0.000000
vt 0.486771 2.013351
vt 0.000000 0.000000
vt 0.583825 1.984720
vt 0.000000 0.000000
vt 0.677229 1.898983
vt 0.000000 0.000000
vt 0.763303 1.759467
vt 0.000000 0.000000
vt 0.838798 1.571678
vt 0.000000 0.000000
vt 0.900750 1.342574
vt 0.000000 0.000000
vt 0.946861 1.081155
vt 0.000000 0.000000
vt 0.975314 0.797289
vt 0.000000 0.000000
vt 0.985003 0.502155
vt 0.000000 0.000000
vt 0.975590 0.206939
vt 0.000000 0.000000
vt 0.947404 -0.077173
vt 0.000000 0.000000
vt 0.901537 -0.338991
vt 0.000000 0.000000
vt 0.839800 -0.568630
vt 0.000000 0.000000
vt 0.764481 -0.757072
vt 0.000000 0.000000
vt 0.678538 -0.897333
vt 0.000000 0.000000
vt 0.585215 -0.983879
vt 0.000000 0.000000
vt 0.488188 -1.013352
vt 0.000000 0.000000
vt 0.391134 -0.984720
vt 0.000000 0.000000
vt 0.297731 -0.898983
vt 0.000000 0.000000
vt 0.211656 -0.759467
vt 0.000000 0.000000
vt 0.136161 -0.571678
vt 0.000000 0.000000
vt 0.074210 -0.342575
vt 0.000000 0.000000
vt 0.028098 -0.081156
vt 0.000000 0.000000
vt -0.000354 0.202711
vt 0.000000 0.000000
vt -0.010044 0.497844
vt 0.000000 0.000000
vt -0.000631 0.793061
vt 0.000000 0.000000
vt 0.027556 1.077173
vt 0.000000 0.000000
vt 0.073422 1.338991
vt 0.000000 0.000000
vt 0.135159 1.568630
vt 0.000000 0.000000
vt 0.210478 1.757072
vt 0.000000 0.000000
vt 0.296421 1.897333
vt 0.000000 0.000000
vt 0.389744 1.983879
vt 0.000000 0.000000
vt 0.000000 0.000000
vt 0.000000 0.000000
vt 0.000000 0.000000
vt 0.000000 0.000000
vt 0.000000 0.000000
vt 0.000000 0.000000
vt 0.000000 0.000000
vt 0.000000 0.000000
vt 0.000000 0.000000
vt 0.000000 0.000000
vt 0.000000 0.000000
vt 0.000000 0.000000
vt 0.000000 0.000000
vt 0.000000 0.000000
vt 0.000000 0.000000
vt 0.000000 0.000000
vt 0.000000 0.000000
vt 0.000000 0.000000
vt 0.000000 0.000000
vt 0.000000 0.000000
vt 0.000000 0.000000
vt 0.000000 0.000000
vt 0.000000 0.000000
vt 0.000000 0.000000
vt 0.000000 0.000000
vt 0.000000 0.000000
vt 0.000000 0.000000
vt 0.000000 0.000000
vt 0.000000 0.000000
vt 0.000000 0.000000
vt 0.000000 0.000000
vt 0.000000 0.000000
vt 0.000000 0.000000
vt 0.000000 0.000000
vt 0.000000 0.000000
vt 0.000000 0.000000
vt 0.000000 0.000000
vt 0.000000 0.000000
vt 0.000000 0.000000
vt 0.000000 0.000000
vt 0.000000 0.000000
vt 0.000000 0.000000
vt 0.000000 0.000000
vt 0.000000 0.000000
vt 0.000000 0.000000
vt 0.000000 0.000000
vt 0.000000 0.000000
vt 0.000000 0.000000
vt 0.000000 0.000000
vt 0.000000 0.000000
vt 0.000000 0.000000
vt 0.000000 0.000000
vt 0.000000 0.000000
vt 0.000000 0.000000
vt 0.000000 0.000000
vt 0.000000 0.000000
vt 0.000000 0.000000
vt 0.000000 0.000000
vt 0.000000 0.000000
vt 0.000000 0.000000
vt 0.000000 0.000000
vt 0.000000 0.000000
vt 0.000000 0.000000
s 0
usemtl base
f 15/29/1 79/111/1 78/110/1 14/27/1
f 2/3/2 65/97/2 66/98/2 1/1/2
f 29/57/3 93/125/3 92/124/3 28/55/3
f 16/31/4 80/112/4 79/111/4 15/29/4
f 3/5/5 67/99/5 65/97/5 2/3/5
f 30/59/6 94/126/6 93/125/6 29/57/6
f 17/33/7 81/113/7 80/112/7 16/31/7
f 4/7/8 68/100/8 67/99/8 3/5/8
f 18/35/9 82/114/9 81/113/9 17/33/9
f 5/9/10 69/101/10 68/100/10 4/7/10
f 19/37/11 83/115/11 82/114/11 18/35/11
f 6/11/12 70/102/12 69/101/12 5/9/12
f 20/39/13 84/116/13 83/115/13 19/37/13
f 7/13/14 71/103/14 70/102/14 6/11/14
f 21/41/15 85/117/15 84/116/15 20/39/15
f 8/15/16 72/104/16 71/103/16 7/13/16
f 22/43/17 86/118/17 85/117/17 21/41/17
f 9/17/18 73/105/18 72/104/18 8/15/18
f 23/45/19 87/119/19 86/118/19 22/43/19
f 10/19/20 74/106/20 73/105/20 9/17/20
f 24/47/21 88/120/21 87/119/21 23/45/21
f 11/21/22 75/107/22 74/106/22 10/19/22
f 25/49/23 89/121/23 88/120/23 24/47/23
f 12/23/24 76/108/24 75/107/24 11/21/24
f 26/51/25 90/122/25 89/121/25 25/49/25
f 13/25/26 77/109/26 76/108/26 12/23/26
f 27/53/27 91/123/27 90/122/27 26/51/27
f 14/27/28 78/110/28 77/109/28 13/25/28
f 28/55/29 92/124/29 91/123/29 27/53/29
usemtl arrow
f 31/61/62 95/127/62 94/126/62 30/59/62
f 32/63/63 96/128/63 95/127/63 31/61/63
f 1/1/64 66/98/64 96/128/64 32/63/64
f 62/94/65 94/126/65 95/127/65 63/95/65
f 63/95/66 95/127/66 96/128/66 64/96/66
f 64/96/67 96/128/68 66/98/67 33/65/67
usemtl bottom
f 2/4/69 1/2/69 32/64/69 31/62/69 30/60/69 29/58/69 28/56/69 27/54/69 26/52/69 25/50/69 24/48/69 23/46/69 22/44/69 21/42/69 20/40/69 19/38/69 18/36/69 17/34/69 16/32/69 15/30/69 14/28/69 13/26/69 12/24/69 11/22/69 10/20/69 9/18/69 8/16/69 7/14/69 6/12/69 5/10/69 4/8/69 3/6/69
usemtl fringe
f 33/65/30 66/98/31 65/97/30 34/66/31
f 34/66/32 65/97/32 67/99/32 35/67/32
f 35/67/33 67/99/33 68/100/33 36/68/33
f 36/68/34 68/100/34 69/101/34 37/69/34
f 37/69/35 69/101/35 70/102/35 38/70/35
f 38/70/36 70/102/36 71/103/36 39/71/36
f 39/71/37 71/103/37 72/104/37 40/72/37
f 40/72/38 72/104/38 73/105/38 41/73/38
f 41/73/39 73/105/39 74/106/39 42/74/39
f 42/74/40 74/106/40 75/107/40 43/75/40
f 43/75/41 75/107/41 76/108/41 44/76/41
f 44/76/42 76/108/42 77/109/42 45/77/42
f 45/77/43 77/109/43 78/110/43 46/78/43
f 46/78/44 78/110/44 79/111/44 47/79/44
f 47/79/45 79/111/45 80/112/45 48/80/45
f 48/80/46 80/112/47 81/113/46 49/81/46
f 49/81/48 81/113/49 82/114/48 50/82/49
f 50/82/50 82/114/50 83/115/50 51/83/50
f 51/83/51 83/115/51 84/116/51 52/84/51
f 52/84/52 84/116/52 85/117/52 53/85/52
f 53/85/53 85/117/53 86/118/53 54/86/53
f 54/86/54 86/118/54 87/119/54 55/87/54
f 55/87/55 87/119/55 88/120/55 56/88/55
f 56/88/56 88/120/56 89/121/56 57/89/56
f 57/89/57 89/121/57 90/122/57 58/90/57
f 58/90/58 90/122/58 91/123/58 59/91/58
f 59/91/59 91/123/59 92/124/59 60/92/59
f 60/92/60 92/124/60 93/125/60 61/93/60
f 61/93/61 93/125/61 94/126/61 62/94/61
