# Blender 3.3.0
# www.blender.org
mtllib reset_button_mesh.mtl
o reset_button
v 0.000000 -0.000712 -0.010418
v -0.002032 -0.000712 -0.010218
v -0.003987 -0.000712 -0.009625
v -0.005788 -0.000712 -0.008662
v -0.007367 -0.000712 -0.007367
v -0.008662 -0.000712 -0.005788
v -0.009625 -0.000712 -0.003987
v -0.010218 -0.000712 -0.002032
v -0.010418 -0.000712 -0.000000
v -0.010218 -0.000712 0.002032
v -0.009625 -0.000712 0.003987
v -0.008662 -0.000712 0.005788
v -0.007367 -0.000712 0.007367
v -0.005788 -0.000712 0.008662
v -0.003987 -0.000712 0.009625
v -0.002032 -0.000712 0.010218
v 0.000000 -0.000712 0.010418
v 0.002032 -0.000712 0.010218
v 0.003987 -0.000712 0.009625
v 0.005788 -0.000712 0.008662
v 0.007367 -0.000712 0.007367
v 0.008662 -0.000712 0.005788
v 0.009625 -0.000712 0.003987
v 0.010218 -0.000712 0.002032
v 0.010418 -0.000712 -0.000000
v 0.010218 -0.000712 -0.002032
v 0.009625 -0.000712 -0.003987
v 0.008662 -0.000712 -0.005788
v 0.007367 -0.000712 -0.007367
v 0.005788 -0.000712 -0.008662
v 0.003987 -0.000712 -0.009625
v 0.002032 -0.000712 -0.010218
v 0.000000 0.000830 -0.008232
v -0.001606 0.000830 -0.008074
v -0.003150 0.000830 -0.007605
v -0.004573 0.000830 -0.006845
v -0.005821 0.000830 -0.005821
v -0.006845 0.000830 -0.004573
v -0.007605 0.000830 -0.003150
v -0.008074 0.000830 -0.001606
v -0.008232 0.000830 0.000000
v -0.008074 0.000830 0.001606
v -0.007605 0.000830 0.003150
v -0.006845 0.000830 0.004573
v -0.005821 0.000830 0.005821
v -0.004573 0.000830 0.006845
v -0.003150 0.000830 0.007605
v -0.001606 0.000830 0.008074
v 0.000000 0.000830 0.008232
v 0.001606 0.000830 0.008074
v 0.003150 0.000830 0.007605
v 0.004573 0.000830 0.006845
v 0.005821 0.000830 0.005821
v 0.006845 0.000830 0.004573
v 0.007605 0.000830 0.003150
v 0.008074 0.000830 0.001606
v 0.008232 0.000830 0.000000
v 0.008074 0.000830 -0.001606
v 0.007605 0.000830 -0.003150
v 0.006845 0.000830 -0.004573
v 0.005821 0.000830 -0.005821
v 0.004573 0.000830 -0.006845
v 0.003150 0.000830 -0.007605
v 0.001606 0.000830 -0.008074
v -0.002032 -0.000043 -0.010218
v 0.000000 -0.000043 -0.010418
v -0.003987 -0.000043 -0.009625
v -0.005788 -0.000043 -0.008662
v -0.007367 -0.000043 -0.007367
v -0.008662 -0.000043 -0.005788
v -0.009625 -0.000043 -0.003987
v -0.010218 -0.000043 -0.002032
v -0.010418 -0.000043 -0.000000
v -0.010218 -0.000043 0.002032
v -0.009625 -0.000043 0.003987
v -0.008662 -0.000043 0.005788
v -0.007367 -0.000043 0.007367
v -0.005788 -0.000043 0.008662
v -0.003987 -0.000043 0.009625
v -0.002032 -0.000043 0.010218
v 0.000000 -0.000043 0.010418
v 0.002032 -0.000043 0.010218
v 0.003987 -0.000043 0.009625
v 0.005788 -0.000043 0.008662
v 0.007367 -0.000043 0.007367
v 0.008662 -0.000043 0.005788
v 0.009625 -0.000043 0.003987
v 0.010218 -0.000043 0.002032
v 0.010418 -0.000043 -0.000000
v 0.010218 -0.000043 -0.002032
v 0.009625 -0.000043 -0.003987
v 0.008662 -0.000043 -0.005788
v 0.007367 -0.000043 -0.007367
v 0.005788 -0.000043 -0.008662
v 0.003987 -0.000043 -0.009625
v 0.002032 -0.000043 -0.010218
vn -0.4715 -0.0000 0.8819
vn -0.0980 -0.0000 -0.9952
vn 0.7730 -0.0000 -0.6344
vn -0.2903 -0.0000 0.9569
vn -0.2903 -0.0000 -0.9569
vn 0.6344 -0.0000 -0.7730
vn -0.0980 -0.0000 0.9952
vn -0.4715 -0.0000 -0.8819
vn 0.0980 -0.0000 0.9952
vn -0.6344 -0.0000 -0.7730
vn 0.2903 -0.0000 0.9569
vn -0.7730 -0.0000 -0.6344
vn 0.4715 -0.0000 0.8819
vn -0.8819 -0.0000 -0.4715
vn 0.6344 -0.0000 0.7730
vn -0.9569 -0.0000 -0.2903
vn 0.7730 -0.0000 0.6344
vn -0.9952 -0.0000 -0.0980
vn 0.8819 -0.0000 0.4715
vn -0.9952 -0.0000 0.0980
vn 0.9569 -0.0000 0.2903
vn -0.9569 -0.0000 0.2903
vn 0.9952 -0.0000 0.0980
vn -0.8819 -0.0000 0.4715
vn 0.9952 -0.0000 -0.0980
vn -0.7730 -0.0000 0.6344
vn 0.9569 -0.0000 -0.2903
vn -0.6344 -0.0000 0.7730
vn 0.8819 -0.0000 -0.4715
vn -0.0366 0.9282 -0.3702
vn -0.1082 0.9281 -0.3563
vn -0.1755 0.9281 -0.3284
vn -0.2362 0.9281 -0.2879
vn -0.2879 0.9281 -0.2362
vn -0.3284 0.9281 -0.1755
vn -0.3563 0.9281 -0.1082
vn -0.3706 0.9281 -0.0365
vn -0.3706 0.9281 0.0365
vn -0.3563 0.9281 0.1082
vn -0.3284 0.9281 0.1755
vn -0.2879 0.9281 0.2362
vn -0.2362 0.9281 0.2879
vn -0.1755 0.9281 0.3284
vn -0.1082 0.9281 0.3563
vn -0.0366 0.9282 0.3702
vn 0.0366 0.9282 0.3702
vn 0.1082 0.9281 0.3563
vn 0.1755 0.9281 0.3284
vn 0.2362 0.9281 0.2879
vn 0.2879 0.9281 0.2362
vn 0.3284 0.9281 0.1755
vn 0.3563 0.9281 0.1082
vn 0.3706 0.9281 0.0365
vn 0.3706 0.9281 -0.0365
vn 0.3563 0.9281 -0.1082
vn 0.3284 0.9281 -0.1755
vn 0.2879 0.9281 -0.2362
vn 0.2362 0.9281 -0.2879
vn -0.0000 1.0000 -0.0000
vn 0.4715 -0.0000 -0.8819
vn 0.2903 -0.0000 -0.9569
vn 0.0980 -0.0000 -0.9952
vn 0.1755 0.9281 -0.3284
vn 0.1082 0.9281 -0.3563
vn 0.0366 0.9282 -0.3702
vn -0.0000 -1.0000 -0.0000
vt 0.000000 0.000000
vt 0.000000 0.000000
vt 0.000000 0.000000
vt 0.000000 0.000000
vt 0.000000 0.000000
vt 0.000000 0.000000
vt 0.000000 0.000000
vt 0.000000 0.000000
vt 0.000000 0.000000
vt 0.000000 0.000000
vt 0.000000 0.000000
vt 0.000000 0.000000
vt 0.000000 0.000000
vt 0.000000 0.000000
vt 0.000000 0.000000
vt 0.000000 0.000000
vt 0.000000 0.000000
vt 0.000000 0.000000
vt 0.000000 0.000000
vt 0.000000 0.000000
vt 0.000000 0.000000
vt 0.000000 0.000000
vt 0.000000 0.000000
vt 0.000000 0.000000
vt 0.000000 0.000000
vt 0.000000 0.000000
vt 0.000000 0.000000
vt 0.000000 0.000000
vt 0.000000 0.000000
vt 0.000000 0.000000
vt 0.000000 0.000000
vt 0.000000 0.000000
vt 0.377647 1.118597
vt 0.000000 0.000000
vt 0.000000 0.000000
vt 0.322554 1.108210
vt 0.000000 0.000000
vt 0.269670 1.078870
vt 0.000000 0.000000
vt 0.221015 1.031826
vt 0.000000 0.000000
vt 0.178438 0.968751
vt 0.000000 0.000000
vt 0.143609 0.892108
vt 0.000000 0.000000
vt 0.117888 0.804907
vt 0.000000 0.000000
vt 0.102190 0.710456
vt 0.000000 0.000000
vt 0.097184 0.612366
vt 0.000000 0.000000
vt 0.103027 0.514422
vt 0.000000 0.000000
vt 0.119531 0.420405
vt 0.000000 0.000000
vt 0.145993 0.333909
vt 0.000000 0.000000
vt 0.181473 0.258216
vt 0.000000 0.000000
vt 0.224584 0.196297
vt 0.000000 0.000000
vt 0.273635 0.150572
vt 0.000000 0.000000
vt 0.326763 0.122664
vt 0.000000 0.000000
vt 0.381940 0.113765
vt 0.000000 0.000000
vt 0.437033 0.124153
vt 0.000000 0.000000
vt 0.489917 0.153492
vt 0.000000 0.000000
vt 0.538571 0.200536
vt 0.000000 0.000000
vt 0.581149 0.263611
vt 0.000000 0.000000
vt 0.615978 0.340254
vt 0.000000 0.000000
vt 0.641699 0.427455
vt 0.000000 0.000000
vt 0.657397 0.521906
vt 0.000000 0.000000
vt 0.662403 0.619997
vt 0.000000 0.000000
vt 0.656560 0.717941
vt 0.000000 0.000000
vt 0.640056 0.811957
vt 0.000000 0.000000
vt 0.613594 0.898453
vt 0.000000 0.000000
vt 0.578114 0.974146
vt 0.535002 1.036065
vt 0.000000 0.000000
vt 0.485952 1.081790
vt 0.000000 0.000000
vt 0.432823 1.109698
vt 0.000000 0.000000
vt 0.000000 0.000000
vt 0.000000 0.000000
vt 0.000000 0.000000
vt 0.000000 0.000000
vt 0.000000 0.000000
vt 0.000000 0.000000
vt 0.000000 0.000000
vt 0.000000 0.000000
vt 0.000000 0.000000
vt 0.000000 0.000000
vt 0.000000 0.000000
vt 0.000000 0.000000
vt 0.000000 0.000000
vt 0.000000 0.000000
vt 0.000000 0.000000
vt 0.000000 0.000000
vt 0.000000 0.000000
vt 0.000000 0.000000
vt 0.000000 0.000000
vt 0.000000 0.000000
vt 0.000000 0.000000
vt 0.000000 0.000000
vt 0.000000 0.000000
vt 0.000000 0.000000
vt 0.000000 0.000000
vt 0.000000 0.000000
vt 0.000000 0.000000
vt 0.000000 0.000000
vt 0.000000 0.000000
vt 0.000000 0.000000
vt 0.000000 0.000000
vt 0.000000 0.000000
s 0
f 15/15/1 79/111/1 78/110/1 14/14/1
f 2/2/2 65/97/2 66/98/2 1/1/2
f 29/29/3 93/125/3 92/124/3 28/28/3
f 16/16/4 80/112/4 79/111/4 15/15/4
f 3/3/5 67/99/5 65/97/5 2/2/5
f 30/30/6 94/126/6 93/125/6 29/29/6
f 17/17/7 81/113/7 80/112/7 16/16/7
f 4/4/8 68/100/8 67/99/8 3/3/8
f 18/18/9 82/114/9 81/113/9 17/17/9
f 5/5/10 69/101/10 68/100/10 4/4/10
f 19/19/11 83/115/11 82/114/11 18/18/11
f 6/6/12 70/102/12 69/101/12 5/5/12
f 20/20/13 84/116/13 83/115/13 19/19/13
f 7/7/14 71/103/14 70/102/14 6/6/14
f 21/21/15 85/117/15 84/116/15 20/20/15
f 8/8/16 72/104/16 71/103/16 7/7/16
f 22/22/17 86/118/17 85/117/17 21/21/17
f 9/9/18 73/105/18 72/104/18 8/8/18
f 23/23/19 87/119/19 86/118/19 22/22/19
f 10/10/20 74/106/20 73/105/20 9/9/20
f 24/24/21 88/120/21 87/119/21 23/23/21
f 11/11/22 75/107/22 74/106/22 10/10/22
f 25/25/23 89/121/23 88/120/23 24/24/23
f 12/12/24 76/108/24 75/107/24 11/11/24
f 26/26/25 90/122/25 89/121/25 25/25/25
f 13/13/26 77/109/26 76/108/26 12/12/26
f 27/27/27 91/123/27 90/122/27 26/26/27
f 14/14/28 78/110/28 77/109/28 13/13/28
f 28/28/29 92/124/29 91/123/29 27/27/29
f 33/34/30 66/98/30 65/97/30 34/35/30
f 34/35/31 65/97/31 67/99/31 35/37/31
f 35/37/32 67/99/32 68/100/32 36/39/32
f 36/39/33 68/100/33 69/101/33 37/41/33
f 37/41/34 69/101/34 70/102/34 38/43/34
f 38/43/35 70/102/35 71/103/35 39/45/35
f 39/45/36 71/103/36 72/104/36 40/47/36
f 40/47/37 72/104/37 73/105/37 41/49/37
f 41/49/38 73/105/38 74/106/38 42/51/38
f 42/51/39 74/106/39 75/107/39 43/53/39
f 43/53/40 75/107/40 76/108/40 44/55/40
f 44/55/41 76/108/41 77/109/41 45/57/41
f 45/57/42 77/109/42 78/110/42 46/59/42
f 46/59/43 78/110/43 79/111/43 47/61/43
f 47/61/44 79/111/44 80/112/44 48/63/44
f 48/63/45 80/112/45 81/113/45 49/65/45
f 49/65/46 81/113/46 82/114/46 50/67/46
f 50/67/47 82/114/47 83/115/47 51/69/47
f 51/69/48 83/115/48 84/116/48 52/71/48
f 52/71/49 84/116/49 85/117/49 53/73/49
f 53/73/50 85/117/50 86/118/50 54/75/50
f 54/75/51 86/118/51 87/119/51 55/77/51
f 55/77/52 87/119/52 88/120/52 56/79/52
f 56/79/53 88/120/53 89/121/53 57/81/53
f 57/81/54 89/121/54 90/122/54 58/83/54
f 58/83/55 90/122/55 91/123/55 59/85/55
f 59/85/56 91/123/56 92/124/56 60/87/56
f 60/87/57 92/124/57 93/125/57 61/89/57
f 61/89/58 93/125/58 94/126/58 62/92/58
f 34/36/59 35/38/59 36/40/59 37/42/59 38/44/59 39/46/59 40/48/59 41/50/59 42/52/59 43/54/59 44/56/59 45/58/59 46/60/59 47/62/59 48/64/59 49/66/59 50/68/59 51/70/59 52/72/59 53/74/59 54/76/59 55/78/59 56/80/59 57/82/59 58/84/59 59/86/59 60/88/59 61/90/59 62/91/59 63/93/59 64/95/59 33/33/59
f 31/31/60 95/127/60 94/126/60 30/30/60
f 32/32/61 96/128/61 95/127/61 31/31/61
f 1/1/62 66/98/62 96/128/62 32/32/62
f 62/92/63 94/126/63 95/127/63 63/94/63
f 63/94/64 95/127/64 96/128/64 64/96/64
f 64/96/65 96/128/65 66/98/65 33/34/65
f 2/2/66 1/1/66 32/32/66 31/31/66 30/30/66 29/29/66 28/28/66 27/27/66 26/26/66 25/25/66 24/24/66 23/23/66 22/22/66 21/21/66 20/20/66 19/19/66 18/18/66 17/17/66 16/16/66 15/15/66 14/14/66 13/13/66 12/12/66 11/11/66 10/10/66 9/9/66 8/8/66 7/7/66 6/6/66 5/5/66 4/4/66 3/3/66
