# Blender 3.4.1
# www.blender.org
mtllib middle.mtl
o middle
v 20.925720 0.000000 -0.000000
v 20.746700 2.731355 0.000000
v 20.212694 5.415974 0.000000
v 19.332846 8.007926 0.000000
v 18.122204 10.462863 0.000000
v 16.601492 12.738770 0.000001
v 14.796720 14.796721 0.000001
v 12.738774 16.601488 0.000001
v 10.462861 18.122208 0.000001
v 8.007931 19.332846 0.000001
v 5.415975 20.212694 0.000001
v 2.731351 20.746700 0.000001
v 0.000001 20.925720 0.000001
v -2.731357 20.746698 0.000001
v -5.415973 20.212694 0.000001
v -8.007928 19.332846 0.000001
v -10.462858 18.122208 0.000001
v -12.738772 16.601490 0.000001
v -14.796721 14.796716 0.000001
v -16.601490 12.738772 0.000001
v -18.122204 10.462866 0.000000
v -19.332844 8.007929 0.000000
v -20.212694 5.415974 0.000000
v -20.746698 2.731357 0.000000
v -20.925720 0.000002 -0.000000
v -20.746698 -2.731357 -0.000000
v -20.212694 -5.415972 -0.000000
v -19.332850 -8.007919 -0.000000
v -18.122208 -10.462857 -0.000000
v -16.601490 -12.738772 -0.000001
v -14.796723 -14.796716 -0.000001
v -12.738781 -16.601484 -0.000001
v -10.462858 -18.122208 -0.000001
v -8.007929 -19.332844 -0.000001
v -5.415982 -20.212694 -0.000001
v -2.731366 -20.746696 -0.000001
v 0.000000 -20.925720 -0.000001
v 2.731351 -20.746700 -0.000001
v 5.415967 -20.212696 -0.000001
v 8.007930 -19.332846 -0.000001
v 10.462860 -18.122208 -0.000001
v 12.738767 -16.601494 -0.000001
v 14.796713 -14.796728 -0.000001
v 16.601492 -12.738770 -0.000001
v 18.122204 -10.462863 -0.000000
v 19.332842 -8.007934 -0.000000
v 20.212694 -5.415970 -0.000000
v 20.746700 -2.731354 -0.000000
v 19.332842 -8.007934 0.570990
v 20.212694 -5.415970 0.570990
v 20.746700 2.731355 0.570991
v 20.212694 5.415974 0.570991
v 16.601492 12.738770 0.570991
v 14.796720 14.796721 0.570991
v 8.007931 19.332846 0.570991
v 5.415975 20.212694 0.570992
v -2.731357 20.746698 0.570992
v -5.415973 20.212694 0.570992
v -12.738772 16.601490 0.570991
v -14.796721 14.796716 0.570991
v -19.332844 8.007929 0.570991
v -20.212694 5.415974 0.570991
v -20.746698 -2.731357 0.570991
v -20.212694 -5.415972 0.570990
v -16.601490 -12.738772 0.570990
v -14.796723 -14.796716 0.570990
v -8.007929 -19.332844 0.570990
v -5.415982 -20.212694 0.570990
v 2.731351 -20.746700 0.570990
v 5.415967 -20.212696 0.570990
v 12.738767 -16.601494 0.570990
v 14.796713 -14.796728 0.570990
v 18.122204 -10.462863 0.570990
v 20.925720 0.000000 0.570991
v 20.746700 -2.731354 0.570991
v 18.122204 10.462863 0.570991
v 10.462861 18.122208 0.570991
v 0.000001 20.925720 0.570992
v -10.462858 18.122208 0.570991
v -18.122204 10.462866 0.570991
v -20.925720 0.000002 0.570991
v -18.122208 -10.462857 0.570990
v -10.462858 -18.122208 0.570990
v 0.000000 -20.925720 0.570990
v 10.462860 -18.122208 0.570990
v 16.601492 -12.738770 0.570990
v 19.332846 8.007926 0.570991
v 12.738774 16.601488 0.570991
v 2.731351 20.746700 0.570992
v -8.007928 19.332846 0.570991
v -16.601490 12.738772 0.570991
v -20.746698 2.731357 0.570991
v -19.332850 -8.007919 0.570990
v -12.738781 -16.601484 0.570990
v -2.731366 -20.746696 0.570990
v 8.007930 -19.332846 0.570990
v 19.332842 -8.007934 0.570990
v 20.212694 -5.415970 0.570990
v 20.746700 2.731355 0.570991
v 20.212694 5.415974 0.570991
v 16.601492 12.738770 0.570991
v 14.796720 14.796721 0.570991
v 8.007931 19.332846 0.570991
v 5.415975 20.212694 0.570992
v -2.731357 20.746698 0.570992
v -5.415973 20.212694 0.570992
v -12.738772 16.601490 0.570991
v -14.796721 14.796716 0.570991
v -19.332844 8.007929 0.570991
v -20.212694 5.415974 0.570991
v -20.746698 -2.731357 0.570991
v -20.212694 -5.415972 0.570990
v -16.601490 -12.738772 0.570990
v -14.796723 -14.796716 0.570990
v -8.007929 -19.332844 0.570990
v -5.415982 -20.212694 0.570990
v 2.731351 -20.746700 0.570990
v 5.415967 -20.212696 0.570990
v 12.738767 -16.601494 0.570990
v 14.796713 -14.796728 0.570990
v 18.122204 -10.462863 0.570990
v 20.925720 0.000000 0.570991
v 20.746700 -2.731354 0.570991
v 18.122204 10.462863 0.570991
v 10.462861 18.122208 0.570991
v 0.000001 20.925720 0.570992
v -10.462858 18.122208 0.570991
v -18.122204 10.462866 0.570991
v -20.925720 0.000002 0.570991
v -18.122208 -10.462857 0.570990
v -10.462858 -18.122208 0.570990
v 0.000000 -20.925720 0.570990
v 10.462860 -18.122208 0.570990
v 16.601492 -12.738770 0.570990
v 19.332846 8.007926 0.570991
v 12.738774 16.601488 0.570991
v 2.731351 20.746700 0.570992
v -8.007928 19.332846 0.570991
v -16.601490 12.738772 0.570991
v -20.746698 2.731357 0.570991
v -19.332850 -8.007919 0.570990
v -12.738781 -16.601484 0.570990
v -2.731366 -20.746696 0.570990
v 8.007930 -19.332846 0.570990
v 19.332842 -8.007934 -0.529864
v 20.212694 -5.415970 -0.529864
v 20.746700 2.731355 -0.529863
v 20.212694 5.415974 -0.529863
v 16.601492 12.738770 -0.529863
v 14.796720 14.796721 -0.529863
v 8.007931 19.332846 -0.529863
v 5.415975 20.212694 -0.529863
v -2.731357 20.746698 -0.529863
v -5.415973 20.212694 -0.529863
v -12.738772 16.601490 -0.529863
v -14.796721 14.796716 -0.529863
v -19.332844 8.007929 -0.529863
v -20.212694 5.415974 -0.529863
v -20.746698 -2.731357 -0.529864
v -20.212694 -5.415972 -0.529864
v -16.601490 -12.738772 -0.529864
v -14.796723 -14.796716 -0.529864
v -8.007929 -19.332844 -0.529864
v -5.415982 -20.212694 -0.529864
v 2.731351 -20.746700 -0.529864
v 5.415967 -20.212696 -0.529864
v 12.738767 -16.601494 -0.529864
v 14.796713 -14.796728 -0.529864
v 18.122204 -10.462863 -0.529864
v 20.925720 0.000000 -0.529864
v 20.746700 -2.731354 -0.529864
v 18.122204 10.462863 -0.529863
v 10.462861 18.122208 -0.529863
v 0.000001 20.925720 -0.529863
v -10.462858 18.122208 -0.529863
v -18.122204 10.462866 -0.529863
v -20.925720 0.000002 -0.529864
v -18.122208 -10.462857 -0.529864
v -10.462858 -18.122208 -0.529864
v 0.000000 -20.925720 -0.529864
v 10.462860 -18.122208 -0.529864
v 16.601492 -12.738770 -0.529864
v 19.332846 8.007926 -0.529863
v 12.738774 16.601488 -0.529863
v 2.731351 20.746700 -0.529863
v -8.007928 19.332846 -0.529863
v -16.601490 12.738772 -0.529863
v -20.746698 2.731357 -0.529863
v -19.332850 -8.007919 -0.529864
v -12.738781 -16.601484 -0.529864
v -2.731366 -20.746696 -0.529864
v 8.007930 -19.332846 -0.529864
vn 0.8315 0.5556 -0.0000
vn -0.0000 -0.0000 1.0000
vn 0.7518 0.6593 -0.0000
vn -0.4423 0.8969 -0.0000
vn 0.4423 0.8969 -0.0000
vn 0.3214 0.9469 -0.0000
vn -0.7518 0.6593 -0.0000
vn -0.0654 0.9979 -0.0000
vn -0.1951 0.9808 -0.0000
vn -0.9808 0.1951 -0.0000
vn -0.5556 0.8315 -0.0000
vn -0.6593 0.7518 -0.0000
vn -0.9469 -0.3214 -0.0000
vn -0.8315 0.5556 -0.0000
vn -0.8969 0.4423 -0.0000
vn -0.6593 -0.7518 -0.0000
vn -0.8969 -0.4423 -0.0000
vn -0.9979 0.0654 -0.0000
vn -0.1951 -0.9808 -0.0000
vn -0.9469 0.3214 -0.0000
vn -0.5556 -0.8315 -0.0000
vn -0.9979 -0.0654 -0.0000
vn 0.3214 -0.9469 -0.0000
vn -0.9808 -0.1951 -0.0000
vn -0.0654 -0.9979 -0.0000
vn -0.8315 -0.5556 -0.0000
vn 0.7518 -0.6593 -0.0000
vn -0.7518 -0.6593 -0.0000
vn 0.4423 -0.8969 -0.0000
vn -0.4423 -0.8969 -0.0000
vn 0.9808 -0.1951 -0.0000
vn -0.3214 -0.9469 -0.0000
vn 0.8315 -0.5556 -0.0000
vn 0.0654 -0.9979 -0.0000
vn 0.9469 0.3214 -0.0000
vn 0.1951 -0.9808 -0.0000
vn 0.9979 -0.0654 -0.0000
vn 0.5556 -0.8315 -0.0000
vn 0.6593 0.7518 -0.0000
vn 0.6593 -0.7518 -0.0000
vn 0.8969 0.4423 -0.0000
vn 0.8969 -0.4423 -0.0000
vn 0.1951 0.9808 -0.0000
vn 0.9469 -0.3214 -0.0000
vn 0.5556 0.8315 -0.0000
vn 0.9979 0.0654 -0.0000
vn -0.3214 0.9469 -0.0000
vn 0.9808 0.1951 -0.0000
vn 0.0654 0.9979 -0.0000
vn -0.0000 -0.0000 -1.0000
vt 0.000000 0.000000
vt 0.000000 0.000000
vt 0.000000 0.000000
vt 0.000000 0.000000
vt 0.000000 0.000000
vt 0.000000 0.000000
vt 0.000000 0.000000
vt 0.000000 0.000000
vt 0.000000 0.000000
vt 0.000000 0.000000
vt 0.000000 0.000000
vt 0.000000 0.000000
vt 0.000000 0.000000
vt 0.000000 0.000000
vt 0.000000 0.000000
vt 0.000000 0.000000
vt 0.000000 0.000000
vt 0.000000 0.000000
vt 0.000000 0.000000
vt 0.000000 0.000000
vt 0.000000 0.000000
vt 0.000000 0.000000
vt 0.000000 0.000000
vt 0.000000 0.000000
vt 0.000000 0.000000
vt 0.000000 0.000000
vt 0.000000 0.000000
vt 0.000000 0.000000
vt 0.000000 0.000000
vt 0.000000 0.000000
vt 0.000000 0.000000
vt 0.000000 0.000000
vt 0.000000 0.000000
vt 0.000000 0.000000
vt 0.000000 0.000000
vt 0.000000 0.000000
vt 0.000000 0.000000
vt 0.000000 0.000000
vt 0.000000 0.000000
vt 0.000000 0.000000
vt 0.000000 0.000000
vt 0.000000 0.000000
vt 0.000000 0.000000
vt 0.000000 0.000000
vt 0.000000 0.000000
vt 0.000000 0.000000
vt 0.000000 0.000000
vt 0.000000 0.000000
vt 0.000000 0.000000
vt 0.000000 0.000000
vt 0.000000 0.000000
vt 0.000000 0.000000
vt 0.000000 0.000000
vt 0.000000 0.000000
vt 0.000000 0.000000
vt 0.000000 0.000000
vt 0.000000 0.000000
vt 0.000000 0.000000
vt 0.000000 0.000000
vt 0.000000 0.000000
vt 0.000000 0.000000
vt 0.000000 0.000000
vt 0.000000 0.000000
vt 0.000000 0.000000
vt 0.000000 0.000000
vt 0.000000 0.000000
vt 0.000000 0.000000
vt 0.000000 0.000000
vt 0.000000 0.000000
vt 0.000000 0.000000
vt 0.000000 0.000000
vt 0.000000 0.000000
vt 0.000000 0.000000
vt 0.000000 0.000000
vt 0.000000 0.000000
vt 0.000000 0.000000
vt 0.000000 0.000000
vt 0.000000 0.000000
vt 0.000000 0.000000
vt 0.000000 0.000000
vt 0.000000 0.000000
vt 0.000000 0.000000
vt 0.000000 0.000000
vt 0.000000 0.000000
vt 0.000000 0.000000
vt 0.000000 0.000000
vt 0.000000 0.000000
vt 0.000000 0.000000
vt 0.000000 0.000000
vt 0.000000 0.000000
vt 0.000000 0.000000
vt 0.000000 0.000000
vt 0.000000 0.000000
vt 0.000000 0.000000
vt 0.000000 0.000000
vt 0.000000 0.000000
vt 0.000000 0.000000
vt 0.000000 0.000000
vt 0.000000 0.000000
vt 0.000000 0.000000
vt 0.000000 0.000000
vt 0.000000 0.000000
vt 0.000000 0.000000
vt 0.000000 0.000000
vt 0.000000 0.000000
vt 0.000000 0.000000
vt 0.000000 0.000000
vt 0.000000 0.000000
vt 0.000000 0.000000
vt 0.000000 0.000000
vt 0.000000 0.000000
vt 0.000000 0.000000
vt 0.000000 0.000000
vt 0.000000 0.000000
vt 0.000000 0.000000
vt 0.000000 0.000000
vt 0.000000 0.000000
vt 0.000000 0.000000
vt 0.000000 0.000000
vt 0.000000 0.000000
vt 0.000000 0.000000
vt 0.000000 0.000000
vt 0.000000 0.000000
vt 0.000000 0.000000
vt 0.000000 0.000000
vt 0.000000 0.000000
vt 0.000000 0.000000
vt 0.000000 0.000000
vt 0.000000 0.000000
vt 0.000000 0.000000
vt 0.000000 0.000000
vt 0.000000 0.000000
vt 0.000000 0.000000
vt 0.000000 0.000000
vt 0.000000 0.000000
vt 0.000000 0.000000
vt 0.000000 0.000000
vt 0.000000 0.000000
vt 0.000000 0.000000
vt 0.000000 0.000000
vt 0.000000 0.000000
vt 0.000000 0.000000
vt 0.000000 0.000000
vt 0.000000 0.000000
vt 0.000000 0.000000
vt 0.000000 0.000000
vt 0.000000 0.000000
vt 0.000000 0.000000
vt 0.000000 0.000000
vt 0.000000 0.000000
vt 0.000000 0.000000
vt 0.000000 0.000000
vt 0.000000 0.000000
vt 0.000000 0.000000
vt 0.000000 0.000000
vt 0.000000 0.000000
vt 0.000000 0.000000
vt 0.000000 0.000000
vt 0.000000 0.000000
vt 0.000000 0.000000
vt 0.000000 0.000000
vt 0.000000 0.000000
vt 0.000000 0.000000
vt 0.000000 0.000000
vt 0.000000 0.000000
vt 0.000000 0.000000
vt 0.000000 0.000000
vt 0.000000 0.000000
vt 0.000000 0.000000
vt 0.000000 0.000000
vt 0.000000 0.000000
vt 0.000000 0.000000
vt 0.000000 0.000000
vt 0.000000 0.000000
vt 0.000000 0.000000
vt 0.000000 0.000000
vt 0.000000 0.000000
vt 0.000000 0.000000
vt 0.000000 0.000000
vt 0.000000 0.000000
vt 0.000000 0.000000
vt 0.000000 0.000000
vt 0.000000 0.000000
vt 0.000000 0.000000
vt 0.000000 0.000000
vt 0.000000 0.000000
vt 0.000000 0.000000
vt 0.000000 0.000000
vt 0.000000 0.000000
vt 0.000000 0.000000
vt 0.000000 0.000000
vt 0.000000 0.000000
s 0
usemtl middle
f 29/29/1 30/30/1 161/161/1 178/178/1
f 89/89/2 56/56/2 104/104/2 137/137/2
f 30/30/1 29/29/1 82/82/1 65/65/1
f 31/31/3 30/30/3 65/65/3 66/66/3
f 41/41/4 40/40/4 96/96/4 85/85/4
f 34/34/5 33/33/5 83/83/5 67/67/5
f 35/35/6 34/34/6 67/67/6 68/68/6
f 44/44/7 43/43/7 72/72/7 86/86/7
f 38/38/8 37/37/8 84/84/8 69/69/8
f 39/39/9 38/38/9 69/69/9 70/70/9
f 48/48/10 47/47/10 50/50/10 75/75/10
f 42/42/11 41/41/11 85/85/11 71/71/11
f 43/43/12 42/42/12 71/71/12 72/72/12
f 4/4/13 3/3/13 52/52/13 87/87/13
f 45/45/14 44/44/14 86/86/14 73/73/14
f 46/46/15 45/45/15 73/73/15 49/49/15
f 8/8/16 7/7/16 54/54/16 88/88/16
f 5/5/17 4/4/17 87/87/17 76/76/17
f 1/1/18 48/48/18 75/75/18 74/74/18
f 12/12/19 11/11/19 56/56/19 89/89/19
f 47/47/20 46/46/20 49/49/20 50/50/20
f 9/9/21 8/8/21 88/88/21 77/77/21
f 2/2/22 1/1/22 74/74/22 51/51/22
f 16/16/23 15/15/23 58/58/23 90/90/23
f 3/3/24 2/2/24 51/51/24 52/52/24
f 13/13/25 12/12/25 89/89/25 78/78/25
f 6/6/26 5/5/26 76/76/26 53/53/26
f 20/20/27 19/19/27 60/60/27 91/91/27
f 7/7/28 6/6/28 53/53/28 54/54/28
f 17/17/29 16/16/29 90/90/29 79/79/29
f 10/10/30 9/9/30 77/77/30 55/55/30
f 24/24/31 23/23/31 62/62/31 92/92/31
f 11/11/32 10/10/32 55/55/32 56/56/32
f 21/21/33 20/20/33 91/91/33 80/80/33
f 14/14/34 13/13/34 78/78/34 57/57/34
f 28/28/35 27/27/35 64/64/35 93/93/35
f 15/15/36 14/14/36 57/57/36 58/58/36
f 25/25/37 24/24/37 92/92/37 81/81/37
f 18/18/38 17/17/38 79/79/38 59/59/38
f 32/32/39 31/31/39 66/66/39 94/94/39
f 19/19/40 18/18/40 59/59/40 60/60/40
f 29/29/41 28/28/41 93/93/41 82/82/41
f 22/22/42 21/21/42 80/80/42 61/61/42
f 36/36/43 35/35/43 68/68/43 95/95/43
f 23/23/44 22/22/44 61/61/44 62/62/44
f 33/33/45 32/32/45 94/94/45 83/83/45
f 26/26/46 25/25/46 81/81/46 63/63/46
f 40/40/47 39/39/47 70/70/47 96/96/47
f 27/27/48 26/26/48 63/63/48 64/64/48
f 37/37/49 36/36/49 95/95/49 84/84/49
f 97/97/50 121/121/50 134/134/50 120/120/50 119/119/50 133/133/50 144/144/50 118/118/50 117/117/50 132/132/50 143/143/50 116/116/50 115/115/50 131/131/50 142/142/50 114/114/50 113/113/50 130/130/50 141/141/50 112/112/50 111/111/50 129/129/50 140/140/50 110/110/50 109/109/50 128/128/50 139/139/50 108/108/50 107/107/50 127/127/50 138/138/50 106/106/50 105/105/50 126/126/50 137/137/50 104/104/50 103/103/50 125/125/50 136/136/50 102/102/50 101/101/50 124/124/50 135/135/50 100/100/50 99/99/50 122/122/50 123/123/50 98/98/50
f 50/50/2 49/49/2 97/97/2 98/98/2
f 77/77/2 88/88/2 136/136/2 125/125/2
f 51/51/2 74/74/2 122/122/2 99/99/2
f 90/90/2 58/58/2 106/106/2 138/138/2
f 52/52/2 51/51/2 99/99/2 100/100/2
f 78/78/2 89/89/2 137/137/2 126/126/2
f 53/53/2 76/76/2 124/124/2 101/101/2
f 91/91/2 60/60/2 108/108/2 139/139/2
f 54/54/2 53/53/2 101/101/2 102/102/2
f 79/79/2 90/90/2 138/138/2 127/127/2
f 55/55/2 77/77/2 125/125/2 103/103/2
f 92/92/2 62/62/2 110/110/2 140/140/2
f 56/56/2 55/55/2 103/103/2 104/104/2
f 80/80/2 91/91/2 139/139/2 128/128/2
f 57/57/2 78/78/2 126/126/2 105/105/2
f 93/93/2 64/64/2 112/112/2 141/141/2
f 58/58/2 57/57/2 105/105/2 106/106/2
f 81/81/2 92/92/2 140/140/2 129/129/2
f 59/59/2 79/79/2 127/127/2 107/107/2
f 94/94/2 66/66/2 114/114/2 142/142/2
f 60/60/2 59/59/2 107/107/2 108/108/2
f 82/82/2 93/93/2 141/141/2 130/130/2
f 61/61/2 80/80/2 128/128/2 109/109/2
f 95/95/2 68/68/2 116/116/2 143/143/2
f 62/62/2 61/61/2 109/109/2 110/110/2
f 83/83/2 94/94/2 142/142/2 131/131/2
f 63/63/2 81/81/2 129/129/2 111/111/2
f 96/96/2 70/70/2 118/118/2 144/144/2
f 64/64/2 63/63/2 111/111/2 112/112/2
f 84/84/2 95/95/2 143/143/2 132/132/2
f 65/65/2 82/82/2 130/130/2 113/113/2
f 66/66/2 65/65/2 113/113/2 114/114/2
f 85/85/2 96/96/2 144/144/2 133/133/2
f 67/67/2 83/83/2 131/131/2 115/115/2
f 68/68/2 67/67/2 115/115/2 116/116/2
f 86/86/2 72/72/2 120/120/2 134/134/2
f 69/69/2 84/84/2 132/132/2 117/117/2
f 70/70/2 69/69/2 117/117/2 118/118/2
f 75/75/2 50/50/2 98/98/2 123/123/2
f 71/71/2 85/85/2 133/133/2 119/119/2
f 72/72/2 71/71/2 119/119/2 120/120/2
f 87/87/2 52/52/2 100/100/2 135/135/2
f 73/73/2 86/86/2 134/134/2 121/121/2
f 49/49/2 73/73/2 121/121/2 97/97/2
f 88/88/2 54/54/2 102/102/2 136/136/2
f 76/76/2 87/87/2 135/135/2 124/124/2
f 74/74/2 75/75/2 123/123/2 122/122/2
f 145/145/2 146/146/2 171/171/2 170/170/2 147/147/2 148/148/2 183/183/2 172/172/2 149/149/2 150/150/2 184/184/2 173/173/2 151/151/2 152/152/2 185/185/2 174/174/2 153/153/2 154/154/2 186/186/2 175/175/2 155/155/2 156/156/2 187/187/2 176/176/2 157/157/2 158/158/2 188/188/2 177/177/2 159/159/2 160/160/2 189/189/2 178/178/2 161/161/2 162/162/2 190/190/2 179/179/2 163/163/2 164/164/2 191/191/2 180/180/2 165/165/2 166/166/2 192/192/2 181/181/2 167/167/2 168/168/2 182/182/2 169/169/2
f 30/30/3 31/31/3 162/162/3 161/161/3
f 40/40/4 41/41/4 181/181/4 192/192/4
f 33/33/5 34/34/5 163/163/5 179/179/5
f 34/34/6 35/35/6 164/164/6 163/163/6
f 43/43/7 44/44/7 182/182/7 168/168/7
f 37/37/8 38/38/8 165/165/8 180/180/8
f 38/38/9 39/39/9 166/166/9 165/165/9
f 47/47/10 48/48/10 171/171/10 146/146/10
f 41/41/11 42/42/11 167/167/11 181/181/11
f 42/42/12 43/43/12 168/168/12 167/167/12
f 3/3/13 4/4/13 183/183/13 148/148/13
f 44/44/14 45/45/14 169/169/14 182/182/14
f 45/45/15 46/46/15 145/145/15 169/169/15
f 7/7/16 8/8/16 184/184/16 150/150/16
f 4/4/17 5/5/17 172/172/17 183/183/17
f 48/48/18 1/1/18 170/170/18 171/171/18
f 11/11/19 12/12/19 185/185/19 152/152/19
f 46/46/20 47/47/20 146/146/20 145/145/20
f 8/8/21 9/9/21 173/173/21 184/184/21
f 1/1/22 2/2/22 147/147/22 170/170/22
f 15/15/23 16/16/23 186/186/23 154/154/23
f 2/2/24 3/3/24 148/148/24 147/147/24
f 12/12/25 13/13/25 174/174/25 185/185/25
f 5/5/26 6/6/26 149/149/26 172/172/26
f 19/19/27 20/20/27 187/187/27 156/156/27
f 6/6/28 7/7/28 150/150/28 149/149/28
f 16/16/29 17/17/29 175/175/29 186/186/29
f 9/9/30 10/10/30 151/151/30 173/173/30
f 23/23/31 24/24/31 188/188/31 158/158/31
f 10/10/32 11/11/32 152/152/32 151/151/32
f 20/20/33 21/21/33 176/176/33 187/187/33
f 13/13/34 14/14/34 153/153/34 174/174/34
f 27/27/35 28/28/35 189/189/35 160/160/35
f 14/14/36 15/15/36 154/154/36 153/153/36
f 24/24/37 25/25/37 177/177/37 188/188/37
f 17/17/38 18/18/38 155/155/38 175/175/38
f 31/31/39 32/32/39 190/190/39 162/162/39
f 18/18/40 19/19/40 156/156/40 155/155/40
f 28/28/41 29/29/41 178/178/41 189/189/41
f 21/21/42 22/22/42 157/157/42 176/176/42
f 35/35/43 36/36/43 191/191/43 164/164/43
f 22/22/44 23/23/44 158/158/44 157/157/44
f 32/32/45 33/33/45 179/179/45 190/190/45
f 25/25/46 26/26/46 159/159/46 177/177/46
f 39/39/47 40/40/47 192/192/47 166/166/47
f 26/26/48 27/27/48 160/160/48 159/159/48
f 36/36/49 37/37/49 180/180/49 191/191/49
