# Blender 3.6.0
# www.blender.org
mtllib clip_main_large.mtl
o clip_main_large
v 0.008909 0.006622 0.227269
v 0.008988 0.006851 0.178226
v 0.006147 0.003860 0.228807
v 0.006230 0.004108 0.176653
v 0.096101 0.006680 0.227410
v 0.096180 0.006912 0.178367
v 0.098863 0.003922 0.228956
v 0.098947 0.004170 0.176802
v 0.006144 0.005550 0.228814
v 0.006228 0.005798 0.176662
v 0.098945 0.005860 0.176811
v 0.098863 0.005614 0.228963
v 0.107556 -0.000611 0.256248
v 0.107856 -0.000611 0.255948
v -0.105101 0.004609 -0.049060
v -0.106230 0.004309 -0.050489
v 0.107856 -0.000611 -0.050189
v 0.107556 -0.000611 -0.050489
v -0.106230 -0.000611 -0.050489
v -0.106530 -0.000611 -0.050189
v -0.106230 -0.000611 0.256248
v -0.106530 -0.000611 0.255948
v 0.106427 0.004609 0.254819
v 0.107556 0.004309 0.256248
v 0.106427 0.004609 -0.049060
v 0.107856 0.004309 -0.050189
v -0.105101 0.004609 0.254819
v -0.106530 0.004309 0.255948
v -0.106530 0.004309 -0.050189
v -0.106230 0.004309 0.256248
v 0.107856 0.004309 0.255948
v 0.107556 0.004309 -0.050489
v 0.007439 0.004405 -0.054656
v -0.018309 0.004405 -0.054656
v -0.028499 -0.005936 -0.071519
v -0.028025 0.008845 -0.071578
v 0.007439 -0.007032 -0.024039
v 0.007439 0.009826 -0.024039
v 0.007439 -0.007032 -0.072614
v 0.007439 0.009826 -0.072614
v -0.018309 -0.007032 -0.072614
v -0.019345 0.008845 -0.071578
v -0.018309 -0.007032 -0.024039
v -0.018309 0.009826 -0.024039
v -0.028499 -0.005936 -0.057225
v -0.028025 0.008845 -0.057165
v 0.007439 -0.007032 -0.056129
v 0.007439 0.009826 -0.056129
v -0.019345 0.008845 -0.057165
v -0.019313 -0.006028 -0.056756
v 0.007439 -0.000220 -0.054656
v -0.018309 -0.000220 -0.054656
v -0.028499 0.008730 -0.057225
v -0.028499 0.008730 -0.071519
v -0.018309 0.009826 -0.072614
v -0.019313 0.008822 -0.056756
v -0.028056 0.008822 -0.056756
v -0.029061 0.009826 -0.072614
v -0.029061 -0.007032 -0.072614
v -0.028056 -0.006028 -0.056756
v -0.018309 0.009826 -0.056129
v -0.018309 -0.007032 -0.056129
v -0.029061 -0.007032 -0.056129
v -0.029061 0.009826 -0.056129
v -0.007439 0.004405 -0.054656
v 0.018309 0.004405 -0.054656
v 0.028499 -0.005936 -0.071519
v 0.028025 0.008845 -0.071578
v -0.007439 -0.007032 -0.024039
v -0.007439 0.009826 -0.024039
v -0.007439 -0.007032 -0.072614
v -0.007439 0.009826 -0.072614
v 0.018309 -0.007032 -0.072614
v 0.019345 0.008845 -0.071578
v 0.018309 -0.007032 -0.024039
v 0.018309 0.009826 -0.024039
v 0.028499 -0.005936 -0.057225
v 0.028025 0.008845 -0.057165
v -0.007439 -0.007032 -0.056129
v -0.007439 0.009826 -0.056129
v 0.019345 0.008845 -0.057165
v 0.019313 -0.006028 -0.056756
v -0.007439 -0.000220 -0.054656
v 0.018309 -0.000220 -0.054656
v 0.028499 0.008730 -0.057225
v 0.028499 0.008730 -0.071519
v 0.018309 0.009826 -0.072614
v 0.019313 0.008822 -0.056756
v 0.028056 0.008822 -0.056756
v 0.029061 0.009826 -0.072614
v 0.029061 -0.007032 -0.072614
v 0.028056 -0.006028 -0.056756
v 0.018309 0.009826 -0.056129
v 0.018309 -0.007032 -0.056129
v 0.029061 -0.007032 -0.056129
v 0.029061 0.009826 -0.056129
v -0.105806 0.004609 -0.050489
v -0.106530 0.004609 -0.049765
v 0.107132 0.004609 -0.050489
v 0.107132 0.004609 0.256248
v -0.105806 0.004609 0.256248
v 0.107856 0.004609 0.255523
v 0.107856 0.004609 -0.049765
v -0.106530 0.004609 0.255523
v 0.008909 0.006622 0.062838
v 0.008988 0.006851 0.013795
v 0.006147 0.003860 0.064376
v 0.006230 0.004108 0.012222
v 0.096101 0.006680 0.062979
v 0.096180 0.006912 0.013936
v 0.098863 0.003922 0.064525
v 0.098947 0.004170 0.012371
v 0.006144 0.005550 0.064383
v 0.006228 0.005798 0.012231
v 0.098945 0.005860 0.012380
v 0.098863 0.005614 0.064532
v 0.008909 0.006622 0.117450
v 0.008988 0.006851 0.068407
v 0.006147 0.003860 0.118988
v 0.006230 0.004108 0.066834
v 0.096101 0.006680 0.117591
v 0.096180 0.006912 0.068548
v 0.098863 0.003922 0.119137
v 0.098947 0.004170 0.066983
v 0.006144 0.005550 0.118995
v 0.006228 0.005798 0.066843
v 0.098945 0.005860 0.066992
v 0.098863 0.005614 0.119144
v 0.008909 0.006622 0.172164
v 0.008988 0.006851 0.123121
v 0.006147 0.003860 0.173702
v 0.006230 0.004108 0.121548
v 0.096101 0.006680 0.172305
v 0.096180 0.006912 0.123262
v 0.098863 0.003922 0.173851
v 0.098947 0.004170 0.121697
v 0.006144 0.005550 0.173709
v 0.006228 0.005798 0.121557
v 0.098945 0.005860 0.121706
v 0.098863 0.005614 0.173858
vn 0.0007 -1.0000 -0.0048
vn -1.0000 -0.0015 -0.0016
vn 1.0000 0.0006 0.0016
vn -0.0016 -0.0045 1.0000
vn 0.0016 0.0053 -1.0000
vn -0.3590 0.9333 0.0038
vn 0.3578 0.9338 0.0050
vn -0.0015 0.8232 0.5677
vn -0.0015 0.8233 0.5676
vn 0.0004 0.8287 -0.5597
vn -0.0007 1.0000 0.0047
vn 0.5002 0.7069 -0.5001
vn -0.0000 -1.0000 -0.0000
vn 1.0000 -0.0000 -0.0000
vn -0.0000 -0.0000 1.0000
vn -0.0000 1.0000 -0.0000
vn -0.0000 -0.9847 0.1743
vn -1.0000 -0.0000 -0.0000
vn -0.0000 0.9761 0.2172
vn 0.5001 0.7073 0.4996
vn -0.5002 0.7069 -0.5002
vn -0.5001 0.7073 0.4996
vn -0.7071 -0.0000 -0.7071
vn -0.0000 -0.0000 -1.0000
vn -0.7071 -0.0000 0.7071
vn 0.7071 -0.0000 0.7071
vn 0.7071 -0.0000 -0.7071
vn 0.6871 0.7266 -0.0000
vn -0.0000 0.7266 0.6871
vn -0.6876 0.7261 -0.0000
vn -0.0000 0.7264 -0.6872
vn -0.8898 -0.4563 -0.0000
vn -0.8897 -0.0000 0.4566
vn -0.8898 0.4563 -0.0000
vn -0.8898 -0.0000 -0.4563
vn -0.5297 -0.0000 0.8482
vn -0.0000 0.5297 0.8482
vn -0.0000 -0.5297 0.8482
vn 0.5293 -0.0000 0.8484
vn -0.6871 0.7266 -0.0000
vn -0.0000 0.7268 0.6868
vn 0.6876 0.7261 -0.0000
vn 0.8898 -0.4563 -0.0000
vn 0.8897 -0.0000 0.4566
vn 0.8901 0.4559 -0.0000
vn 0.8898 -0.0000 -0.4563
vn 0.5297 -0.0000 0.8482
vn -0.5293 -0.0000 0.8484
vt 0.375000 0.250000
vt 0.625000 0.250000
vt 0.625000 0.500000
vt 0.375000 0.500000
vt 0.375000 0.000000
vt 0.625000 0.000000
vt 0.625000 0.750000
vt 0.375000 0.750000
vt 0.125000 0.500000
vt 0.125000 0.750000
vt 0.875000 0.500000
vt 0.875000 0.750000
vt 0.017126 0.030155
vt 0.017126 0.969845
vt 0.000375 0.999625
vt 0.000375 0.000375
vt 0.545702 0.969845
vt 0.545702 0.030155
vt 0.562453 0.000375
vt 0.562453 0.999625
vt 0.997090 0.001533
vt 0.997087 0.785160
vt 0.001976 0.785160
vt 0.001979 0.001534
vt 0.625845 0.500000
vt 0.625000 0.500590
vt 0.610633 0.500244
vt 0.610633 0.499650
vt 1.107067 -0.806578
vt 1.107440 -0.801625
vt 1.107440 1.760636
vt 1.107067 1.765589
vt -0.104320 1.765589
vt -0.104693 1.760636
vt -0.104693 -0.801625
vt -0.104320 -0.806578
vt 0.375000 0.625000
vt 0.625000 0.625000
vt 0.500000 0.750000
vt 0.437500 0.750000
vt 0.000000 0.000000
vt 0.500000 0.875000
vt 0.437500 0.875000
vt 0.625000 0.875000
vt 0.375000 0.875000
vt 0.250000 0.625000
vt 0.250000 0.750000
vt 0.750000 0.750000
vt 0.750000 0.625000
vt 0.625000 0.749410
vt 0.625845 0.750000
vt 0.610633 0.750350
vt 0.610633 0.749756
vt 0.375000 0.500244
vt 0.375000 0.749756
vt 0.375000 0.750350
vt 0.625000 0.750845
vt 0.625000 0.999155
vt 0.610633 0.999650
vt 0.375000 0.999650
vt 0.375000 0.000245
vt 0.610633 0.000245
vt 0.625000 0.000590
vt 0.625000 0.249410
vt 0.610633 0.249755
vt 0.375000 0.249755
vt 0.625000 0.249755
vt 0.625000 0.250350
vt 0.610633 0.250350
vt 0.625000 0.000245
vt 0.610633 0.000000
vt 0.375000 0.250350
vt 0.625000 0.250845
vt 0.625000 0.499155
vt 0.375000 0.499650
vt 0.873427 0.501230
vt 0.874155 0.500000
vt 0.875000 0.500590
vt 0.626573 0.501230
vt 0.626574 0.748771
vt 0.873426 0.748771
vt 0.874155 0.750000
vt 0.626760 0.501099
vt 0.626760 0.748901
vt 0.873240 0.748901
vt 0.873240 0.501099
vt 0.875000 0.749410
vt 0.391246 0.133307
vt 0.608754 0.133307
vt 0.608754 0.241693
vt 0.391246 0.241693
vt 0.625000 0.375000
vt 0.375000 0.375000
vt 0.250000 0.500000
vt 0.125000 0.625000
vt 0.750000 0.500000
vt 0.762044 0.507855
vt 0.862956 0.507855
vt 0.862956 0.617145
vt 0.762044 0.617145
vt 0.875000 0.625000
vt 0.625000 0.125000
vt 0.375000 0.125000
vt 0.995838 1.000308
vt 0.003595 1.000308
vt 0.003597 0.000308
vt 0.995836 0.000308
s 0
usemtl myBase
f 99/25/12 103/26/12 26/27/12 32/28/12
f 20/29/13 19/30/13 18/31/13 17/32/13 14/33/13 13/34/13 21/35/13 22/36/13
usemtl myMetal
f 47/37/14 48/38/14 38/7/14 33/39/14 51/40/14 37/8/14
f 43/41/13 62/41/13 79/37/13 69/8/13
f 51/40/15 33/39/15 34/42/15 52/43/15
f 61/41/16 44/41/16 70/7/16 80/38/16
f 61/41/15 62/41/15 47/41/15 48/41/15
f 33/39/17 38/7/17 44/44/17 34/42/17
f 61/41/18 62/41/18 43/41/18 52/41/18 34/41/18 44/41/18
f 37/8/19 51/40/19 52/43/19 43/45/19
f 79/37/18 69/8/18 83/40/18 65/39/18 70/7/18 80/38/18
f 94/46/13 75/47/13 69/8/13 79/37/13
f 83/40/15 84/43/15 66/42/15 65/39/15
f 80/38/16 70/7/16 76/48/16 93/49/16
f 93/41/15 80/41/15 79/41/15 94/41/15
f 38/7/17 33/39/17 66/41/17 76/41/17
f 93/41/14 76/41/14 66/41/14 84/41/14 75/41/14 94/41/14
f 51/40/19 37/8/19 75/41/19 84/41/19
usemtl myHook
f 102/50/20 100/51/20 24/52/20 31/53/20
f 17/54/14 26/27/14 103/26/14 102/50/14 31/53/14 14/55/14
f 13/56/15 24/52/15 100/57/15 101/58/15 30/59/15 21/60/15
f 22/61/18 28/62/18 104/63/18 98/64/18 29/65/18 20/66/18
f 98/67/21 97/68/21 16/69/21 29/65/21
f 101/6/22 104/70/22 28/62/22 30/71/22
f 16/69/23 19/72/23 20/66/23 29/65/23
f 19/72/24 16/69/24 97/73/24 99/74/24 32/28/24 18/75/24
f 21/5/25 30/71/25 28/62/25 22/61/25
f 24/52/26 13/56/26 14/55/26 31/53/26
f 26/27/27 17/54/27 18/75/27 32/28/27
f 15/76/16 97/77/16 98/78/16
f 15/76/16 25/79/16 99/25/16 97/77/16
f 23/80/16 27/81/16 101/82/16 100/51/16
f 23/80/16 100/51/16 102/50/16
f 25/83/16 23/84/16 102/50/16 103/26/16
f 25/83/16 103/26/16 99/25/16
f 27/85/16 15/86/16 98/78/16 104/87/16
f 27/85/16 104/87/16 101/82/16
f 45/88/18 53/89/18 54/90/18 35/91/18
f 55/41/24 72/41/24 71/41/24 41/41/24
f 50/41/15 56/41/15 57/41/15 60/41/15
f 59/1/24 58/2/24 55/92/24 41/93/24
f 59/9/13 41/94/13 62/46/13 63/95/13
f 40/3/16 55/96/16 61/49/16 48/38/16
f 42/97/16 36/98/16 46/99/16 49/100/16
f 41/41/13 71/41/13 79/41/13 62/41/13
f 39/4/14 40/3/14 48/38/14 47/37/14
f 46/99/28 36/98/28 58/11/28 64/101/28
f 36/98/29 42/97/29 55/96/29 58/11/29
f 42/97/30 49/100/30 61/49/30 55/96/30
f 49/100/31 46/99/31 64/101/31 61/49/31
f 54/90/32 53/89/32 64/102/32 58/2/32
f 35/91/33 54/90/33 58/2/33 59/1/33
f 45/88/34 35/91/34 59/1/34 63/103/34
f 53/89/35 45/88/35 63/103/35 64/102/35
f 56/41/36 50/41/36 62/41/36 61/41/36
f 50/41/37 60/41/37 63/41/37 62/41/37
f 57/41/38 56/41/38 61/41/38 64/41/38
f 60/41/39 57/41/39 64/41/39 63/41/39
f 77/88/14 67/91/14 86/90/14 85/89/14
f 73/93/24 71/4/24 72/3/24 87/92/24
f 82/41/15 92/41/15 89/41/15 88/41/15
f 91/1/24 73/93/24 87/92/24 90/2/24
f 91/9/13 95/95/13 94/46/13 73/94/13
f 87/96/16 40/3/16 48/38/16 93/49/16
f 74/97/16 81/100/16 78/99/16 68/98/16
f 73/94/13 94/46/13 79/37/13 71/4/13
f 71/4/18 79/37/18 80/38/18 72/3/18
f 78/99/40 96/101/40 90/11/40 68/98/40
f 68/98/41 90/11/41 87/96/41 74/97/41
f 74/97/42 87/96/42 93/49/42 81/100/42
f 81/100/31 93/49/31 96/101/31 78/99/31
f 86/90/43 90/2/43 96/102/43 85/89/43
f 67/91/44 91/1/44 90/2/44 86/90/44
f 77/88/45 95/103/45 91/1/45 67/91/45
f 85/89/46 96/102/46 95/103/46 77/88/46
f 88/41/47 93/41/47 94/41/47 82/41/47
f 82/41/37 94/41/37 95/41/37 92/41/37
f 89/41/38 96/41/38 93/41/38 88/41/38
f 92/41/48 95/41/48 96/41/48 89/41/48
usemtl myPic
f 25/104/16 15/105/16 27/106/16 23/107/16
usemtl b1_base
f 107/1/1 108/2/1 112/3/1 111/4/1
f 113/5/2 114/6/2 108/2/2 107/1/2
f 111/4/3 112/3/3 115/7/3 116/8/3
f 107/9/4 111/4/4 116/8/4 113/10/4
f 112/3/5 108/11/5 114/12/5 115/7/5
usemtl b1_fringe
f 105/13/6 106/14/6 114/15/6 113/16/6
f 110/17/7 109/18/7 116/19/7 115/20/7
f 109/18/8 105/13/8 113/16/8 116/19/9
f 106/14/10 110/17/10 115/20/10 114/15/10
usemtl b1_pic
f 109/21/11 110/22/11 106/23/11 105/24/11
usemtl b2_base
f 119/1/1 120/2/1 124/3/1 123/4/1
f 125/5/2 126/6/2 120/2/2 119/1/2
f 123/4/3 124/3/3 127/7/3 128/8/3
f 119/9/4 123/4/4 128/8/4 125/10/4
f 124/3/5 120/11/5 126/12/5 127/7/5
usemtl b2_fringe
f 117/13/6 118/14/6 126/15/6 125/16/6
f 122/17/7 121/18/7 128/19/7 127/20/7
f 121/18/8 117/13/8 125/16/8 128/19/9
f 118/14/10 122/17/10 127/20/10 126/15/10
usemtl b2_pic
f 121/21/11 122/22/11 118/23/11 117/24/11
usemtl b3_base
f 131/1/1 132/2/1 136/3/1 135/4/1
f 137/5/2 138/6/2 132/2/2 131/1/2
f 135/4/3 136/3/3 139/7/3 140/8/3
f 131/9/4 135/4/4 140/8/4 137/10/4
f 136/3/5 132/11/5 138/12/5 139/7/5
usemtl b3_fringe
f 129/13/6 130/14/6 138/15/6 137/16/6
f 134/17/7 133/18/7 140/19/7 139/20/7
f 133/18/8 129/13/8 137/16/8 140/19/9
f 130/14/10 134/17/10 139/20/10 138/15/10
usemtl b3_pic
f 133/21/11 134/22/11 130/23/11 129/24/11
usemtl b4_base
f 3/1/1 4/2/1 8/3/1 7/4/1
f 9/5/2 10/6/2 4/2/2 3/1/2
f 7/4/3 8/3/3 11/7/3 12/8/3
f 3/9/4 7/4/4 12/8/4 9/10/4
f 8/3/5 4/11/5 10/12/5 11/7/5
usemtl b4_fringe
f 1/13/6 2/14/6 10/15/6 9/16/6
f 6/17/7 5/18/7 12/19/7 11/20/7
f 5/18/8 1/13/8 9/16/8 12/19/9
f 2/14/10 6/17/10 11/20/10 10/15/10
usemtl b4_pic
f 5/21/11 6/22/11 2/23/11 1/24/11
