# Blender 3.4.1
# www.blender.org
mtllib sword.mtl
o sword
v 4.598410 1.749430 -5.478117
v 4.806030 0.118380 -5.710668
v 4.804855 0.118065 -5.709508
v 4.596945 1.749040 -5.476673
v 4.838870 -0.002640 -5.709088
v 4.661840 1.747440 -5.414477
v 4.660380 1.747050 -5.413033
v 4.842936 0.116870 -5.671303
v 4.844110 0.117185 -5.672468
v 4.632475 1.744180 -5.448778
v 4.825895 0.119120 -5.692343
v 4.822840 0.118085 -5.689333
v 4.581015 1.877825 -5.457808
v 4.582490 1.878220 -5.459268
v 4.616145 1.877590 -5.428328
v 4.601350 1.878450 -5.445803
v 4.646960 1.876195 -5.394583
v 4.645485 1.875800 -5.393127
v 4.611830 1.876430 -5.424067
v 4.627445 1.742830 -5.443803
v 4.626630 1.875570 -5.406588
v 4.594390 1.876580 -5.438928
v 4.633585 1.877440 -5.413463
v 4.567960 2.241820 -5.390368
v 4.605010 1.921930 -5.448303
v 4.586125 1.918875 -5.443017
v 4.555480 2.239800 -5.386878
v 4.580675 1.915400 -5.424253
v 4.551880 2.237505 -5.374473
v 4.591855 1.913540 -5.402997
v 4.559270 2.236275 -5.360427
v 4.613120 1.914385 -5.391703
v 4.573320 2.236835 -5.352968
v 4.632005 1.917440 -5.396987
v 4.585800 2.238850 -5.356458
v 4.589400 2.241150 -5.368857
v 4.637455 1.920915 -5.415758
v 4.626275 1.922775 -5.437013
v 4.582010 2.242380 -5.382907
v 4.558290 2.329255 -5.370888
v 4.549945 2.327910 -5.368553
v 4.559695 2.330800 -5.357903
v 4.547540 2.326370 -5.360258
v 4.552480 2.325550 -5.350868
v 4.561870 2.325920 -5.345882
v 4.570215 2.327270 -5.348217
v 4.572620 2.328810 -5.356508
v 4.567680 2.329630 -5.365898
v 4.581070 1.895810 -5.454398
v 4.579420 1.912645 -5.451493
v 4.602125 1.916065 -5.456188
v 4.604050 1.899275 -5.459153
v 4.574535 1.908660 -5.428923
v 4.576125 1.891780 -5.431553
v 4.590330 1.906455 -5.401692
v 4.592110 1.889545 -5.403997
v 4.619660 1.890415 -5.387873
v 4.617550 1.907315 -5.385763
v 4.642640 1.893880 -5.392628
v 4.640255 1.910735 -5.390463
v 4.647585 1.897910 -5.415473
v 4.645140 1.914715 -5.413033
v 4.629350 1.916925 -5.440258
v 4.631600 1.900145 -5.443027
v 4.557625 2.321365 -5.384953
v 4.540855 2.318650 -5.380262
v 4.536016 2.315565 -5.363597
v 4.545945 2.313910 -5.344723
v 4.564825 2.314660 -5.334692
v 4.581595 2.317375 -5.339387
v 4.586435 2.320460 -5.356052
v 4.576505 2.322115 -5.374928
v 4.546200 2.253780 -5.392473
v 4.564965 2.256820 -5.397723
v 4.540785 2.250325 -5.373823
v 4.551895 2.248480 -5.352697
v 4.573025 2.249315 -5.341473
v 4.591795 2.252355 -5.346727
v 4.597210 2.255805 -5.365377
v 4.586095 2.257655 -5.386503
v 4.565990 2.273365 -5.405308
v 4.539430 2.268680 -5.395278
v 4.529155 2.263480 -5.368903
v 4.541190 2.260815 -5.341638
v 4.568475 2.262245 -5.329453
v 4.595036 2.266935 -5.339488
v 4.605310 2.272130 -5.365858
v 4.593275 2.274795 -5.393123
v 4.532075 2.287345 -5.397647
v 4.563545 2.292895 -5.409537
v 4.519900 2.281185 -5.366403
v 4.534160 2.278030 -5.334093
v 4.566495 2.279725 -5.319657
v 4.597965 2.285280 -5.331542
v 4.610135 2.291435 -5.362792
v 4.595881 2.294595 -5.395098
v 4.535000 2.305685 -5.389708
v 4.561560 2.310375 -5.399737
v 4.524730 2.300490 -5.363333
v 4.536760 2.297825 -5.336068
v 4.564050 2.299255 -5.323883
v 4.590611 2.303945 -5.333918
v 4.600880 2.309140 -5.360288
v 4.588850 2.311805 -5.387553
v 4.635941 1.901910 -5.445282
v 4.587915 1.901295 -5.481102
v 4.553820 1.892430 -5.447018
v 4.589850 1.889925 -5.399208
v 4.579510 1.873855 -5.446823
v 4.606365 1.872805 -5.416943
v 4.593610 1.877525 -5.460917
v 4.623625 1.877295 -5.434197
v 4.456865 1.878270 -5.573368
v 4.446475 1.895520 -5.565658
v 4.468940 1.901360 -5.588113
v 4.466155 1.880685 -5.582658
v 4.754890 1.888600 -5.258953
v 4.762160 1.871420 -5.269773
v 4.771445 1.873835 -5.279058
v 4.777350 1.894440 -5.281413
v 4.476955 1.884550 -5.566062
v 4.477700 1.894865 -5.569423
v 4.558995 1.894410 -5.492098
v 4.555755 1.882235 -5.489488
v 4.549605 1.880635 -5.483337
v 4.472330 1.883350 -5.561438
v 4.544120 1.890540 -5.477228
v 4.466516 1.891955 -5.558233
v 4.686320 1.879260 -5.359728
v 4.689450 1.891560 -5.362513
v 4.758471 1.888565 -5.290213
v 4.754885 1.878315 -5.289678
v 4.747280 1.885655 -5.279027
v 4.674415 1.887650 -5.347483
v 4.680105 1.877640 -5.353513
v 4.750255 1.877110 -5.285053
v 4.648890 1.876285 -5.405942
v 4.669635 1.899460 -5.399837
v 4.635540 1.890595 -5.365753
v 4.634790 1.872615 -5.391848
vn -0.7045 0.0119 -0.7096
vn -0.7044 0.0115 -0.7097
vn -0.6640 -0.1896 -0.7233
vn 0.7069 -0.0323 0.7065
vn 0.7070 -0.0327 0.7065
vn 0.6988 0.1861 -0.6907
vn 0.6988 0.1863 -0.6907
vn 0.6594 0.1872 -0.7281
vn 0.6569 0.1867 -0.7305
vn -0.6964 -0.2050 0.6877
vn -0.6985 -0.1887 0.6903
vn -0.7358 -0.1872 0.6508
vn 0.7385 0.1841 -0.6487
vn 0.7361 0.1849 -0.6511
vn 0.7145 -0.2329 0.6597
vn -0.6591 -0.1896 0.7278
vn -0.7050 0.0166 -0.7090
vn 0.6982 0.1912 -0.6899
vn 0.6582 0.1788 -0.7313
vn 0.7070 -0.0323 0.7065
vn 0.7063 -0.0276 0.7073
vn -0.6991 -0.1838 0.6910
vn -0.6984 -0.1890 0.6903
vn -0.6559 -0.1981 0.7284
vn 0.6291 0.1753 -0.7573
vn -0.7615 -0.1979 0.6172
vn -0.7380 -0.1877 0.6481
vn -0.7367 -0.1956 0.6473
vn -0.6259 -0.2021 0.7532
vn -0.6564 -0.1902 0.7300
vn 0.7648 0.1711 -0.6211
vn 0.7390 0.1762 -0.6503
vn -0.2840 0.1086 -0.9527
vn -0.2875 0.1383 -0.9477
vn -0.2837 0.1052 -0.9531
vn -0.9574 -0.0414 -0.2857
vn -0.9543 -0.0713 -0.2903
vn -0.9539 -0.0747 -0.2908
vn -0.8805 -0.1483 0.4502
vn -0.8777 -0.1738 0.4465
vn -0.8775 -0.1762 0.4461
vn -0.4579 -0.1615 0.8742
vn -0.4547 -0.1895 0.8703
vn -0.4551 -0.1871 0.8706
vn 0.2806 -0.0803 0.9565
vn 0.2847 -0.1135 0.9519
vn 0.2841 -0.1101 0.9524
vn 0.9545 0.0698 0.2900
vn 0.9549 0.0663 0.2895
vn 0.9505 0.0995 0.2944
vn 0.8784 0.1683 -0.4473
vn 0.8748 0.1962 -0.4430
vn 0.8781 0.1707 -0.4470
vn 0.4520 0.2094 -0.8671
vn 0.4557 0.1816 -0.8714
vn 0.4554 0.1840 -0.8711
vn -0.0998 0.9893 -0.1067
vn -0.2712 0.9624 -0.0130
vn -0.1175 0.9820 0.1478
vn -0.3645 0.9182 0.1549
vn -0.3135 0.8866 0.3402
vn -0.1275 0.9108 0.3926
vn 0.0421 0.9526 0.3012
vn 0.1371 0.9819 0.1310
vn 0.0884 0.9944 -0.0571
vn -0.2213 0.1448 -0.9644
vn -0.9736 -0.0573 -0.2209
vn -0.8598 -0.1567 0.4860
vn -0.4938 -0.1679 0.8532
vn 0.2154 -0.0944 0.9720
vn 0.9676 0.1076 0.2284
vn 0.8553 0.1941 -0.4804
vn 0.4895 0.2053 -0.8475
vn -0.4928 0.8257 -0.2744
vn 0.1168 0.7685 -0.6291
vn -0.0632 0.8216 -0.5666
vn -0.7634 0.6337 0.1254
vn -0.8055 0.5210 0.2824
vn -0.6613 0.3378 0.6697
vn -0.1084 0.6131 0.7825
vn -0.2691 0.5041 0.8206
vn 0.2982 0.8009 0.5192
vn 0.5917 0.8010 0.0905
vn 0.6532 0.7517 -0.0909
vn 0.5418 0.6608 -0.5194
vn 0.5918 0.8010 0.0905
vn -0.3185 0.7353 -0.5982
vn -0.3213 0.7280 -0.6056
vn -0.2660 0.8459 -0.4622
vn -0.6738 0.7366 -0.0591
vn -0.7827 0.6042 -0.1496
vn -0.7774 0.6122 -0.1447
vn -0.6839 0.6018 0.4125
vn -0.7063 0.5855 0.3978
vn -0.7053 0.5863 0.3985
vn -0.3960 0.5928 0.7013
vn -0.3826 0.5762 0.7222
vn -0.3820 0.5754 0.7232
vn 0.0796 0.7131 0.6965
vn 0.1608 0.5828 0.7966
vn 0.1654 0.5745 0.8016
vn 0.6197 0.7059 0.3430
vn 0.4872 0.8224 0.2939
vn 0.6269 0.6983 0.3456
vn 0.5119 0.8364 -0.1960
vn 0.5379 0.8223 -0.1859
vn 0.5367 0.8229 -0.1864
vn 0.2239 0.8455 -0.4848
vn 0.2140 0.8331 -0.5101
vn 0.2135 0.8324 -0.5113
vn -0.2841 0.1086 -0.9526
vn -0.2217 -0.3836 -0.8965
vn -0.2200 -0.3863 -0.8958
vn -0.7683 -0.5334 -0.3539
vn -0.7697 -0.5307 -0.3549
vn -0.6705 -0.6915 0.2689
vn -0.6693 -0.6932 0.2674
vn -0.2914 -0.7051 0.6465
vn -0.2929 -0.7033 0.6478
vn -0.4550 -0.1871 0.8706
vn 0.3353 -0.5653 0.7536
vn 0.3342 -0.5680 0.7521
vn 0.2843 -0.1101 0.9524
vn 0.8832 -0.4183 0.2121
vn 0.8824 -0.4208 0.2103
vn 0.8015 -0.4118 -0.4337
vn 0.8022 -0.4094 -0.4346
vn 0.4246 -0.3976 -0.8134
vn 0.4236 -0.3999 -0.8128
vn -0.2878 -0.2721 -0.9182
vn -0.2862 -0.2750 -0.9179
vn -0.8203 -0.4184 -0.3900
vn -0.8214 -0.4154 -0.3908
vn -0.7651 -0.5739 0.2920
vn -0.7611 -0.5801 0.2903
vn -0.3126 -0.5881 0.7459
vn -0.3111 -0.5942 0.7417
vn 0.3736 -0.4558 0.8079
vn 0.3745 -0.4529 0.8091
vn 0.9082 -0.3096 0.2816
vn 0.9077 -0.3125 0.2800
vn 0.8663 -0.2717 -0.4192
vn 0.8638 -0.2789 -0.4195
vn 0.4139 -0.2647 -0.8710
vn 0.4138 -0.2575 -0.8732
vn -0.3664 0.0955 -0.9255
vn -0.9267 -0.0549 -0.3718
vn -0.9080 -0.1665 0.3845
vn -0.3929 -0.1826 0.9013
vn 0.3664 -0.0955 0.9255
vn 0.9267 0.0549 0.3718
vn 0.9080 0.1665 -0.3845
vn 0.3929 0.1826 -0.9013
vn -0.3733 0.5100 -0.7750
vn -0.3741 0.5046 -0.7781
vn -0.8902 0.3712 -0.2641
vn -0.8918 0.3657 -0.2664
vn -0.8512 0.3209 0.4153
vn -0.8483 0.3287 0.4152
vn -0.4079 0.3149 0.8570
vn -0.4083 0.3070 0.8597
vn 0.2723 0.3348 0.9021
vn 0.2744 0.3291 0.9036
vn 0.7920 0.4681 0.3919
vn 0.7891 0.4735 0.3913
vn 0.7392 0.6150 -0.2745
vn 0.7346 0.6215 -0.2722
vn 0.2942 0.6353 -0.7140
vn 0.2963 0.6289 -0.7188
vn 0.2140 0.8330 -0.5102
vn -0.1165 0.9834 0.1393
vn -0.5042 -0.7792 0.3724
vn -0.4470 -0.7841 0.4306
vn -0.4458 -0.7841 0.4318
vn 0.1166 -0.9834 -0.1394
vn 0.6005 -0.5120 -0.6142
vn 0.5993 -0.5119 -0.6154
vn 0.5403 -0.5076 -0.6711
vn -0.6913 -0.0956 -0.7162
vn 0.7177 -0.1274 0.6846
vn 0.6584 -0.2999 -0.6903
vn 0.5795 -0.3684 -0.7270
vn 0.5905 -0.3594 -0.7226
vn 0.0781 -0.9811 -0.1770
vn 0.0783 -0.9810 -0.1773
vn 0.1113 -0.9833 -0.1442
vn -0.5897 -0.6666 0.4559
vn -0.5923 -0.6734 0.4424
vn -0.5706 -0.6192 0.5394
vn -0.1219 0.9835 0.1340
vn -0.1668 0.9820 0.0886
vn -0.1667 0.9820 0.0886
vn 0.7072 -0.3690 -0.6031
vn 0.7088 -0.3737 -0.5983
vn 0.6815 -0.3011 -0.6670
vn -0.1100 0.9832 0.1457
vn -0.0717 0.9805 0.1832
vn -0.0717 0.9804 0.1833
vn -0.4665 -0.6749 0.5717
vn -0.5480 -0.6204 0.5610
vn -0.4604 -0.6786 0.5723
vn 0.1223 -0.9835 -0.1330
vn 0.1519 -0.9829 -0.1037
vn 0.1518 -0.9830 -0.1036
vn 0.8429 -0.2339 -0.4847
vn 0.2859 -0.9576 0.0371
vn -0.3809 -0.5519 0.7419
vn 0.0566 0.9510 0.3039
vn 0.4750 -0.2258 -0.8506
vn -0.2827 0.9586 -0.0334
vn -0.7520 -0.5436 0.3729
vn -0.0599 -0.9498 -0.3071
vn 0.0781 -0.9811 -0.1771
vn 0.0400 -0.9760 -0.2140
vn -0.6092 -0.7308 0.3080
vn -0.2372 0.9713 0.0154
vn 0.4658 -0.4510 -0.7613
vn 0.7281 -0.4409 -0.5249
vn -0.0308 0.9744 0.2226
vn -0.3701 -0.7279 0.5773
vn 0.1761 -0.9812 -0.0795
vn 0.6584 -0.5129 -0.5508
vn 0.1165 -0.9834 -0.1394
vn -0.3820 -0.7835 0.4900
vn -0.1164 0.9834 0.1393
vn -0.6591 -0.1897 0.7278
vn -0.7358 -0.1873 0.6508
vn 0.6987 0.1863 -0.6907
vn 0.7361 0.1848 -0.6512
vn 0.7006 0.1699 -0.6930
vn 0.6594 0.1873 -0.7281
vt 0.982600 0.074200
vt 0.907100 0.916400
vt 0.981800 0.920800
vt 0.896600 0.069800
vt 0.980800 0.920800
vt 0.896600 0.069800
vt 0.981300 0.074200
vt 0.907100 0.916400
vt 0.981300 0.983200
vt 0.982300 0.983200
vt 0.880800 0.007400
vt 0.981000 0.074200
vt 0.854500 0.916400
vt 0.982200 0.074200
vt 0.854500 0.916400
vt 0.982100 0.920800
vt 0.865000 0.069800
vt 0.981100 0.920800
vt 0.865000 0.069800
vt 0.880800 0.913900
vt 0.880800 0.070400
vt 0.880800 0.070200
vt 0.980700 0.007400
vt 0.907500 0.983200
vt 0.981900 0.007400
vt 0.907500 0.983200
vt 0.880800 0.983200
vt 0.894100 0.983200
vt 0.981000 0.007400
vt 0.854000 0.983200
vt 0.982200 0.007400
vt 0.854000 0.983200
vt 0.880800 0.983200
vt 0.880800 0.913900
vt 0.867400 0.983200
vt 0.894100 0.983200
vt 0.867400 0.983200
vt 0.013000 0.691100
vt 0.575300 0.691100
vt 0.026500 0.053100
vt 0.588800 0.053100
vt 0.084800 0.053600
vt 0.069900 0.691400
vt 0.141800 0.054100
vt 0.128300 0.691700
vt 0.218100 0.054200
vt 0.218300 0.691900
vt 0.294600 0.054100
vt 0.308100 0.691700
vt 0.351500 0.053600
vt 0.366500 0.691400
vt 0.423300 0.691100
vt 0.410000 0.053100
vt 0.499400 0.052900
vt 0.499300 0.691000
vt 0.099000 0.949700
vt 0.079700 0.931100
vt 0.121700 0.917900
vt 0.084900 0.904700
vt 0.111700 0.886100
vt 0.144300 0.886100
vt 0.163700 0.904700
vt 0.158400 0.931100
vt 0.131700 0.949700
vt 0.083700 0.007300
vt 0.083300 0.040800
vt 0.032100 0.040200
vt 0.594300 0.040200
vt 0.032500 0.006800
vt 0.594800 0.006800
vt 0.134400 0.041300
vt 0.134800 0.007800
vt 0.218100 0.041500
vt 0.218100 0.008000
vt 0.301500 0.007800
vt 0.301900 0.041300
vt 0.352700 0.007300
vt 0.353100 0.040700
vt 0.403900 0.006800
vt 0.404400 0.040200
vt 0.499400 0.040000
vt 0.499400 0.006500
vt 0.076200 0.981900
vt 0.011900 0.847300
vt 0.574200 0.847300
vt 0.037300 0.944400
vt 0.068500 0.847700
vt 0.047800 0.891400
vt 0.126900 0.848100
vt 0.101600 0.854000
vt 0.218300 0.848300
vt 0.167100 0.854000
vt 0.309600 0.848100
vt 0.206000 0.891400
vt 0.367900 0.847700
vt 0.195500 0.944400
vt 0.424400 0.847300
vt 0.141700 0.981900
vt 0.499200 0.847100
vt 0.072000 0.718700
vt 0.014700 0.718300
vt 0.577000 0.718300
vt 0.130400 0.719200
vt 0.218300 0.719400
vt 0.306100 0.719200
vt 0.364400 0.718700
vt 0.421600 0.718200
vt 0.499300 0.718100
vt 0.006100 0.747300
vt 0.568400 0.747300
vt 0.072500 0.748000
vt 0.141500 0.748700
vt 0.218200 0.749000
vt 0.294900 0.748700
vt 0.363900 0.748000
vt 0.430200 0.747300
vt 0.499300 0.747000
vt 0.072800 0.784700
vt 0.006300 0.783900
vt 0.568600 0.783900
vt 0.141700 0.785600
vt 0.218200 0.785900
vt 0.294700 0.785600
vt 0.363600 0.784700
vt 0.430000 0.783900
vt 0.499300 0.783600
vt 0.071400 0.821500
vt 0.005300 0.820800
vt 0.567600 0.820800
vt 0.140500 0.822200
vt 0.218300 0.822500
vt 0.295900 0.822200
vt 0.365000 0.821500
vt 0.431000 0.820800
vt 0.499300 0.820500
vt 0.932800 0.491700
vt 0.795600 0.491600
vt 0.776300 0.624500
vt 0.932600 0.624600
vt 0.932500 0.624400
vt 0.666300 0.624500
vt 0.932400 0.491300
vt 0.647000 0.491500
vt 0.803700 0.402600
vt 0.980300 0.582700
vt 0.798600 0.492600
vt 0.980300 0.492800
vt 0.849200 0.402600
vt 0.980000 0.582600
vt 0.980100 0.492700
vt 0.854200 0.492600
vt 0.786300 0.123600
vt 0.811500 0.007400
vt 0.978100 0.977900
vt 0.743100 0.144900
vt 0.934800 0.982700
vt 0.685100 0.982900
vt 0.743100 0.072500
vt 0.934700 0.982900
vt 0.757500 0.982900
vt 0.786300 0.093700
vt 0.977700 0.977800
vt 0.841400 0.007400
vt 0.743100 0.072500
vt 0.685200 0.007400
vt 0.934900 0.007500
vt 0.786300 0.093700
vt 0.978200 0.012600
vt 0.811600 0.973000
vt 0.786300 0.123600
vt 0.977800 0.012200
vt 0.841600 0.973000
vt 0.743100 0.144900
vt 0.934800 0.007400
vt 0.757600 0.007400
vt 0.966800 0.934500
vt 0.834100 0.050600
vt 0.945300 0.939000
vt 0.739300 0.939100
vt 0.745400 0.687600
vt 0.943500 0.687600
vt 0.836600 0.297000
vt 0.968600 0.688100
vt 0.816800 0.297000
vt 0.969000 0.688300
vt 0.819100 0.050600
vt 0.967300 0.934600
vt 0.943800 0.687600
vt 0.697500 0.687600
vt 0.945700 0.939100
vt 0.703300 0.939100
vt 0.968700 0.275200
vt 0.836800 0.709900
vt 0.943400 0.275200
vt 0.745700 0.275200
vt 0.945400 0.051000
vt 0.739400 0.051000
vt 0.966800 0.055400
vt 0.834200 0.929600
vt 0.703400 0.051000
vt 0.945800 0.051300
vt 0.697300 0.275200
vt 0.943700 0.275400
vt 0.969200 0.275600
vt 0.816700 0.709900
vt 0.967300 0.055900
vt 0.819300 0.929600
vt 0.980000 0.407800
vt 0.849200 0.577400
vt 0.932700 0.366100
vt 0.776300 0.366000
vt 0.932500 0.366000
vt 0.666400 0.366000
vt 0.803700 0.577400
vt 0.980300 0.407900
s 0
usemtl M_Sword
f 1/1/1 2/3/2 3/5/2 4/7/1
f 3/5/3 2/3/3 5/9/3
f 6/12/4 7/14/4 8/16/5 9/18/5
f 10/20/6 11/21/7 2/4/8 1/2/9
f 5/11/10 12/22/11 3/6/12
f 6/13/13 9/19/14 11/21/7 10/20/6
f 5/10/15 9/18/15 8/16/15
f 8/17/16 12/22/11 5/11/10
f 1/1/1 4/7/1 13/23/17 14/25/17
f 15/27/18 10/20/6 16/28/19
f 7/14/20 6/12/20 17/29/21 18/31/21
f 19/33/22 20/34/23 21/35/24
f 1/2/9 14/26/25 16/28/19 10/20/6
f 13/24/26 4/8/27 20/34/23 22/36/28
f 18/32/29 21/35/24 20/34/23 7/15/30
f 17/30/31 6/13/13 10/20/6 23/37/32
f 10/20/6 15/27/18 23/37/32
f 19/33/22 22/36/28 20/34/23
f 24/38/33 25/40/34 26/42/34 27/43/35
f 28/44/36 29/45/37 27/43/38 26/42/36
f 30/46/39 31/47/40 29/45/41 28/44/39
f 30/46/42 32/48/42 33/49/43 31/47/44
f 32/48/45 34/50/45 35/51/46 33/49/47
f 36/52/48 35/51/49 34/50/50 37/53/50
f 36/52/51 37/53/52 38/54/52 39/55/53
f 38/54/54 25/41/54 24/39/55 39/55/56
f 40/56/57 41/57/58 42/58/59
f 41/57/58 43/59/60 42/58/59
f 43/59/60 44/60/61 42/58/59
f 44/60/61 45/61/62 42/58/59
f 45/61/62 46/62/63 42/58/59
f 46/62/63 47/63/64 42/58/59
f 47/63/64 48/64/65 42/58/59
f 48/64/65 40/56/57 42/58/59
f 49/65/66 50/66/66 51/67/66 52/69/66
f 53/71/67 50/66/67 49/65/67 54/72/67
f 55/73/68 53/71/68 54/72/68 56/74/68
f 56/74/69 57/75/69 58/76/69 55/73/69
f 57/75/70 59/77/70 60/78/70 58/76/70
f 59/77/71 61/79/71 62/80/71 60/78/71
f 63/81/72 62/80/72 61/79/72 64/82/72
f 64/82/73 52/70/73 51/68/73 63/81/73
f 50/66/74 26/42/74 25/40/75 51/67/76
f 53/71/77 28/44/78 26/42/74 50/66/74
f 53/71/77 55/73/79 30/46/79 28/44/78
f 58/76/80 32/48/81 30/46/79 55/73/79
f 58/76/80 60/78/82 34/50/82 32/48/81
f 62/80/83 37/53/84 34/50/82 60/78/82
f 38/54/85 37/53/84 62/80/86 63/81/85
f 51/68/76 25/41/75 38/54/85 63/81/85
f 65/83/87 66/86/88 41/57/89 40/56/89
f 41/57/90 66/86/91 67/88/92 43/59/90
f 44/60/93 43/59/93 67/88/94 68/90/95
f 45/61/96 44/60/96 68/90/97 69/92/98
f 46/62/99 45/61/99 69/92/100 70/94/101
f 71/96/102 47/63/103 46/62/103 70/94/104
f 47/63/105 71/96/106 72/98/107 48/64/105
f 48/64/108 72/98/109 65/83/110 40/56/108
f 24/38/111 27/43/35 73/100/112 74/101/113
f 29/45/37 75/103/114 73/100/115 27/43/38
f 29/45/41 31/47/40 76/104/116 75/103/117
f 33/49/43 77/105/118 76/104/119 31/47/120
f 35/51/46 78/106/121 77/105/122 33/49/123
f 78/106/124 35/51/49 36/52/48 79/107/125
f 79/107/126 36/52/51 39/55/53 80/108/127
f 80/108/128 39/55/56 24/39/55 74/102/129
f 81/109/130 74/101/113 73/100/112 82/111/131
f 82/111/132 73/100/115 75/103/114 83/112/133
f 76/104/116 84/113/134 83/112/135 75/103/117
f 84/113/136 76/104/119 77/105/118 85/114/137
f 78/106/121 86/115/138 85/114/139 77/105/122
f 79/107/125 87/116/140 86/115/141 78/106/124
f 80/108/127 88/117/142 87/116/143 79/107/126
f 81/110/144 88/117/145 80/108/128 74/102/129
f 82/111/131 89/118/146 90/119/146 81/109/130
f 82/111/132 83/112/133 91/121/147 89/118/147
f 83/112/135 84/113/134 92/122/148 91/121/148
f 85/114/137 93/123/149 92/122/149 84/113/136
f 94/124/150 93/123/150 85/114/139 86/115/138
f 87/116/140 95/125/151 94/124/151 86/115/141
f 95/125/152 87/116/143 88/117/142 96/126/152
f 96/126/153 88/117/145 81/110/144 90/120/153
f 90/119/146 89/118/146 97/127/154 98/128/155
f 97/127/156 89/118/147 91/121/147 99/130/157
f 92/122/148 100/131/158 99/130/159 91/121/148
f 93/123/149 101/132/160 100/131/161 92/122/149
f 94/124/150 102/133/162 101/132/163 93/123/150
f 103/134/164 102/133/165 94/124/151 95/125/151
f 95/125/152 96/126/152 104/135/166 103/134/167
f 98/129/168 104/135/169 96/126/153 90/120/153
f 65/84/87 98/128/155 97/127/154 66/87/88
f 97/127/156 99/130/157 67/89/92 66/87/91
f 67/89/94 99/130/159 100/131/158 68/91/95
f 101/132/160 69/93/98 68/91/97 100/131/161
f 69/93/100 101/132/163 102/133/162 70/95/101
f 103/134/164 71/97/102 70/95/104 102/133/165
f 103/134/167 104/135/166 72/99/107 71/97/106
f 72/99/170 104/135/169 98/129/168 65/85/110
f 105/137/171 106/138/171 107/141/171 108/143/171
f 109/145/172 110/147/173 108/142/174 107/140/172
f 109/144/175 111/148/175 112/151/175 110/146/175
f 105/136/176 112/150/177 111/149/178 106/139/178
f 113/152/179 114/155/179 115/158/179 116/161/179
f 117/164/180 118/167/180 119/170/180 120/173/180
f 121/176/181 122/178/181 123/181/182 124/183/183
f 124/182/184 125/184/185 126/186/186 121/177/186
f 125/185/187 127/188/188 128/190/189 126/187/189
f 128/191/190 127/189/191 123/180/192 122/179/190
f 129/192/193 130/194/194 131/196/195 132/198/195
f 133/200/196 131/197/196 130/195/197 134/202/198
f 135/204/199 136/206/200 133/201/200 134/203/201
f 132/199/202 136/207/202 135/205/203 129/193/204
f 115/159/205 122/178/205 121/176/205 116/162/205
f 121/177/206 126/186/206 113/153/206 116/163/206
f 128/190/207 114/156/207 113/154/207 126/187/207
f 115/160/208 114/157/208 128/191/208 122/179/208
f 131/196/209 120/174/209 119/171/209 132/198/209
f 133/200/210 117/165/210 120/175/210 131/197/210
f 136/206/211 118/168/211 117/166/211 133/201/211
f 136/207/212 132/199/212 119/172/212 118/169/212
f 125/184/213 124/182/184 111/148/214 109/144/214
f 125/185/187 109/145/215 107/140/215 127/188/188
f 107/141/216 106/138/216 123/180/192 127/189/191
f 124/183/183 123/181/182 106/139/217 111/149/217
f 130/194/194 129/192/193 137/208/218 138/210/218
f 138/211/219 139/213/219 134/202/198 130/195/197
f 139/212/220 140/215/220 135/204/199 134/203/201
f 137/209/221 129/193/203 135/205/203 140/214/221
f 137/208/222 112/150/177 105/136/176 138/210/222
f 137/209/223 140/214/223 110/146/223 112/151/223
f 139/212/224 108/142/174 110/147/173 140/215/224
f 138/211/225 105/137/225 108/143/225 139/213/225
f 12/22/11 8/17/226 7/15/30 20/34/23
f 3/6/227 12/22/11 20/34/23 4/8/27
f 11/21/228 9/19/229 5/11/230
f 2/4/231 11/21/7 5/11/230
