# Blender v3.3.0 OBJ File: 'clip_template.blend'
# www.blender.org
mtllib clip_main.mtl
g clipboard_board_Cube
v 0.107556 -0.000611 0.256248
v 0.107856 -0.000611 0.255948
v -0.105101 0.004609 -0.049060
v -0.106230 0.004309 -0.050489
v 0.107856 -0.000611 -0.050189
v 0.107556 -0.000611 -0.050489
v -0.106230 -0.000611 -0.050489
v -0.106530 -0.000611 -0.050189
v -0.106230 -0.000611 0.256248
v -0.106530 -0.000611 0.255948
v 0.106427 0.004609 0.254819
v 0.107556 0.004309 0.256248
v 0.106427 0.004609 -0.049060
v 0.107856 0.004309 -0.050189
v -0.105101 0.004609 0.254819
v -0.106530 0.004309 0.255948
v -0.106530 0.004309 -0.050189
v -0.106230 0.004309 0.256248
v 0.107856 0.004309 0.255948
v 0.107556 0.004309 -0.050489
v 0.007439 0.004405 -0.054656
v -0.018309 0.004405 -0.054656
v -0.028499 -0.005936 -0.071519
v -0.028025 0.008845 -0.071578
v 0.007439 -0.007032 -0.024039
v 0.007439 0.009826 -0.024039
v 0.007439 -0.007032 -0.072614
v 0.007439 0.009826 -0.072614
v -0.018309 -0.007032 -0.072614
v -0.019345 0.008845 -0.071578
v -0.018309 -0.007032 -0.024039
v -0.018309 0.009826 -0.024039
v -0.028499 -0.005936 -0.057225
v -0.028025 0.008845 -0.057165
v 0.007439 -0.007032 -0.056129
v 0.007439 0.009826 -0.056129
v -0.019345 0.008845 -0.057165
v -0.019313 -0.006028 -0.056756
v 0.007439 -0.000220 -0.054656
v -0.018309 -0.000220 -0.054656
v -0.028499 0.008730 -0.057225
v -0.028499 0.008730 -0.071519
v -0.018309 0.009826 -0.072614
v -0.019313 0.008822 -0.056756
v -0.028056 0.008822 -0.056756
v -0.029061 0.009826 -0.072614
v -0.029061 -0.007032 -0.072614
v -0.028056 -0.006028 -0.056756
v -0.018309 0.009826 -0.056129
v -0.018309 -0.007032 -0.056129
v -0.029061 -0.007032 -0.056129
v -0.029061 0.009826 -0.056129
v -0.007439 0.004405 -0.054656
v 0.018309 0.004405 -0.054656
v 0.028499 -0.005936 -0.071519
v 0.028025 0.008845 -0.071578
v -0.007439 -0.007032 -0.024039
v -0.007439 0.009826 -0.024039
v -0.007439 -0.007032 -0.072614
v -0.007439 0.009826 -0.072614
v 0.018309 -0.007032 -0.072614
v 0.019345 0.008845 -0.071578
v 0.018309 -0.007032 -0.024039
v 0.018309 0.009826 -0.024039
v 0.028499 -0.005936 -0.057225
v 0.028025 0.008845 -0.057165
v -0.007439 -0.007032 -0.056129
v -0.007439 0.009826 -0.056129
v 0.019345 0.008845 -0.057165
v 0.019313 -0.006028 -0.056756
v -0.007439 -0.000220 -0.054656
v 0.018309 -0.000220 -0.054656
v 0.028499 0.008730 -0.057225
v 0.028499 0.008730 -0.071519
v 0.018309 0.009826 -0.072614
v 0.019313 0.008822 -0.056756
v 0.028056 0.008822 -0.056756
v 0.029061 0.009826 -0.072614
v 0.029061 -0.007032 -0.072614
v 0.028056 -0.006028 -0.056756
v 0.018309 0.009826 -0.056129
v 0.018309 -0.007032 -0.056129
v 0.029061 -0.007032 -0.056129
v 0.029061 0.009826 -0.056129
v -0.105806 0.004609 -0.050489
v -0.106530 0.004609 -0.049765
v 0.107132 0.004609 -0.050489
v 0.107132 0.004609 0.256248
v -0.105806 0.004609 0.256248
v 0.107856 0.004609 0.255523
v 0.107856 0.004609 -0.049765
v -0.106530 0.004609 0.255523
vt 0.625845 0.500000
vt 0.625000 0.500590
vt 0.610633 0.500244
vt 0.610633 0.499650
vt 0.625000 0.749410
vt 0.625845 0.750000
vt 0.610633 0.750350
vt 0.610633 0.749756
vt 0.375000 0.500244
vt 0.375000 0.749756
vt 0.125000 0.500244
vt 0.125350 0.500000
vt 0.374650 0.500000
vt 0.374650 0.750000
vt 0.125350 0.750000
vt 0.125000 0.749756
vt 0.375000 0.750350
vt 0.625000 0.750845
vt 0.625000 0.999155
vt 0.610633 0.999650
vt 0.375000 0.999650
vt 0.375000 0.000245
vt 0.610633 0.000245
vt 0.625000 0.000590
vt 0.625000 0.249410
vt 0.610633 0.249755
vt 0.375000 0.249755
vt 0.625000 0.249755
vt 0.625000 0.250350
vt 0.610633 0.250350
vt 0.625000 0.000000
vt 0.625000 0.000245
vt 0.610633 0.000000
vt 0.375000 0.250350
vt 0.625000 0.250845
vt 0.625000 0.499155
vt 0.375000 0.499650
vt 0.375000 0.000000
vt 0.873427 0.501230
vt 0.874155 0.500000
vt 0.875000 0.500590
vt 0.626573 0.501230
vt 0.626574 0.748771
vt 0.873426 0.748771
vt 0.874155 0.750000
vt 0.626760 0.501099
vt 0.626760 0.748901
vt 0.873240 0.748901
vt 0.873240 0.501099
vt 0.875000 0.749410
vt 0.375000 0.625000
vt 0.625000 0.625000
vt 0.625000 0.750000
vt 0.500000 0.750000
vt 0.437500 0.750000
vt 0.375000 0.750000
vt 0.250000 0.625000
vt 0.250000 0.750000
vt 0.500000 0.875000
vt 0.437500 0.875000
vt 0.750000 0.625000
vt 0.750000 0.750000
vt 0.000000 0.000000
vt 0.000000 0.000000
vt 0.000000 0.000000
vt 0.000000 0.000000
vt 0.625000 0.875000
vt 0.000000 0.000000
vt 0.000000 0.000000
vt 0.000000 0.000000
vt 0.000000 0.000000
vt 0.375000 0.875000
vt 0.375000 0.625000
vt 0.375000 0.750000
vt 0.437500 0.750000
vt 0.500000 0.750000
vt 0.625000 0.750000
vt 0.625000 0.625000
vt 0.250000 0.625000
vt 0.250000 0.750000
vt 0.437500 0.875000
vt 0.500000 0.875000
vt 0.750000 0.750000
vt 0.750000 0.625000
vt 0.000000 0.000000
vt 0.000000 0.000000
vt 0.000000 0.000000
vt 0.000000 0.000000
vt 0.625000 0.875000
vt 0.000000 0.000000
vt 0.000000 0.000000
vt 0.000000 0.000000
vt 0.000000 0.000000
vt 0.375000 0.875000
vt 0.391246 0.133307
vt 0.608754 0.133307
vt 0.608754 0.241693
vt 0.391246 0.241693
vt 0.375000 0.375000
vt 0.625000 0.375000
vt 0.625000 0.500000
vt 0.375000 0.500000
vt 0.000000 0.000000
vt 0.000000 0.000000
vt 0.000000 0.000000
vt 0.000000 0.000000
vt 0.375000 0.250000
vt 0.625000 0.250000
vt 0.125000 0.500000
vt 0.250000 0.500000
vt 0.125000 0.625000
vt 0.750000 0.500000
vt 0.762044 0.507855
vt 0.862956 0.507855
vt 0.862956 0.617145
vt 0.762044 0.617145
vt 0.875000 0.500000
vt 0.875000 0.625000
vt 0.625000 0.125000
vt 0.375000 0.125000
vt 0.000000 0.000000
vt 0.000000 0.000000
vt 0.391246 0.133307
vt 0.391246 0.241693
vt 0.608754 0.241693
vt 0.608754 0.133307
vt 0.375000 0.375000
vt 0.375000 0.500000
vt 0.625000 0.500000
vt 0.625000 0.375000
vt 0.000000 0.000000
vt 0.000000 0.000000
vt 0.000000 0.000000
vt 0.000000 0.000000
vt 0.375000 0.250000
vt 0.625000 0.250000
vt 0.125000 0.500000
vt 0.125000 0.625000
vt 0.250000 0.500000
vt 0.750000 0.500000
vt 0.762044 0.507855
vt 0.762044 0.617145
vt 0.862956 0.617145
vt 0.862956 0.507855
vt 0.875000 0.625000
vt 0.875000 0.500000
vt 0.625000 0.125000
vt 0.375000 0.125000
vt 0.000000 0.000000
vt 0.000000 0.000000
vt 0.995838 1.000308
vt 0.003595 1.000308
vt 0.003597 0.000308
vt 0.995836 0.000308
vn 0.5002 0.7069 -0.5002
vn 0.5001 0.7073 0.4996
vn 1.0000 -0.0000 0.0000
vn 0.0000 -1.0000 -0.0000
vn 0.0000 0.0000 1.0000
vn -1.0000 -0.0000 0.0000
vn -0.5002 0.7069 -0.5002
vn -0.5001 0.7073 0.4996
vn -0.5000 0.7072 0.4999
vn -0.7071 0.0000 -0.7071
vn 0.0000 0.0000 -1.0000
vn -0.7071 0.0000 0.7071
vn 0.7071 0.0000 0.7071
vn 0.7071 0.0000 -0.7071
vn -0.0000 1.0000 0.0000
vn 0.0000 -0.9847 0.1743
vn 0.0000 0.9761 0.2172
vn 0.6871 0.7266 0.0000
vn -0.0000 0.7266 0.6871
vn -0.6876 0.7261 0.0000
vn 0.0000 0.7264 -0.6872
vn -0.8898 -0.4563 -0.0000
vn -0.8897 0.0000 0.4566
vn -0.8898 0.4563 0.0000
vn -0.8898 0.0000 -0.4563
vn -0.5297 0.0000 0.8482
vn 0.0000 0.5297 0.8482
vn 0.0000 -0.5297 0.8482
vn 0.5293 0.0000 0.8484
vn -0.6871 0.7266 0.0000
vn 0.6876 0.7261 0.0000
vn 0.8898 -0.4563 -0.0000
vn 0.8897 0.0000 0.4566
vn 0.8901 0.4559 0.0000
vn 0.8900 0.4560 0.0000
vn 0.8898 0.0000 -0.4563
vn 0.5297 0.0000 0.8482
vn -0.5293 0.0000 0.8484
usemtl myBase
s off
f 87/1/1 91/2/1 14/3/1 20/4/1
f 90/5/2 88/6/2 12/7/2 19/8/2
f 5/9/3 14/3/3 91/2/3 90/5/3 19/8/3 2/10/3
f 8/11/4 7/12/4 6/13/4 5/9/4 2/10/4 1/14/4 9/15/4 10/16/4
f 1/17/5 12/7/5 88/18/5 89/19/5 18/20/5 9/21/5
f 10/22/6 16/23/6 92/24/6 86/25/6 17/26/6 8/27/6
f 86/28/7 85/29/7 4/30/7 17/26/7
f 89/31/8 92/32/8 16/23/9 18/33/9
f 4/30/10 7/34/10 8/27/10 17/26/10
f 7/34/11 4/30/11 85/35/11 87/36/11 20/4/11 6/37/11
f 9/38/12 18/33/12 16/23/12 10/22/12
f 12/7/13 1/17/13 2/10/13 19/8/13
f 14/3/14 5/9/14 6/37/14 20/4/14
f 3/39/15 85/40/15 86/41/15
f 3/39/15 13/42/15 87/1/15 85/40/15
f 11/43/15 15/44/15 89/45/15 88/6/15
f 11/43/15 88/6/15 90/5/15
f 13/46/15 11/47/15 90/5/15 91/2/15
f 13/46/15 91/2/15 87/1/15
f 15/48/15 3/49/15 86/41/15 92/50/15
f 15/48/15 92/50/15 89/45/15
usemtl myMetal
f 35/51/3 36/52/3 26/53/3 21/54/3 39/55/3 25/56/3
f 50/57/4 35/51/4 25/56/4 31/58/4
f 39/55/5 21/54/5 22/59/5 40/60/5
f 36/52/15 49/61/15 32/62/15 26/53/15
f 49/63/5 50/64/5 35/65/5 36/66/5
f 21/54/16 26/53/16 32/67/16 22/59/16
f 49/63/6 50/64/6 31/68/6 40/69/6 22/70/6 32/71/6
f 25/56/17 39/55/17 40/60/17 31/72/17
f 67/73/6 57/74/6 71/75/6 53/76/6 58/77/6 68/78/6
f 82/79/4 63/80/4 57/74/4 67/73/4
f 71/75/5 72/81/5 54/82/5 53/76/5
f 68/78/15 58/77/15 64/83/15 81/84/15
f 81/85/5 68/86/5 67/87/5 82/88/5
f 53/76/16 54/82/16 64/89/16 58/77/16
f 81/85/3 64/90/3 54/91/3 72/92/3 63/93/3 82/88/3
f 57/74/17 63/94/17 72/81/17 71/75/17
usemtl myHook
f 33/95/6 41/96/6 42/97/6 23/98/6
f 29/99/11 43/100/11 28/101/11 27/102/11
f 38/103/5 44/104/5 45/105/5 48/106/5
f 47/107/11 46/108/11 43/100/11 29/99/11
f 47/109/4 29/110/4 50/57/4 51/111/4
f 28/101/15 43/112/15 49/61/15 36/52/15
f 30/113/15 24/114/15 34/115/15 37/116/15
f 29/110/4 27/102/4 35/51/4 50/57/4
f 27/102/3 28/101/3 36/52/3 35/51/3
f 34/115/18 24/114/18 46/117/18 52/118/18
f 24/114/19 30/113/19 43/112/19 46/117/19
f 30/113/20 37/116/20 49/61/20 43/112/20
f 37/116/21 34/115/21 52/118/21 49/61/21
f 42/97/22 41/96/22 52/119/22 46/108/22
f 23/98/23 42/97/23 46/108/23 47/107/23
f 33/95/24 23/98/24 47/107/24 51/120/24
f 41/96/25 33/95/25 51/120/25 52/119/25
f 44/104/26 38/103/26 50/64/26 49/63/26
f 38/103/27 48/106/27 51/121/27 50/64/27
f 45/105/28 44/104/28 49/63/28 52/122/28
f 48/106/29 45/105/29 52/122/29 51/121/29
f 65/123/3 55/124/3 74/125/3 73/126/3
f 61/127/11 59/128/11 60/129/11 75/130/11
f 70/131/5 80/132/5 77/133/5 76/134/5
f 79/135/11 61/127/11 75/130/11 78/136/11
f 79/137/4 83/138/4 82/79/4 61/139/4
f 60/129/15 68/78/15 81/84/15 75/140/15
f 62/141/15 69/142/15 66/143/15 56/144/15
f 61/139/4 82/79/4 67/73/4 59/128/4
f 59/128/6 67/73/6 68/78/6 60/129/6
f 66/143/30 84/145/30 78/146/30 56/144/30
f 56/144/19 78/146/19 75/140/19 62/141/19
f 62/141/31 75/140/31 81/84/31 69/142/31
f 69/142/21 81/84/21 84/145/21 66/143/21
f 74/125/32 78/136/32 84/147/32 73/126/32
f 55/124/33 79/135/33 78/136/33 74/125/33
f 65/123/34 83/148/35 79/135/35 55/124/35
f 73/126/36 84/147/36 83/148/36 65/123/36
f 76/134/37 81/85/37 82/88/37 70/131/37
f 70/131/27 82/88/27 83/149/27 80/132/27
f 77/133/28 84/150/28 81/85/28 76/134/28
f 80/132/38 83/149/38 84/150/38 77/133/38
usemtl myPic
f 13/151/15 3/152/15 15/153/15 11/154/15
