# Blender 3.6.0
# www.blender.org
mtllib left_arrow.mtl
o left_arrow
v -1.050000 -0.040354 0.191119
v -1.050000 0.040354 0.191119
v -1.050000 -0.040354 -0.191119
v -1.050000 0.040354 -0.191119
v -1.432239 0.040354 0.000000
v -1.432239 -0.040354 -0.000001
vn 1.0000 -0.0000 -0.0000
vn -0.0000 -1.0000 -0.0000
vn -0.0000 1.0000 -0.0000
vn -0.4472 -0.0000 -0.8944
vn -0.4472 -0.0000 0.8944
vt 0.375000 0.500000
vt 0.625000 0.500000
vt 0.625000 0.750000
vt 0.375000 0.750000
vt 0.125000 0.625000
vt 0.875000 0.625000
vt 0.625000 0.125000
s 0
usemtl buttonOff
f 3/1/1 4/2/1 2/3/1 1/4/1
f 1/4/2 6/5/2 3/1/2
f 4/2/3 5/6/3 2/3/3
f 3/1/4 6/5/4 5/7/4 4/2/4
f 2/3/5 5/7/5 6/5/5 1/4/5
