# Blender 3.3.0
# www.blender.org
mtllib clip_eagle_with_button.mtl
o clip_eagle_with_button
v -0.043970 0.004609 0.070450
v -0.045702 0.008247 0.068718
v -0.089087 0.004609 0.070450
v -0.087355 0.008247 0.068718
v -0.043970 0.004609 0.010119
v -0.045702 0.008247 0.011851
v -0.089087 0.004609 0.010119
v -0.087355 0.008247 0.011851
v -0.043970 0.007264 0.070450
v -0.089087 0.007264 0.070450
v -0.089087 0.007264 0.010119
v -0.043970 0.007264 0.010119
v 0.107556 -0.000611 0.256248
v 0.107856 -0.000611 0.255948
v -0.105101 0.004609 -0.049060
v -0.106230 0.004309 -0.050489
v 0.107856 -0.000611 -0.050189
v 0.107556 -0.000611 -0.050489
v -0.106230 -0.000611 -0.050489
v -0.106530 -0.000611 -0.050189
v -0.106230 -0.000611 0.256248
v -0.106530 -0.000611 0.255948
v 0.106427 0.004609 0.254819
v 0.107556 0.004309 0.256248
v 0.106427 0.004609 -0.049060
v 0.107856 0.004309 -0.050189
v -0.105101 0.004609 0.254819
v -0.106530 0.004309 0.255948
v -0.106530 0.004309 -0.050189
v -0.106230 0.004309 0.256248
v 0.107856 0.004309 0.255948
v 0.107556 0.004309 -0.050489
v 0.007439 0.004405 -0.054656
v -0.018309 0.004405 -0.054656
v -0.028499 -0.005936 -0.071519
v -0.028025 0.008845 -0.071578
v 0.007439 -0.007032 -0.024039
v 0.007439 0.009826 -0.024039
v 0.007439 -0.007032 -0.072614
v 0.007439 0.009826 -0.072614
v -0.018309 -0.007032 -0.072614
v -0.019345 0.008845 -0.071578
v -0.018309 -0.007032 -0.024039
v -0.018309 0.009826 -0.024039
v -0.028499 -0.005936 -0.057225
v -0.028025 0.008845 -0.057165
v 0.007439 -0.007032 -0.056129
v 0.007439 0.009826 -0.056129
v -0.019345 0.008845 -0.057165
v -0.019313 -0.006028 -0.056756
v 0.007439 -0.000220 -0.054656
v -0.018309 -0.000220 -0.054656
v -0.028499 0.008730 -0.057225
v -0.028499 0.008730 -0.071519
v -0.018309 0.009826 -0.072614
v -0.019313 0.008822 -0.056756
v -0.028056 0.008822 -0.056756
v -0.029061 0.009826 -0.072614
v -0.029061 -0.007032 -0.072614
v -0.028056 -0.006028 -0.056756
v -0.018309 0.009826 -0.056129
v -0.018309 -0.007032 -0.056129
v -0.029061 -0.007032 -0.056129
v -0.029061 0.009826 -0.056129
v -0.007439 0.004405 -0.054656
v 0.018309 0.004405 -0.054656
v 0.028499 -0.005936 -0.071519
v 0.028025 0.008845 -0.071578
v -0.007439 -0.007032 -0.024039
v -0.007439 0.009826 -0.024039
v -0.007439 -0.007032 -0.072614
v -0.007439 0.009826 -0.072614
v 0.018309 -0.007032 -0.072614
v 0.019345 0.008845 -0.071578
v 0.018309 -0.007032 -0.024039
v 0.018309 0.009826 -0.024039
v 0.028499 -0.005936 -0.057225
v 0.028025 0.008845 -0.057165
v -0.007439 -0.007032 -0.056129
v -0.007439 0.009826 -0.056129
v 0.019345 0.008845 -0.057165
v 0.019313 -0.006028 -0.056756
v -0.007439 -0.000220 -0.054656
v 0.018309 -0.000220 -0.054656
v 0.028499 0.008730 -0.057225
v 0.028499 0.008730 -0.071519
v 0.018309 0.009826 -0.072614
v 0.019313 0.008822 -0.056756
v 0.028056 0.008822 -0.056756
v 0.029061 0.009826 -0.072614
v 0.029061 -0.007032 -0.072614
v 0.028056 -0.006028 -0.056756
v 0.018309 0.009826 -0.056129
v 0.018309 -0.007032 -0.056129
v 0.029061 -0.007032 -0.056129
v 0.029061 0.009826 -0.056129
v -0.105806 0.004609 -0.050489
v -0.106530 0.004609 -0.049765
v 0.107132 0.004609 -0.050489
v 0.107132 0.004609 0.256248
v -0.105806 0.004609 0.256248
v 0.107856 0.004609 0.255523
v 0.107856 0.004609 -0.049765
v -0.106530 0.004609 0.255523
vn -0.0000 -0.0000 1.0000
vn -1.0000 -0.0000 -0.0000
vn -0.0000 -0.0000 -1.0000
vn 1.0000 -0.0000 -0.0000
vn -0.0000 -1.0000 -0.0000
vn -0.0000 1.0000 -0.0000
vn -0.0000 0.8698 0.4935
vn -0.4935 0.8698 -0.0000
vn -0.0000 0.8698 -0.4935
vn 0.4935 0.8698 -0.0000
vn 0.5002 0.7069 -0.5002
vn 0.5001 0.7073 0.4996
vn -0.5002 0.7069 -0.5002
vn -0.5001 0.7073 0.4996
vn -0.7071 -0.0000 -0.7071
vn -0.7071 -0.0000 0.7071
vn 0.7071 -0.0000 0.7071
vn 0.7071 -0.0000 -0.7071
vn -0.0000 -0.9847 0.1743
vn -0.0000 0.9761 0.2172
vn 0.6876 0.7261 -0.0000
vn -0.0000 0.7261 0.6876
vn -0.6876 0.7261 -0.0000
vn -0.0000 0.7261 -0.6876
vn -0.8898 -0.4563 -0.0000
vn -0.8897 -0.0000 0.4566
vn -0.8898 0.4563 -0.0000
vn -0.8898 -0.0000 -0.4563
vn -0.5297 -0.0000 0.8482
vn -0.0000 0.5297 0.8482
vn -0.0000 -0.5297 0.8482
vn 0.5293 -0.0000 0.8484
vn 0.8898 -0.4563 -0.0000
vn 0.8897 -0.0000 0.4566
vn 0.8898 0.4563 -0.0000
vn 0.8898 -0.0000 -0.4563
vn 0.5297 -0.0000 0.8482
vn -0.5293 -0.0000 0.8484
vt 0.375000 0.000000
vt 0.375000 1.000000
vt 0.125000 0.750000
vt 0.915574 0.000000
vt 0.867823 0.740402
vt 0.375000 0.250000
vt 0.125000 0.500000
vt 0.000000 0.000000
vt 0.867823 0.509598
vt 0.375000 0.750000
vt 0.915574 1.000000
vt 0.632177 0.740402
vt 0.375000 0.500000
vt 0.000000 1.000000
vt 0.632177 0.509598
vt 0.625000 0.000000
vt 0.625000 1.000000
vt 0.875000 0.750000
vt 0.625000 0.250000
vt 0.875000 0.500000
vt 0.625000 0.500000
vt 0.625000 0.750000
vt 0.374650 0.750000
vt 0.375000 0.750350
vt 0.375000 0.749756
vt 0.873427 0.501230
vt 0.873240 0.501099
vt 0.025400 0.989180
vt 0.610633 0.250350
vt 0.375000 0.500244
vt 0.374650 0.500000
vt 0.375000 0.499650
vt 0.125350 0.500000
vt 0.375000 0.250350
vt 0.125000 0.500244
vt 0.375000 0.249755
vt 0.125350 0.750000
vt 0.375000 0.999650
vt 0.375000 0.000000
vt 0.125000 0.749756
vt 0.375000 0.000245
vt 0.626574 0.748771
vt 0.626760 0.748901
vt 0.754114 0.151689
vt 0.610633 0.750350
vt 0.626573 0.501230
vt 0.626760 0.501099
vt 0.754114 0.989180
vt 0.610633 0.500244
vt 0.873426 0.748771
vt 0.873240 0.748901
vt 0.025400 0.151689
vt 0.610633 0.000245
vt 0.610633 0.249755
vt 0.610633 0.999650
vt 0.610633 0.000000
vt 0.610633 0.749756
vt 0.610633 0.499650
vt 0.500000 0.750000
vt 0.500000 0.875000
vt 0.000000 0.000000
vt 0.391246 0.241693
vt 0.862956 0.507855
vt 0.375000 0.750000
vt 0.625000 0.750000
vt 0.375000 0.500000
vt 0.625000 0.500000
vt 0.375000 0.375000
vt 0.250000 0.500000
vt 0.762044 0.507855
vt 0.250000 0.750000
vt 0.000000 0.000000
vt 0.375000 0.875000
vt 0.750000 0.750000
vt 0.625000 0.875000
vt 0.000000 0.000000
vt 0.391246 0.133307
vt 0.862956 0.617145
vt 0.000000 0.000000
vt 0.375000 0.625000
vt 0.000000 0.000000
vt 0.625000 0.625000
vt 0.762044 0.617145
vt 0.000000 0.000000
vt 0.437500 0.750000
vt 0.000000 0.000000
vt 0.437500 0.875000
vt 0.608754 0.133307
vt 0.608754 0.241693
vt 0.625000 0.375000
vt 0.750000 0.500000
vt 0.000000 0.000000
vt 0.000000 0.000000
vt 0.875000 0.500000
vt 0.625000 0.250000
vt 0.125000 0.500000
vt 0.375000 0.250000
vt 0.000000 0.000000
vt 0.750000 0.625000
vt 0.000000 0.000000
vt 0.250000 0.625000
vt 0.000000 0.000000
vt 0.125000 0.625000
vt 0.375000 0.125000
vt 0.000000 0.000000
vt 0.875000 0.625000
vt 0.625000 0.125000
vt 0.000000 0.000000
vt 0.500000 0.750000
vt 0.500000 0.875000
vt 0.000000 0.000000
vt 0.391246 0.241693
vt 0.862956 0.507855
vt 0.375000 0.750000
vt 0.625000 0.750000
vt 0.375000 0.500000
vt 0.625000 0.500000
vt 0.375000 0.375000
vt 0.250000 0.500000
vt 0.762044 0.507855
vt 0.250000 0.750000
vt 0.000000 0.000000
vt 0.375000 0.875000
vt 0.750000 0.750000
vt 0.625000 0.875000
vt 0.000000 0.000000
vt 0.391246 0.133307
vt 0.862956 0.617145
vt 0.000000 0.000000
vt 0.375000 0.625000
vt 0.000000 0.000000
vt 0.625000 0.625000
vt 0.762044 0.617145
vt 0.000000 0.000000
vt 0.437500 0.750000
vt 0.000000 0.000000
vt 0.437500 0.875000
vt 0.608754 0.133307
vt 0.608754 0.241693
vt 0.625000 0.375000
vt 0.750000 0.500000
vt 0.000000 0.000000
vt 0.000000 0.000000
vt 0.875000 0.500000
vt 0.625000 0.250000
vt 0.125000 0.500000
vt 0.375000 0.250000
vt 0.000000 0.000000
vt 0.750000 0.625000
vt 0.000000 0.000000
vt 0.250000 0.625000
vt 0.000000 0.000000
vt 0.125000 0.625000
vt 0.375000 0.125000
vt 0.000000 0.000000
vt 0.875000 0.625000
vt 0.625000 0.125000
vt 0.000000 0.000000
vt 0.625000 0.250350
vt 0.625000 0.250845
vt 0.874155 0.500000
vt 0.625000 0.249410
vt 0.625000 0.249755
vt 0.875000 0.500590
vt 0.625000 0.499155
vt 0.625845 0.500000
vt 0.625000 0.750845
vt 0.625845 0.750000
vt 0.625000 0.999155
vt 0.625000 0.000000
vt 0.874155 0.750000
vt 0.625000 0.749410
vt 0.625000 0.500590
vt 0.625000 0.000590
vt 0.625000 0.000245
vt 0.875000 0.749410
s 0
usemtl b0_base
f 1/1/1 9/16/1 10/19/1 3/6/1
f 3/6/2 10/19/2 11/21/2 7/13/2
f 7/13/3 11/21/3 12/22/3 5/10/3
f 5/10/4 12/22/4 9/17/4 1/2/4
f 3/7/5 7/13/5 5/10/5 1/3/5
usemtl b0_pic
f 8/14/6 4/8/6 2/4/6 6/11/6
usemtl b0_frame
f 2/5/7 4/9/7 10/20/7 9/18/7
f 4/9/8 8/15/8 11/21/8 10/20/8
f 8/15/9 6/12/9 12/22/9 11/21/9
f 6/12/10 2/5/10 9/18/10 12/22/10
usemtl clip_base
f 99/166/11 103/173/11 26/49/11 32/58/11
f 102/172/12 100/168/12 24/45/12 31/57/12
f 17/30/4 26/49/4 103/173/4 102/172/4 31/57/4 14/25/4
f 20/35/5 19/33/5 18/31/5 17/30/5 14/25/5 13/23/5 21/37/5 22/40/5
f 13/24/1 24/45/1 100/167/1 101/169/1 30/55/1 21/38/1
f 22/41/2 28/53/2 104/174/2 98/162/2 29/54/2 20/36/2
f 98/163/13 97/159/13 16/29/13 29/54/13
f 101/170/14 104/175/14 28/53/14 30/56/14
f 16/29/15 19/34/15 20/36/15 29/54/15
f 19/34/3 16/29/3 97/160/3 99/165/3 32/58/3 18/32/3
f 21/39/16 30/56/16 28/53/16 22/41/16
f 24/45/17 13/24/17 14/25/17 31/57/17
f 26/49/18 17/30/18 18/32/18 32/58/18
f 15/26/6 97/161/6 98/164/6
f 15/26/6 25/46/6 99/166/6 97/161/6
f 23/42/6 27/50/6 101/171/6 100/168/6
f 23/42/6 100/168/6 102/172/6
f 25/47/6 23/43/6 102/172/6 103/173/6
f 25/47/6 103/173/6 99/166/6
f 27/51/6 15/27/6 98/164/6 104/176/6
f 27/51/6 104/176/6 101/171/6
usemtl clip_metal
f 47/80/4 48/82/4 38/65/4 33/59/4 51/85/4 37/64/4
f 62/101/5 47/80/5 37/64/5 43/71/5
f 51/85/1 33/59/1 34/60/1 52/87/1
f 48/82/6 61/99/6 44/74/6 38/65/6
f 61/100/1 62/102/1 47/79/1 48/81/1
f 33/59/19 38/65/19 44/75/19 34/60/19
f 61/100/2 62/102/2 43/72/2 52/86/2 34/61/2 44/76/2
f 37/64/20 51/85/20 52/87/20 43/73/20
f 79/130/2 69/114/2 83/135/2 65/109/2 70/115/2 80/132/2
f 94/151/5 75/121/5 69/114/5 79/130/5
f 83/135/1 84/137/1 66/110/1 65/109/1
f 80/132/6 70/115/6 76/124/6 93/149/6
f 93/150/1 80/131/1 79/129/1 94/152/1
f 65/109/19 66/110/19 76/125/19 70/115/19
f 93/150/4 76/126/4 66/111/4 84/136/4 75/122/4 94/152/4
f 69/114/20 75/123/20 84/137/20 83/135/20
usemtl clip_hook
f 45/77/2 53/88/2 54/89/2 35/62/2
f 41/68/3 55/90/3 40/67/3 39/66/3
f 50/84/1 56/92/1 57/93/1 60/98/1
f 59/97/3 58/95/3 55/90/3 41/68/3
f 59/96/5 41/69/5 62/101/5 63/103/5
f 40/67/6 55/91/6 61/99/6 48/82/6
f 42/70/6 36/63/6 46/78/6 49/83/6
f 41/69/5 39/66/5 47/80/5 62/101/5
f 39/66/4 40/67/4 48/82/4 47/80/4
f 46/78/21 36/63/21 58/94/21 64/106/21
f 36/63/22 42/70/22 55/91/22 58/94/22
f 42/70/23 49/83/23 61/99/23 55/91/23
f 49/83/24 46/78/24 64/106/24 61/99/24
f 54/89/25 53/88/25 64/107/25 58/95/25
f 35/62/26 54/89/26 58/95/26 59/97/26
f 45/77/27 35/62/27 59/97/27 63/104/27
f 53/88/28 45/77/28 63/104/28 64/107/28
f 56/92/29 50/84/29 62/102/29 61/100/29
f 50/84/30 60/98/30 63/105/30 62/102/30
f 57/93/31 56/92/31 61/100/31 64/108/31
f 60/98/32 57/93/32 64/108/32 63/105/32
f 77/127/4 67/112/4 86/139/4 85/138/4
f 73/118/3 71/116/3 72/117/3 87/140/3
f 82/134/1 92/148/1 89/143/1 88/142/1
f 91/147/3 73/118/3 87/140/3 90/145/3
f 91/146/5 95/153/5 94/151/5 73/119/5
f 72/117/6 80/132/6 93/149/6 87/141/6
f 74/120/6 81/133/6 78/128/6 68/113/6
f 73/119/5 94/151/5 79/130/5 71/116/5
f 71/116/2 79/130/2 80/132/2 72/117/2
f 78/128/23 96/156/23 90/144/23 68/113/23
f 68/113/22 90/144/22 87/141/22 74/120/22
f 74/120/21 87/141/21 93/149/21 81/133/21
f 81/133/24 93/149/24 96/156/24 78/128/24
f 86/139/33 90/145/33 96/157/33 85/138/33
f 67/112/34 91/147/34 90/145/34 86/139/34
f 77/127/35 95/154/35 91/147/35 67/112/35
f 85/138/36 96/157/36 95/154/36 77/127/36
f 88/142/37 93/150/37 94/152/37 82/134/37
f 82/134/30 94/152/30 95/155/30 92/148/30
f 89/143/31 96/158/31 93/150/31 88/142/31
f 92/148/38 95/155/38 96/158/38 89/143/38
usemtl clip_pic
f 25/48/6 15/28/6 27/52/6 23/44/6
