# Blender 3.3.0
# www.blender.org
mtllib b3_body.mtl
o b3
v -0.060122 0.082990 0.047739
v -0.056036 0.105362 0.029350
v -0.062055 0.081559 0.047043
v -0.057709 0.105349 0.027489
v -0.008960 0.073722 0.047832
v -0.004874 0.096094 0.029443
v -0.007650 0.071704 0.047142
v -0.003305 0.095494 0.027588
v -0.061943 0.082183 0.047827
v -0.057598 0.105973 0.028273
v -0.003193 0.096118 0.028372
v -0.007539 0.072327 0.047926
vn 0.1107 0.6189 0.7776
vn -0.9840 0.1782 -0.0019
vn -0.1107 -0.6189 -0.7776
vn 0.9840 -0.1782 0.0018
vn -0.1398 -0.7652 0.6284
vn 0.1397 0.7650 -0.6287
vn -0.2492 0.6417 0.7253
vn 0.4560 0.5139 0.7266
vn 0.0127 0.0801 0.9967
vn 0.1702 0.9425 0.2876
vt 0.000024 0.000407
vt 0.017126 0.030155
vt 0.000229 0.999593
vt 0.017126 0.969845
vt 0.375000 0.250000
vt 0.125000 0.500000
vt 0.625000 0.250000
vt 0.875000 0.500000
vt 0.999798 0.000480
vt 0.545702 0.030155
vt 0.999948 0.999901
vt 0.545702 0.969845
vt 0.375000 0.500000
vt 0.625000 0.500000
vt 0.375000 0.000000
vt 0.125000 0.750000
vt 0.000375 0.000375
vt 0.625000 0.000000
vt 0.875000 0.750000
vt 0.000375 0.999625
vt 0.625000 0.750000
vt 0.562453 0.999625
vt 0.375000 0.750000
vt 0.562453 0.000375
s 0
usemtl b3_button
f 5/9/1 6/11/1 2/3/1 1/1/1
usemtl b3_base
f 9/15/2 10/18/2 4/7/2 3/5/2
f 3/5/3 4/7/3 8/14/3 7/13/3
f 7/13/4 8/14/4 11/21/4 12/23/4
f 3/6/5 7/13/5 12/23/5 9/16/5
f 8/14/6 4/8/6 10/19/6 11/21/6
usemtl b3_frame
f 1/2/7 2/4/7 10/20/7 9/17/7
f 6/12/8 5/10/8 12/24/8 11/22/8
f 5/10/9 1/2/9 9/17/9 12/24/9
f 2/4/10 6/12/10 11/22/10 10/20/10
