# Blender 3.3.0
# www.blender.org
mtllib b4_body.mtl
o b4
v -0.003442 0.072722 0.047842
v 0.000644 0.095095 0.029454
v -0.005374 0.071291 0.047146
v -0.001029 0.095082 0.027592
v 0.047720 0.063454 0.047936
v 0.051806 0.085827 0.029547
v 0.049030 0.061436 0.047246
v 0.053375 0.085227 0.027691
v -0.005263 0.071915 0.047930
v -0.000918 0.095706 0.028376
v 0.053487 0.085851 0.028475
v 0.049142 0.062060 0.048029
vn 0.1107 0.6189 0.7776
vn -0.9840 0.1782 -0.0018
vn -0.1107 -0.6189 -0.7776
vn 0.9840 -0.1782 0.0018
vn -0.1397 -0.7648 0.6290
vn 0.1397 0.7650 -0.6287
vn -0.2494 0.6417 0.7253
vn 0.4561 0.5139 0.7266
vn 0.0127 0.0800 0.9967
vn 0.1702 0.9425 0.2878
vt 0.000000 0.000000
vt 0.017126 0.030155
vt -0.000000 1.000000
vt 0.017126 0.969845
vt 0.375000 0.250000
vt 0.125000 0.500000
vt 0.625000 0.250000
vt 0.875000 0.500000
vt 0.999587 0.000000
vt 0.545702 0.030155
vt 0.999587 1.000000
vt 0.545702 0.969845
vt 0.375000 0.500000
vt 0.625000 0.500000
vt 0.375000 0.000000
vt 0.125000 0.750000
vt 0.000375 0.000375
vt 0.625000 0.000000
vt 0.875000 0.750000
vt 0.000375 0.999625
vt 0.625000 0.750000
vt 0.562453 0.999625
vt 0.375000 0.750000
vt 0.562453 0.000375
s 0
usemtl b4_button
f 5/9/1 6/11/1 2/3/1 1/1/1
usemtl b4_base
f 9/15/2 10/18/2 4/7/2 3/5/2
f 3/5/3 4/7/3 8/14/3 7/13/3
f 7/13/4 8/14/4 11/21/4 12/23/4
f 3/6/5 7/13/5 12/23/5 9/16/5
f 8/14/6 4/8/6 10/19/6 11/21/6
usemtl b4_frame
f 1/2/7 2/4/7 10/20/7 9/17/7
f 6/12/8 5/10/8 12/24/8 11/22/8
f 5/10/9 1/2/9 9/17/9 12/24/9
f 2/4/10 6/12/10 11/22/10 10/20/10
