# Blender 3.3.0
# www.blender.org
mtllib b5_body.mtl
o b5
v 0.053627 0.062384 0.047946
v 0.057713 0.084757 0.029557
v 0.051694 0.060954 0.047250
v 0.056040 0.084744 0.027696
v 0.104789 0.053116 0.048040
v 0.108875 0.075489 0.029651
v 0.106099 0.051098 0.047350
v 0.110444 0.074889 0.027795
v 0.051806 0.061577 0.048034
v 0.056151 0.085368 0.028480
v 0.110556 0.075513 0.028579
v 0.106210 0.051722 0.048133
vn 0.1107 0.6189 0.7776
vn -0.9840 0.1782 -0.0018
vn -0.1107 -0.6189 -0.7776
vn 0.9840 -0.1782 0.0019
vn -0.1397 -0.7650 0.6287
vn 0.1397 0.7650 -0.6287
vn -0.2492 0.6417 0.7253
vn 0.4562 0.5138 0.7265
vn 0.0127 0.0800 0.9967
vn 0.1702 0.9424 0.2879
vt 0.000323 0.000566
vt 0.017126 0.030155
vt 0.000422 0.999196
vt 0.017126 0.969845
vt 0.375000 0.250000
vt 0.125000 0.500000
vt 0.625000 0.250000
vt 0.875000 0.500000
vt 0.999738 0.000442
vt 0.545702 0.030155
vt 0.999779 0.999695
vt 0.545702 0.969845
vt 0.375000 0.500000
vt 0.625000 0.500000
vt 0.375000 0.000000
vt 0.125000 0.750000
vt 0.000375 0.000375
vt 0.625000 0.000000
vt 0.875000 0.750000
vt 0.000375 0.999625
vt 0.625000 0.750000
vt 0.562453 0.999625
vt 0.375000 0.750000
vt 0.562453 0.000375
s 0
usemtl b5_button
f 5/9/1 6/11/1 2/3/1 1/1/1
usemtl b5_base
f 9/15/2 10/18/2 4/7/2 3/5/2
f 3/5/3 4/7/3 8/14/3 7/13/3
f 7/13/4 8/14/4 11/21/4 12/23/4
f 3/6/5 7/13/5 12/23/5 9/16/5
f 8/14/6 4/8/6 10/19/6 11/21/6
usemtl b5_frame
f 1/2/7 2/4/7 10/20/7 9/17/7
f 6/12/8 5/10/8 12/24/8 11/22/8
f 5/10/9 1/2/9 9/17/9 12/24/9
f 2/4/10 6/12/10 11/22/10 10/20/10
