# Blender 3.3.0
# www.blender.org
mtllib clip_house_hillfort_button_mesh.mtl
o hillfort
v -0.023547 0.006167 0.237786
v -0.023500 0.006304 0.208540
v -0.025194 0.004520 0.238703
v -0.025145 0.004668 0.207602
v 0.028448 0.006202 0.237870
v 0.028495 0.006340 0.208624
v 0.030096 0.004557 0.238792
v 0.030146 0.004705 0.207692
v -0.025196 0.005528 0.238708
v -0.025146 0.005676 0.207607
v 0.030144 0.005713 0.207696
v 0.030095 0.005566 0.238796
vn -1.0000 -0.0009 -0.0016
vn 0.0007 -1.0000 -0.0047
vn 1.0000 0.0009 0.0016
vn -0.0016 -0.0047 1.0000
vn 0.0016 0.0048 -1.0000
vn -0.3591 0.9333 0.0038
vn 0.3579 0.9337 0.0050
vn -0.0015 0.8233 0.5676
vn 0.0004 0.8286 -0.5598
vn -0.0007 1.0000 0.0047
vt 0.017126 0.030155
vt 0.003898 0.003699
vt 0.017126 0.969845
vt 0.003898 0.996301
vt 0.375000 0.250000
vt 0.125000 0.500000
vt 0.625000 0.250000
vt 0.875000 0.500000
vt 0.545702 0.030155
vt 0.997119 0.003699
vt 0.545702 0.969845
vt 0.997119 0.996301
vt 0.375000 0.500000
vt 0.625000 0.500000
vt 0.375000 0.000000
vt 0.125000 0.750000
vt 0.000375 0.000375
vt 0.625000 0.000000
vt 0.875000 0.750000
vt 0.000375 0.999625
vt 0.625000 0.750000
vt 0.562453 0.999625
vt 0.375000 0.750000
vt 0.562453 0.000375
s 0
f 9/15/1 10/18/1 4/7/1 3/5/1
f 3/5/2 4/7/2 8/14/2 7/13/2
f 7/13/3 8/14/3 11/21/3 12/23/3
f 3/6/4 7/13/4 12/23/4 9/16/4
f 8/14/5 4/8/5 10/19/5 11/21/5
f 1/1/6 2/3/6 10/20/6 9/17/6
f 6/11/7 5/9/7 12/24/7 11/22/7
f 5/9/8 1/1/8 9/17/8 12/24/8
f 2/3/9 6/11/9 11/22/9 10/20/9
f 5/10/10 6/12/10 2/4/10 1/2/10
