# Blender 3.3.0
# www.blender.org
mtllib boxroom_model.mtl
o boxroom
v 0.006422 0.009597 0.141210
v 0.006422 0.009597 0.150714
v 0.007689 0.009597 0.150714
v 0.007689 0.009597 0.141210
v 0.006422 0.035066 0.150714
v 0.006422 0.035066 0.141210
v 0.007689 0.035066 0.141210
v 0.007689 0.035066 0.150714
v 0.006422 0.009597 0.181884
v -0.025597 0.009597 0.181884
v -0.025597 0.042541 0.181884
v 0.006422 0.042541 0.181884
v -0.025597 0.009597 0.137916
v -0.025597 0.042541 0.137916
v -0.025597 0.042541 0.146786
v -0.025597 0.036966 0.146786
v -0.025597 0.019987 0.146786
v -0.025597 0.009597 0.146786
v 0.006422 0.009597 0.137916
v 0.006422 0.042541 0.137916
v -0.025597 0.009597 0.176309
v -0.025597 0.042541 0.176309
v -0.025597 0.019987 0.176309
v -0.025597 0.036966 0.176309
v -0.027878 0.019987 0.146786
v -0.027878 0.019987 0.176309
v -0.027878 0.036966 0.146786
v -0.027878 0.036966 0.176309
v 0.007689 0.035066 0.150714
vn -0.0000 1.0000 -0.0000
vn -0.0000 -1.0000 -0.0000
vn -0.0000 -0.0000 1.0000
vn -0.0000 -0.0000 -1.0000
vn 1.0000 -0.0000 -0.0000
vn -1.0000 -0.0000 -0.0000
s 1
usemtl None
f 1//1 2//1 3//1 4//1
f 5//2 6//2 7//2 8//2
f 6//3 1//3 4//3 7//3
f 2//4 5//4 8//4 3//4
f 9//4 10//4 11//4 12//4
f 13//5 14//5 15//5 16//5 17//5 18//5
f 19//3 20//3 14//3 13//3
f 5//6 2//6 9//6 12//6 20//6 19//6 1//6 6//6
f 9//1 2//1 1//1 19//1 13//1 18//1 21//1 10//1
f 18//5 17//5 23//5 21//5
f 21//5 23//5 24//5 22//5 11//5 10//5
f 22//5 24//5 16//5 15//5
f 23//1 17//1 25//1 26//1
f 17//3 16//3 27//3 25//3
f 24//4 23//4 26//4 28//4
f 16//2 24//2 28//2 27//2
l 29 7
l 3 29
