# Blender 3.3.0
# www.blender.org
mtllib b2_body.mtl
o b2
v 0.059389 0.085931 -0.009867
v 0.059056 0.069005 -0.033715
v 0.057393 0.085523 -0.008412
v 0.057039 0.067523 -0.033772
v 0.109719 0.074968 -0.002788
v 0.109386 0.058042 -0.026637
v 0.110913 0.073865 -0.000885
v 0.110559 0.055866 -0.026246
v 0.057646 0.086317 -0.008979
v 0.057291 0.068317 -0.034339
v 0.110812 0.056659 -0.026813
v 0.111166 0.074659 -0.001452
vn -0.9680 0.2107 -0.1360
vn -0.2507 -0.7878 0.5626
vn 0.9680 -0.2109 0.1362
vn 0.0114 0.5787 0.8155
vn -0.0115 -0.5789 -0.8153
vn -0.1130 0.8110 -0.5740
vn 0.5810 0.6599 -0.4765
vn 0.2136 0.9769 -0.0054
vn 0.2008 0.3245 -0.9243
vn 0.2507 0.7878 -0.5626
vt 0.017126 0.030155
vt 0.000244 0.001135
vt 0.017126 0.969845
vt -0.000084 0.997270
vt 0.375000 0.250000
vt 0.125000 0.500000
vt 0.625000 0.250000
vt 0.875000 0.500000
vt 0.545702 0.030155
vt 0.999521 0.001127
vt 0.545702 0.969845
vt 0.999612 0.999637
vt 0.375000 0.500000
vt 0.625000 0.500000
vt 0.375000 0.000000
vt 0.125000 0.750000
vt 0.000375 0.000375
vt 0.625000 0.000000
vt 0.875000 0.750000
vt 0.000375 0.999625
vt 0.625000 0.750000
vt 0.562453 0.999625
vt 0.375000 0.750000
vt 0.562453 0.000375
s 0
usemtl b2_button
f 5/10/10 6/12/10 2/4/10 1/2/10
usemtl b2_base
f 9/15/1 10/18/1 4/7/1 3/5/1
f 3/5/2 4/7/2 8/14/2 7/13/2
f 7/13/3 8/14/3 11/21/3 12/23/3
f 3/6/4 7/13/4 12/23/4 9/16/4
f 8/14/5 4/8/5 10/19/5 11/21/5
usemtl b2_frame
f 1/1/6 2/3/6 10/20/6 9/17/6
f 6/11/7 5/9/7 12/24/7 11/22/7
f 5/9/8 1/1/8 9/17/8 12/24/8
f 2/3/9 6/11/9 11/22/9 10/20/9
