# Blender v2.91.0 OBJ File: 'myModernHouse.blend'
# www.blender.org
mtllib inside_walls.mtl
o inside_walls_MH1_OBJ_04
v 52.976200 137.999985 101.037720
v 52.976200 137.999985 52.620422
v 58.976200 137.999985 52.620422
v 58.976200 137.999985 101.037720
v 52.976200 257.999969 101.037743
v 58.976200 257.999969 101.037743
v 58.976200 258.000000 52.620441
v 52.976200 258.000000 52.620441
v 58.976200 221.999985 52.620434
v 52.976200 221.999985 52.620434
v 52.976200 222.000000 22.620436
v 58.976200 222.000000 22.620436
v 58.976200 258.000000 22.620441
v 52.976200 258.000000 22.620441
v -211.023804 138.000000 16.620422
v -217.023804 138.000000 16.620422
v -217.023804 258.000000 16.620441
v -211.023804 258.000000 16.620441
v -217.023804 137.999985 52.620422
v -217.023804 258.000000 52.620441
v -211.023804 137.999985 52.620422
v -211.023804 258.000000 52.620441
v -7.578300 222.000000 16.620436
v -13.578300 222.000000 16.620436
v -13.578300 222.000000 -25.379564
v -7.578300 222.000000 -25.379564
v -7.578300 258.000000 16.620441
v -7.578300 258.000000 -25.379559
v -13.578300 258.000000 -25.379559
v -13.578300 258.000000 16.620441
v -13.578300 138.000000 -25.379578
v -13.578300 138.000031 -209.037689
v -7.578300 138.000031 -209.037689
v -7.578300 138.000000 -25.379578
v -13.578300 258.000092 -25.379559
v -7.578300 258.000092 -25.379559
v -7.578300 258.000031 -209.037659
v -13.578300 258.000031 -209.037659
v 196.976196 138.000015 -101.037674
v 196.976196 138.000031 -209.037689
v 202.976196 138.000031 -209.037689
v 202.976196 138.000015 -101.037674
v 196.976196 258.000031 -101.037651
v 202.976303 258.000031 -101.037651
v 202.976303 258.000031 -209.037659
v 196.976196 258.000031 -209.037659
v 202.976196 222.000015 -71.037659
v 196.976196 222.000015 -71.037659
v 196.976196 222.000015 -101.037659
v 202.976196 222.000015 -101.037659
v 202.976303 258.000000 -71.037651
v 196.976196 258.000000 -71.037651
v -235.023895 138.000015 -71.037674
v -235.023895 138.000031 -209.037689
v -229.023895 138.000031 -209.037689
v -229.023895 138.000015 -71.037674
v -235.023895 258.000000 -71.037651
v -229.023895 258.000000 -71.037651
v -229.023895 258.000031 -209.037659
v -235.023895 258.000031 -209.037659
v -289.023895 138.000015 -71.037674
v -289.023895 138.000015 -77.037674
v -235.023895 138.000015 -77.037674
v -235.023895 258.000000 -77.037651
v -289.023895 258.000000 -77.037651
v -289.023895 258.000000 -71.037651
v -289.023895 222.000015 -77.037659
v -289.023895 222.000015 -71.037659
v -319.023895 222.000015 -71.037659
v -319.023895 222.000015 -77.037659
v -319.023895 258.000000 -77.037651
v -319.023895 258.000000 -71.037651
v 52.976299 17.999964 221.037704
v 52.976299 17.999989 64.620399
v 58.976299 17.999989 64.620399
v 58.976299 17.999964 221.037704
v 52.976200 131.999969 221.037720
v 58.976200 131.999969 221.037720
v 58.976200 131.999985 64.620422
v 52.976200 131.999985 64.620422
v 58.976200 101.999992 64.620415
v 52.976200 101.999992 64.620415
v 52.976200 102.000000 22.620417
v 58.976200 102.000000 22.620417
v 58.976200 132.000000 22.620420
v 52.976200 132.000000 22.620420
v -211.023804 17.999998 16.620403
v -217.023804 17.999998 16.620403
v -217.023804 132.000000 16.620420
v -211.023804 132.000000 16.620420
v -217.023804 17.999992 52.620403
v -217.023804 131.999985 52.620422
v -211.023804 17.999992 52.620403
v -211.023804 131.999985 52.620422
v -13.578300 102.000000 16.620417
v -13.578300 102.000000 22.620417
v -211.023804 102.000000 22.620417
v -211.023804 102.000000 16.620417
v -13.578300 132.000000 16.620420
v -211.023804 132.000000 22.620420
v -13.578300 132.000000 22.620420
v -7.578300 102.000000 16.620417
v -13.578300 102.000008 -25.379583
v -7.578300 102.000008 -25.379583
v -7.578300 132.000000 16.620420
v -7.578300 132.000000 -25.379580
v -13.578300 132.000000 -25.379580
v 196.976303 17.999996 22.620403
v -13.578300 17.999996 22.620403
v -13.578300 17.999998 16.620403
v 196.976303 17.999998 16.620403
v 196.976303 132.000000 22.620420
v 196.976303 132.000000 16.620420
v -13.578300 18.000004 -25.379597
v -13.578300 18.000034 -209.037704
v -7.578300 18.000034 -209.037704
v -7.578300 18.000004 -25.379597
v -7.578300 132.000031 -209.037689
v -13.578300 132.000031 -209.037689
v 196.976303 18.000017 -101.037697
v 196.976303 18.000034 -209.037704
v 202.976303 18.000034 -209.037704
v 202.976303 18.000017 -101.037697
v 196.976303 132.000015 -101.037674
v 202.976303 132.000015 -101.037674
v 202.976303 132.000031 -209.037689
v 196.976303 132.000031 -209.037689
v 202.976303 102.000015 -71.037682
v 196.976303 102.000015 -71.037682
v 196.976303 102.000015 -101.037682
v 202.976303 102.000015 -101.037682
v 202.976303 132.000015 -71.037674
v 196.976303 132.000015 -71.037674
v -235.023895 18.000011 -71.037697
v -235.023895 18.000034 -209.037704
v -229.023895 18.000034 -209.037704
v -229.023895 18.000011 -71.037697
v -235.023895 132.000015 -71.037674
v -229.023895 132.000015 -71.037674
v -229.023895 132.000031 -209.037689
v -235.023895 132.000031 -209.037689
v -289.023895 18.000011 -71.037697
v -289.023895 18.000013 -77.037697
v -235.023895 18.000013 -77.037697
v -235.023895 132.000015 -77.037674
v -289.023895 132.000015 -77.037674
v -289.023895 132.000015 -71.037674
v -289.023895 102.000015 -77.037682
v -289.023895 102.000015 -71.037682
v -319.023895 102.000015 -71.037682
v -319.023895 102.000015 -77.037682
v -319.023895 132.000015 -77.037674
v -319.023895 132.000015 -71.037674
v 196.976196 138.000000 22.620422
v -169.023804 138.000000 22.620422
v -169.023804 138.000000 16.620422
v 196.976196 138.000000 16.620422
v 196.976196 258.000000 22.620441
v 196.976196 258.000000 16.620441
v -169.023804 258.000000 16.620441
v -169.023804 258.000000 22.620441
v -169.023804 222.000000 16.620436
v -169.023804 222.000000 22.620436
v -211.023804 222.000000 22.620436
v -211.023804 222.000000 16.620436
v -211.023804 258.000000 22.620441
vt 1.000000 0.000000
vt 1.000000 1.000000
vt 0.000000 1.000000
vt 0.000000 0.000000
vt 0.000000 0.000000
vt 1.000000 0.000000
vt 1.000000 1.000000
vt 0.000000 1.000000
vt 0.000000 0.000000
vt 1.000000 0.000000
vt 1.000000 1.000000
vt 0.000000 1.000000
vt 1.000000 0.000000
vt 0.000000 1.000000
vt 0.000000 0.000000
vt 1.000000 0.000000
vt 1.000000 1.000000
vt 0.000000 1.000000
vt 0.000000 0.000000
vt 1.000000 1.000000
vt 1.000000 0.000000
vt 1.000000 1.000000
vt 0.000000 1.000000
vt 0.000000 0.000000
vt 0.000000 0.000000
vt 1.000000 0.000000
vt 1.000000 1.000000
vt 0.000000 0.000000
vt 1.000000 0.000000
vt 1.000000 1.000000
vt 1.000000 0.000000
vt 0.000000 1.000000
vt 0.000000 0.000000
vt 1.000000 0.000000
vt 0.000000 1.000000
vt 0.000000 0.000000
vt 0.000000 0.000000
vt 1.000000 0.000000
vt 1.000000 1.000000
vt 0.000000 1.000000
vt 0.250000 0.000000
vt 0.250000 1.000000
vt 0.000000 1.000000
vt 0.000000 0.000000
vt 1.000000 1.000000
vt 0.000000 1.000000
vt 0.000000 0.750000
vt 1.000000 0.750000
vt 1.000000 1.000000
vt 0.000000 0.750000
vt 1.000000 0.750000
vt 1.000000 0.000000
vt 0.750000 1.000000
vt 0.750000 0.000000
vt 1.000000 0.000000
vt 1.000000 1.000000
vt 0.000000 1.000000
vt 0.000000 0.000000
vt 0.000000 0.000000
vt 1.000000 0.000000
vt 1.000000 1.000000
vt 0.000000 1.000000
vt 0.000000 0.000000
vt 1.000000 0.000000
vt 1.000000 1.000000
vt 0.000000 1.000000
vt 1.000000 0.000000
vt 0.000000 1.000000
vt 0.000000 0.000000
vt 1.000000 0.000000
vt 1.000000 1.000000
vt 0.000000 1.000000
vt 0.000000 0.000000
vt 1.000000 1.000000
vt 1.000000 0.000000
vt 1.000000 1.000000
vt 0.000000 1.000000
vt 0.000000 0.000000
vt 0.000000 0.000000
vt 1.000000 0.000000
vt 1.000000 1.000000
vt 0.000000 1.000000
vt 0.000000 0.000000
vt 1.000000 0.000000
vt 1.000000 1.000000
vt 0.000000 1.000000
vt 1.000000 0.000000
vt 0.000000 1.000000
vt 0.000000 0.000000
vt 1.000000 0.000000
vt 1.000000 1.000000
vt 0.000000 1.000000
vt 0.000000 0.000000
vt 1.000000 1.000000
vt 1.000000 0.000000
vt 1.000000 1.000000
vt 0.000000 1.000000
vt 0.000000 0.000000
vt 0.000000 0.000000
vt 1.000000 0.000000
vt 1.000000 1.000000
vt 0.000000 1.000000
vt 0.000000 0.000000
vt 1.000000 0.000000
vt 1.000000 1.000000
vt 0.000000 1.000000
vt 1.000000 0.000000
vt 0.000000 1.000000
vt 0.000000 0.000000
vt 1.000000 0.000000
vt 1.000000 1.000000
vt 0.000000 1.000000
vt 0.000000 0.000000
vt 1.000000 1.000000
vt 1.000000 0.000000
vt 1.000000 1.000000
vt 0.000000 1.000000
vt 0.000000 0.000000
vt 0.000000 0.000000
vt 0.000000 1.000000
vt 0.000000 0.000000
vt 1.000000 0.000000
vt 0.000000 1.000000
vt 1.000000 0.000000
vt 0.000000 0.000000
vt 1.000000 0.000000
vt 1.000000 1.000000
vt 0.000000 0.000000
vt 1.000000 1.000000
vt 1.000000 0.000000
vt 1.000000 1.000000
vt 0.000000 1.000000
vt 0.000000 0.000000
vt 0.000000 0.000000
vt 1.000000 0.000000
vt 1.000000 1.000000
vt 0.000000 1.000000
vt 0.000000 0.000000
vt 1.000000 0.000000
vt 1.000000 1.000000
vt 0.000000 1.000000
vt 1.000000 0.000000
vt 0.000000 1.000000
vt 0.000000 0.000000
vt 1.000000 0.000000
vt 1.000000 1.000000
vt 0.000000 1.000000
vt 0.000000 0.000000
vt 1.000000 1.000000
vt 1.000000 1.000000
vt 0.000000 1.000000
vt 0.000000 0.000000
vt 1.000000 0.000000
vt 1.000000 1.000000
vt 0.000000 1.000000
vt 1.000000 0.000000
vt 1.000000 1.000000
vt 1.000000 0.000000
vt 0.000000 1.000000
vt 0.000000 0.000000
vt 1.000000 0.000000
vt 1.000000 1.000000
vt 0.000000 1.000000
vt 0.000000 0.000000
vt 1.000000 0.000000
vt 1.000000 1.000000
vt 0.000000 1.000000
vt 0.000000 0.000000
vt 0.000000 0.000000
vt 1.000000 0.000000
vt 1.000000 1.000000
vt 0.000000 0.000000
vt 1.000000 0.000000
vt 1.000000 1.000000
vt 1.000000 0.000000
vt 0.000000 1.000000
vt 0.000000 0.000000
vt 1.000000 0.000000
vt 0.000000 1.000000
vt 0.000000 0.000000
vt 1.000000 0.000000
vt 1.000000 1.000000
vt 0.000000 1.000000
vt 0.000000 0.000000
vt 0.000000 0.000000
vt 1.000000 0.000000
vt 1.000000 1.000000
vt 0.000000 1.000000
vt 0.000000 0.000000
vt 1.000000 0.000000
vt 1.000000 1.000000
vt 0.000000 1.000000
vt 1.000000 0.000000
vt 0.000000 1.000000
vt 0.000000 0.000000
vt 1.000000 0.000000
vt 1.000000 1.000000
vt 0.000000 1.000000
vt 0.000000 0.000000
vt 1.000000 1.000000
vt 1.000000 0.000000
vt 1.000000 1.000000
vt 0.000000 1.000000
vt 0.000000 0.000000
vt 0.000000 0.000000
vt 1.000000 0.000000
vt 1.000000 1.000000
vt 0.000000 0.000000
vt 1.000000 0.000000
vt 1.000000 1.000000
vt 1.000000 0.000000
vt 0.000000 1.000000
vt 0.000000 0.000000
vt 1.000000 0.000000
vt 0.000000 1.000000
vt 0.000000 0.000000
vt 0.000000 0.000000
vt 1.000000 0.000000
vt 1.000000 1.000000
vt 0.000000 1.000000
vt 0.250000 0.000000
vt 0.250000 1.000000
vt 0.000000 1.000000
vt 0.000000 0.000000
vt 1.000000 1.000000
vt 0.000000 1.000000
vt 0.000000 0.750000
vt 1.000000 0.750000
vt 1.000000 1.000000
vt 0.000000 0.750000
vt 1.000000 0.750000
vt 1.000000 0.000000
vt 0.750000 1.000000
vt 0.750000 0.000000
vt 1.000000 0.000000
vt 1.000000 1.000000
vt 0.000000 1.000000
vt 0.000000 0.000000
vt 0.000000 0.000000
vt 1.000000 0.000000
vt 1.000000 1.000000
vt 0.000000 1.000000
vt 0.000000 0.000000
vt 1.000000 0.000000
vt 0.000000 1.000000
vt 1.000000 0.000000
vt 0.000000 0.000000
vt 1.000000 0.000000
vt 1.000000 1.000000
vt 0.000000 1.000000
vt 0.000000 0.000000
vt 1.000000 1.000000
vt 1.000000 0.000000
vt 1.000000 1.000000
vt 0.000000 1.000000
vt 0.000000 0.000000
vt 0.000000 0.000000
vt 1.000000 0.000000
vt 1.000000 1.000000
vt 0.000000 0.000000
vt 1.000000 0.000000
vt 1.000000 1.000000
vt 0.000000 1.000000
vt 1.000000 0.000000
vt 0.000000 1.000000
vt 0.000000 0.000000
vt 0.000000 1.000000
vt 1.000000 1.000000
vt 1.000000 0.000000
vt 1.000000 1.000000
vt 0.000000 1.000000
vt 0.000000 0.000000
vt 0.000000 0.000000
vt 1.000000 0.000000
vt 0.000000 0.000000
vt 1.000000 0.000000
vt 1.000000 1.000000
vt 0.000000 1.000000
vt 1.000000 0.000000
vt 0.000000 1.000000
vt 0.000000 0.000000
vt 1.000000 0.000000
vt 0.000000 0.000000
vt 1.000000 1.000000
vt 1.000000 0.000000
vt 1.000000 1.000000
vt 0.000000 1.000000
vt 0.000000 0.000000
vt 0.000000 0.000000
vt 1.000000 1.000000
vt 0.000000 1.000000
vt 0.000000 0.000000
vt 1.000000 0.000000
vt 1.000000 0.000000
vt 0.000000 0.000000
vt 1.000000 0.000000
vt 1.000000 1.000000
vt 0.000000 1.000000
vt 0.000000 0.000000
vt 1.000000 0.000000
vt 1.000000 1.000000
vt 0.000000 1.000000
vt 0.000000 0.000000
vt 0.000000 0.000000
vt 1.000000 0.000000
vt 1.000000 1.000000
vt 0.000000 1.000000
vt 0.000000 0.000000
vt 1.000000 0.000000
vt 1.000000 1.000000
vt 0.000000 1.000000
vt 1.000000 0.000000
vt 0.000000 1.000000
vt 0.000000 0.000000
vt 1.000000 0.000000
vt 1.000000 1.000000
vt 0.000000 1.000000
vt 0.000000 0.000000
vt 1.000000 1.000000
vt 1.000000 0.000000
vt 1.000000 1.000000
vt 0.000000 1.000000
vt 0.000000 0.000000
vt 0.000000 0.000000
vt 0.000000 1.000000
vt 0.000000 0.000000
vt 1.000000 0.000000
vt 0.000000 1.000000
vt 1.000000 0.000000
vt 0.000000 0.000000
vt 1.000000 0.000000
vt 1.000000 1.000000
vt 0.000000 0.000000
vt 1.000000 1.000000
vt 1.000000 0.000000
vt 1.000000 1.000000
vt 0.000000 1.000000
vt 0.000000 0.000000
vt 0.000000 0.000000
vt 1.000000 0.000000
vt 1.000000 1.000000
vt 0.000000 1.000000
vt 0.000000 0.000000
vt 1.000000 0.000000
vt 1.000000 1.000000
vt 0.000000 1.000000
vt 1.000000 0.000000
vt 0.000000 1.000000
vt 0.000000 0.000000
vt 1.000000 0.000000
vt 1.000000 1.000000
vt 0.000000 1.000000
vt 0.000000 0.000000
vt 1.000000 1.000000
vt 1.000000 1.000000
vt 0.000000 1.000000
vt 0.000000 0.000000
vt 1.000000 0.000000
vt 1.000000 1.000000
vt 0.000000 1.000000
vt 1.000000 0.000000
vt 1.000000 1.000000
vt 1.000000 0.000000
vt 0.000000 1.000000
vt 0.000000 0.000000
vt 1.000000 0.000000
vt 1.000000 1.000000
vt 0.000000 1.000000
vt 0.000000 0.000000
vt 1.000000 0.000000
vt 1.000000 1.000000
vt 0.000000 1.000000
vt 0.000000 0.000000
vt 0.000000 0.000000
vt 1.000000 0.000000
vt 1.000000 1.000000
vt 0.000000 0.000000
vt 1.000000 0.000000
vt 1.000000 1.000000
vt 1.000000 0.000000
vt 0.000000 1.000000
vt 0.000000 0.000000
vt 1.000000 0.000000
vt 0.000000 1.000000
vt 0.000000 0.000000
vt 1.000000 0.000000
vt 1.000000 1.000000
vt 0.000000 1.000000
vt 0.000000 0.000000
vt 0.000000 0.000000
vt 1.000000 0.000000
vt 1.000000 1.000000
vt 0.000000 1.000000
vt 0.000000 0.000000
vt 1.000000 0.000000
vt 1.000000 1.000000
vt 0.000000 1.000000
vt 1.000000 0.000000
vt 0.000000 1.000000
vt 0.000000 0.000000
vt 1.000000 0.000000
vt 1.000000 1.000000
vt 0.000000 1.000000
vt 0.000000 0.000000
vt 1.000000 1.000000
vt 1.000000 0.000000
vt 1.000000 1.000000
vt 0.000000 1.000000
vt 0.000000 0.000000
vt 0.000000 0.000000
vt 1.000000 0.000000
vt 1.000000 1.000000
vt 0.000000 0.000000
vt 1.000000 0.000000
vt 1.000000 0.000000
vt 0.000000 0.000000
vt 1.000000 0.000000
vt 0.000000 1.000000
vt 0.000000 0.000000
vn 0.0000 -1.0000 0.0000
vn 0.0000 1.0000 0.0000
vn 0.0000 -0.0000 1.0000
vn 1.0000 0.0000 0.0000
vn 0.0000 0.0000 -1.0000
vn -1.0000 0.0000 0.0000
usemtl Material.006
s off
f 1/1/1 2/2/1 3/3/1 4/4/1
f 5/5/2 6/6/2 7/7/2 8/8/2
f 1/9/3 4/10/3 6/11/3 5/12/3
f 4/4/4 3/13/4 7/7/4 6/14/4
f 3/15/5 2/16/5 8/17/5 7/18/5
f 2/19/6 1/1/6 5/20/6 8/8/6
f 9/21/1 10/22/1 11/23/1 12/24/1
f 7/25/2 13/26/2 14/27/2 8/8/2
f 9/28/4 12/29/4 13/30/4 7/18/4
f 12/24/5 11/31/5 14/27/5 13/32/5
f 11/33/6 10/34/6 8/17/6 14/35/6
f 10/36/3 9/21/3 7/7/3 8/8/3
f 15/37/5 16/38/5 17/39/5 18/40/5
f 19/41/6 20/42/6 17/43/6 16/44/6
f 16/45/1 15/46/1 21/47/1 19/48/1
f 18/49/2 17/43/2 20/50/2 22/51/2
f 15/52/4 18/49/4 22/53/4 21/54/4
f 21/47/3 22/53/3 20/50/3 19/41/3
f 23/55/1 24/56/1 25/57/1 26/58/1
f 27/59/2 28/60/2 29/61/2 30/62/2
f 23/63/4 26/64/4 28/65/4 27/66/4
f 26/58/5 25/67/5 29/61/5 28/68/5
f 25/69/6 24/70/6 30/71/6 29/72/6
f 24/73/3 23/55/3 27/74/3 30/62/3
f 31/75/1 32/76/1 33/77/1 34/78/1
f 35/79/2 36/80/2 37/81/2 38/82/2
f 31/83/3 34/84/3 36/85/3 35/86/3
f 34/78/4 33/87/4 37/81/4 36/88/4
f 33/89/5 32/90/5 38/91/5 37/92/5
f 32/93/6 31/75/6 35/94/6 38/82/6
f 39/95/1 40/96/1 41/97/1 42/98/1
f 43/99/2 44/100/2 45/101/2 46/102/2
f 39/103/3 42/104/3 44/105/3 43/106/3
f 42/98/4 41/107/4 45/101/4 44/108/4
f 41/109/5 40/110/5 46/111/5 45/112/5
f 40/113/6 39/95/6 43/114/6 46/102/6
f 47/115/1 48/116/1 49/117/1 50/118/1
f 51/119/2 44/100/2 43/114/2 52/120/2
f 47/121/4 50/122/4 44/105/4 51/123/4
f 50/118/5 49/124/5 43/114/5 44/108/5
f 49/125/6 48/126/6 52/127/6 43/106/6
f 48/128/3 47/115/3 51/129/3 52/120/3
f 53/130/1 54/131/1 55/132/1 56/133/1
f 57/134/2 58/135/2 59/136/2 60/137/2
f 53/138/3 56/139/3 58/140/3 57/141/3
f 56/133/4 55/142/4 59/136/4 58/143/4
f 55/144/5 54/145/5 60/146/5 59/147/5
f 54/148/6 53/130/6 57/149/6 60/137/6
f 53/130/1 61/150/1 62/151/1 63/152/1
f 57/134/2 64/153/2 65/154/2 66/155/2
f 53/138/4 63/156/4 64/157/4 57/141/4
f 63/152/5 62/158/5 65/154/5 64/159/5
f 62/160/6 61/161/6 66/162/6 65/163/6
f 61/164/3 53/130/3 57/149/3 66/155/3
f 67/165/1 68/166/1 69/167/1 70/168/1
f 65/169/2 71/170/2 72/171/2 66/155/2
f 67/172/5 70/173/5 71/174/5 65/163/5
f 70/168/6 69/175/6 72/171/6 71/176/6
f 69/177/3 68/178/3 66/162/3 72/179/3
f 68/180/4 67/165/4 65/154/4 66/155/4
f 73/181/1 74/182/1 75/183/1 76/184/1
f 77/185/2 78/186/2 79/187/2 80/188/2
f 73/189/3 76/190/3 78/191/3 77/192/3
f 76/184/4 75/193/4 79/187/4 78/194/4
f 75/195/5 74/196/5 80/197/5 79/198/5
f 74/199/6 73/181/6 77/200/6 80/188/6
f 81/201/1 82/202/1 83/203/1 84/204/1
f 79/205/2 85/206/2 86/207/2 80/188/2
f 81/208/4 84/209/4 85/210/4 79/198/4
f 84/204/5 83/211/5 86/207/5 85/212/5
f 83/213/6 82/214/6 80/197/6 86/215/6
f 82/216/3 81/201/3 79/187/3 80/188/3
f 87/217/5 88/218/5 89/219/5 90/220/5
f 91/221/6 92/222/6 89/223/6 88/224/6
f 88/225/1 87/226/1 93/227/1 91/228/1
f 90/229/2 89/223/2 92/230/2 94/231/2
f 87/232/4 90/229/4 94/233/4 93/234/4
f 93/227/3 94/233/3 92/230/3 91/221/3
f 95/235/1 96/236/1 97/237/1 98/238/1
f 99/239/2 90/240/2 100/241/2 101/242/2
f 95/243/5 98/244/5 90/229/5 99/245/5
f 98/238/6 97/246/6 100/241/6 90/220/6
f 97/247/3 96/248/3 101/249/3 100/250/3
f 96/251/4 95/235/4 99/252/4 101/242/4
f 102/253/1 95/254/1 103/255/1 104/256/1
f 105/257/2 106/258/2 107/259/2 99/245/2
f 102/260/4 104/261/4 106/262/4 105/263/4
f 104/256/5 103/264/5 107/259/5 106/265/5
f 103/266/6 95/235/6 99/252/6 107/267/6
f 95/243/3 102/253/3 105/268/3 99/245/3
f 108/269/1 109/270/1 110/271/1 111/272/1
f 112/273/2 113/274/2 99/252/2 101/242/2
f 108/275/4 111/276/4 113/277/4 112/278/4
f 111/272/5 110/279/5 99/252/5 113/280/5
f 110/281/6 109/282/6 101/249/6 99/245/6
f 109/283/3 108/269/3 112/284/3 101/242/3
f 114/285/1 115/286/1 116/287/1 117/288/1
f 107/289/2 106/258/2 118/290/2 119/291/2
f 114/292/3 117/293/3 106/262/3 107/267/3
f 117/288/4 116/294/4 118/290/4 106/265/4
f 116/295/5 115/296/5 119/297/5 118/298/5
f 115/299/6 114/285/6 107/259/6 119/291/6
f 120/300/1 121/301/1 122/302/1 123/303/1
f 124/304/2 125/305/2 126/306/2 127/307/2
f 120/308/3 123/309/3 125/310/3 124/311/3
f 123/303/4 122/312/4 126/306/4 125/313/4
f 122/314/5 121/315/5 127/316/5 126/317/5
f 121/318/6 120/300/6 124/319/6 127/307/6
f 128/320/1 129/321/1 130/322/1 131/323/1
f 132/324/2 125/305/2 124/319/2 133/325/2
f 128/326/4 131/327/4 125/310/4 132/328/4
f 131/323/5 130/329/5 124/319/5 125/313/5
f 130/330/6 129/331/6 133/332/6 124/311/6
f 129/333/3 128/320/3 132/334/3 133/325/3
f 134/335/1 135/336/1 136/337/1 137/338/1
f 138/339/2 139/340/2 140/341/2 141/342/2
f 134/343/3 137/344/3 139/345/3 138/346/3
f 137/338/4 136/347/4 140/341/4 139/348/4
f 136/349/5 135/350/5 141/351/5 140/352/5
f 135/353/6 134/335/6 138/354/6 141/342/6
f 134/335/1 142/355/1 143/356/1 144/357/1
f 138/339/2 145/358/2 146/359/2 147/360/2
f 134/343/4 144/361/4 145/362/4 138/346/4
f 144/357/5 143/363/5 146/359/5 145/364/5
f 143/365/6 142/366/6 147/367/6 146/368/6
f 142/369/3 134/335/3 138/354/3 147/360/3
f 148/370/1 149/371/1 150/372/1 151/373/1
f 146/374/2 152/375/2 153/376/2 147/360/2
f 148/377/5 151/378/5 152/379/5 146/368/5
f 151/373/6 150/380/6 153/376/6 152/381/6
f 150/382/3 149/383/3 147/367/3 153/384/3
f 149/385/4 148/370/4 146/359/4 147/360/4
f 154/386/1 155/387/1 156/388/1 157/389/1
f 158/390/2 159/391/2 160/392/2 161/393/2
f 154/394/4 157/395/4 159/396/4 158/397/4
f 157/389/5 156/398/5 160/392/5 159/399/5
f 156/400/6 155/401/6 161/402/6 160/403/6
f 155/404/3 154/386/3 158/405/3 161/393/3
f 162/406/1 163/407/1 164/408/1 165/409/1
f 160/410/2 18/411/2 166/412/2 161/393/2
f 162/413/5 165/414/5 18/49/5 160/403/5
f 165/409/6 164/415/6 166/412/6 18/40/6
f 164/416/3 163/417/3 161/402/3 166/418/3
f 163/419/4 162/406/4 160/392/4 161/393/4
