# Blender 3.3.0
# www.blender.org
mtllib reset_button_pic.mtl
o reset_button_pic
v 0.000000 0.000830 -0.008232
v -0.001606 0.000830 -0.008074
v -0.003150 0.000830 -0.007605
v -0.004573 0.000830 -0.006845
v -0.005821 0.000830 -0.005821
v -0.006845 0.000830 -0.004573
v -0.007605 0.000830 -0.003150
v -0.008074 0.000830 -0.001606
v -0.008232 0.000830 0.000000
v -0.008074 0.000830 0.001606
v -0.007605 0.000830 0.003150
v -0.006845 0.000830 0.004573
v -0.005821 0.000830 0.005821
v -0.004573 0.000830 0.006845
v -0.003150 0.000830 0.007605
v -0.001606 0.000830 0.008074
v 0.000000 0.000830 0.008232
v 0.001606 0.000830 0.008074
v 0.003150 0.000830 0.007605
v 0.004573 0.000830 0.006845
v 0.005821 0.000830 0.005821
v 0.006845 0.000830 0.004573
v 0.007605 0.000830 0.003150
v 0.008074 0.000830 0.001606
v 0.008232 0.000830 0.000000
v 0.008074 0.000830 -0.001606
v 0.007605 0.000830 -0.003150
v 0.006845 0.000830 -0.004573
v 0.005821 0.000830 -0.005821
v 0.004573 0.000830 -0.006845
v 0.003150 0.000830 -0.007605
v 0.001606 0.000830 -0.008074
vn -0.0000 1.0000 -0.0000
vt 0.377647 1.118597
vt 0.322554 1.108210
vt 0.269670 1.078870
vt 0.221015 1.031826
vt 0.178438 0.968751
vt 0.143609 0.892108
vt 0.117888 0.804907
vt 0.102190 0.710456
vt 0.097184 0.612366
vt 0.103027 0.514422
vt 0.119531 0.420405
vt 0.145993 0.333909
vt 0.181473 0.258216
vt 0.224584 0.196297
vt 0.273635 0.150572
vt 0.326763 0.122664
vt 0.381940 0.113765
vt 0.437033 0.124153
vt 0.489917 0.153492
vt 0.538571 0.200536
vt 0.581149 0.263611
vt 0.615978 0.340254
vt 0.641699 0.427455
vt 0.657397 0.521906
vt 0.662403 0.619997
vt 0.656560 0.717941
vt 0.640056 0.811957
vt 0.613594 0.898453
vt 0.578114 0.974146
vt 0.535002 1.036065
vt 0.485952 1.081790
vt 0.432823 1.109698
s 0
usemtl inner.002
f 2/2/1 3/3/1 4/4/1 5/5/1 6/6/1 7/7/1 8/8/1 9/9/1 10/10/1 11/11/1 12/12/1 13/13/1 14/14/1 15/15/1 16/16/1 17/17/1 18/18/1 19/19/1 20/20/1 21/21/1 22/22/1 23/23/1 24/24/1 25/25/1 26/26/1 27/27/1 28/28/1 29/29/1 30/30/1 31/31/1 32/32/1 1/1/1
