# Blender 3.4.1
# www.blender.org
mtllib 007platform.mtl
o platform
v -100.324463 -0.000000 23.887695
v -66.882690 -0.000000 23.887451
v -33.440918 -0.000000 23.886719
v 0.000000 -0.000000 23.887207
v 33.441772 -0.000000 23.886963
v -100.324219 -0.000000 0.000732
v -66.882812 -0.000000 0.000732
v -33.441284 -0.000000 0.000244
v 0.000000 0.000000 0.000000
v 33.441162 -0.000000 0.000732
v -100.324219 0.000000 -23.885742
v -66.883057 0.000000 -23.885742
v -33.441406 0.000000 -23.885742
v 0.000244 0.000000 -23.885742
v 33.441650 0.000000 -23.885742
v -33.440796 0.000000 -47.772461
v 0.000000 0.000000 -47.772461
v 33.441895 0.000000 -47.772705
v -33.440796 0.000000 -71.659180
v 0.000488 0.000000 -71.659180
v 33.441528 0.000000 -71.659180
vn 0.2540 0.9603 -0.1157
vn 0.0633 0.9960 -0.0624
vn -0.0000 1.0000 -0.0000
vn 0.2769 0.9609 0.0090
vn 0.0527 0.9940 0.0955
vn 0.0346 0.9773 0.2089
vn 0.2051 0.9555 0.2120
vn 0.2220 0.9749 0.0188
vn 0.0672 0.9758 0.2082
vn 0.2459 0.9398 0.2375
vn 0.0457 0.9969 0.0639
vn 0.1907 0.9812 0.0309
vn 0.1454 0.9862 0.0786
vn 0.1468 0.9885 0.0361
vn 0.0397 0.9888 0.1439
vn 0.1902 0.9642 0.1848
vn 0.1232 0.9881 0.0923
vt 0.568359 0.218750
vt 0.570313 0.218750
vt 0.572266 0.218750
vt 0.574219 0.218750
vt 0.576172 0.218750
vt 0.568359 0.220703
vt 0.570313 0.220703
vt 0.572266 0.220703
vt 0.574219 0.220703
vt 0.576172 0.220703
vt 0.568359 0.222656
vt 0.570312 0.222656
vt 0.572266 0.222656
vt 0.574219 0.222656
vt 0.576172 0.222656
vt 0.572266 0.224609
vt 0.574219 0.224609
vt 0.576172 0.224609
vt 0.572266 0.226562
vt 0.574219 0.226562
vt 0.576172 0.226563
s 1
usemtl myLines
f 1/1/1 2/2/2 7/7/3 6/6/4
f 2/2/2 3/3/5 8/8/3 7/7/3
f 3/3/5 4/4/6 9/9/3 8/8/3
f 4/4/6 5/5/7 10/10/8 9/9/3
f 6/6/4 7/7/3 12/12/9 11/11/10
f 7/7/3 8/8/3 13/13/11 12/12/9
f 8/8/3 9/9/3 14/14/3 13/13/11
f 9/9/3 10/10/8 15/15/12 14/14/3
f 13/13/11 14/14/3 17/17/3 16/16/13
f 14/14/3 15/15/12 18/18/14 17/17/3
f 16/16/13 17/17/3 20/20/15 19/19/16
f 17/17/3 18/18/14 21/21/17 20/20/15
